<svg xmlns="http://www.w3.org/2000/svg" viewBox="0 0 434.92 80.98"><g id="Layer_2" data-name="Layer 2"><g id="レイヤー_1" data-name="レイヤー 1"><path d="M47.74,28a3.34,3.34,0,1,0-3.24-3.25A3.36,3.36,0,0,0,47.74,28Z"/><path d="M29.64,21.35a3.29,3.29,0,0,0-3.25,3.42,3.25,3.25,0,1,0,3.25-3.42Z"/><path d="M38.69,43.9A11.51,11.51,0,0,1,37,46.29c-.68.51-1.19,1-1.87,1.54h7.34a18.26,18.26,0,0,1-1.88-1.54A12.63,12.63,0,0,1,38.69,43.9Z"/><path d="M0,1.88V79.43H77.55V1.88ZM71.83,31.26A7.57,7.57,0,0,0,65,26.82a3.88,3.88,0,0,0-3.76,3.25v5A16.75,16.75,0,0,1,44.5,51.08H40.4v7a2,2,0,0,0,1.88,1.71h5.46a6.61,6.61,0,0,1,6,3.42H23.83c.68-1.88,3.07-3.42,6-3.42h5.46a2.17,2.17,0,0,0,1.88-1.71v-7h-4.1A17,17,0,0,1,16.14,35v-5a3.83,3.83,0,0,0-3.58-3.25,7.83,7.83,0,0,0-7,4.44v-.85a6.9,6.9,0,0,1,7-6.84h1a6.84,6.84,0,0,1,5.3,4.28,5.24,5.24,0,0,1,.51,2.22v4.27a13.36,13.36,0,0,0,6,11.1l.34.17a6.52,6.52,0,0,0,6.15.17,6,6,0,0,0,2.73-1.88,8.86,8.86,0,0,0,1.88-2.56,12.14,12.14,0,0,0,.68-3.42,12.15,12.15,0,0,0-.68-3.41,9.64,9.64,0,0,0-1.88-2.74,11.44,11.44,0,0,0-1.71-1.36,7.07,7.07,0,0,1-3.24.85,6.58,6.58,0,0,1,0-13.15,6.66,6.66,0,0,1,6.66,6.66,7.88,7.88,0,0,1-1,3.42A11.44,11.44,0,0,1,37,29.55a12.06,12.06,0,0,1,1.71,2.39,13.3,13.3,0,0,1,1.88-2.39,6.71,6.71,0,0,1,1.71-1.36,6.2,6.2,0,0,1-1-3.42,6.58,6.58,0,1,1,6.49,6.49,6.4,6.4,0,0,1-3.07-.85c-.68.51-1.19.85-1.88,1.36a9.26,9.26,0,0,0-1.71,2.74,8.15,8.15,0,0,0-.68,3.41,7,7,0,0,0,.68,3.25,7.46,7.46,0,0,0,1.71,2.73,7.07,7.07,0,0,0,2.73,1.88,7.45,7.45,0,0,0,3.25.68,5.74,5.74,0,0,0,2.9-.85l.35-.17a13.39,13.39,0,0,0,6-11.1V30.07a5.24,5.24,0,0,1,.51-2.22,6.81,6.81,0,0,1,5.29-4.28H65a7,7,0,0,1,7,6.84A7.36,7.36,0,0,1,71.83,31.26Z"/><path d="M114.11,51.59c-1.54,0-1.88-1-1.88-2.22-.17-2.39-.17-13.67-.17-17.6V23.23s.34-17.76.34-21.86c0-.86,0-1.37-.68-1.37a2.81,2.81,0,0,0-1.54.68A82,82,0,0,1,101.47,5l-.51.17c0,.17-.17.68-.17,1v.17c.34.17,1.19.34,2,.69,2.39.85,3.58,2,3.58,4.44.17,2.05.34,12.12.34,12.12v6.67c0,4.44,0,17.25-.17,19.47v1.37a11.37,11.37,0,0,1-3.58.51h-2.39a7.28,7.28,0,0,0-.18,2c0,.34.18.68.52.68.68,0,3.58-.17,8.37-.17s8,.17,8.54.17h.34c0-.34.17-1.36.17-2v-.34a11.18,11.18,0,0,0-2.9-.34Z"/><path d="M134.44,46.47c-3.76,0-4.78,2.9-4.78,4.09,0,3.59,3.07,4.45,4.78,4.45a4,4,0,0,0,4.1-4.1A4.23,4.23,0,0,0,134.44,46.47Z"/><path d="M178.85,49.37c-.34-.17-.51,0-.68.34a4.1,4.1,0,0,1-2.73,1.2c-1.37,0-2.22-1.37-2.22-5.64V29.38c0-2.05,0-3.76-1.54-5.29-1.2-1-2.56-2.05-6-2.05a16.81,16.81,0,0,0-9.23,2.56c-3.07,1.88-5.12,4.78-5.12,7.17,0,1.71.51,2.4,1.71,2.4,3.07,0,4.1-1.71,4.1-4.27,0-1.37-.69-2.57.34-3.59a9.28,9.28,0,0,1,4.78-1.54,5.76,5.76,0,0,1,4.61,1.71,6,6,0,0,1,.86,2.22c0,1,.17,2.9.17,3.93v2.73c-1.2,1.2-5.13,2.91-8.54,4.44-5.81,2.56-7.52,5.64-7.52,9.06,0,4.61,2.73,6.15,4.61,6.15a13.05,13.05,0,0,0,4.45-.52,18.5,18.5,0,0,0,5.8-3.24,7.65,7.65,0,0,1,1.71-1.2c.69,3.08,2.56,5,5.3,5,3.76,0,5.12-2.57,5.81-3.59l.51-.86Zm-11.1-4.44a6.29,6.29,0,0,1-1.2,3.41s-2.73,3.25-5,3.25-3.76-1.37-3.76-4.27c0-6.15,7.18-7.69,9.91-9.57Z"/><path d="M192.69,46.47c-3.76,0-4.61,2.9-4.61,4.09A4.36,4.36,0,0,0,192.69,55a4.09,4.09,0,0,0,4.27-4.1A4.26,4.26,0,0,0,192.69,46.47Z"/><path d="M221.39,22.89A1.66,1.66,0,0,1,219.68,21l.17-5.46c0-.52-.17-1.2-.69-1.2s-.85.17-1,.85c-1,2.57-6.83,8.37-8.54,9.4-.85.51-1.37.68-1.37,1.37v.51a15.46,15.46,0,0,0,3.08.34h2.56c0,3.25-.17,7.52-.17,7.52v3.58c0,1-.17,7.69-.17,10.77,0,2.9,3.59,6.32,7.17,6.32a12.71,12.71,0,0,0,8.37-2.91l.18-.34a3.27,3.27,0,0,0-.35-1.2c-.34-.34-.51-.34-1-.17a9.87,9.87,0,0,1-4.78,1c-1.37,0-3.94-1-3.94-6.66v-9.4l.18-6.66a1.89,1.89,0,0,1,1.88-1.88h8.2c.17-.34.51-1.37.85-2.39l.17-.86.17-.17a5.12,5.12,0,0,0-2.73-.51Z"/><path d="M260.16,22.89a1.66,1.66,0,0,1-1.7-1.88l.17-5.46c0-.52-.17-1.2-.69-1.2s-.85.17-1,.85c-1,2.57-6.83,8.37-8.54,9.4-.86.51-1.37.68-1.37,1.37v.51a15.38,15.38,0,0,0,3.08.34h2.56c0,3.25-.17,7.52-.17,7.52v3.58c0,1-.17,7.69-.17,10.77,0,2.9,3.58,6.32,7.17,6.32a12.73,12.73,0,0,0,8.37-2.91l.17-.34a3.25,3.25,0,0,0-.34-1.2c-.34-.34-.51-.34-1-.17a9.88,9.88,0,0,1-4.79,1c-1.36,0-3.93-1-3.93-6.66v-9.4l.17-6.66A1.9,1.9,0,0,1,260,26.82h8.2c.17-.34.51-1.37.86-2.39l.17-.86.17-.17a4.84,4.84,0,0,0-2.57-.51Z"/><path d="M303.21,22a16.8,16.8,0,0,0-10.08,3.58,15.85,15.85,0,0,0-6.49,12.13c0,5.3.68,8,4.1,12.13A15.29,15.29,0,0,0,302.19,55c9.22,0,16.56-8.2,16.56-16.4a16.75,16.75,0,0,0-5.12-12.3A15.74,15.74,0,0,0,303.21,22ZM303,52.79a8.13,8.13,0,0,1-7.35-3.93c-2.39-3.42-2.9-6.32-2.9-10.42,0-5.64,1-8.72,3.93-11.79a7.6,7.6,0,0,1,5.81-2.39c3.75,0,9.91,5.29,9.91,13.49C312.44,45.78,308.68,52.79,303,52.79Z"/><path d="M358.05,21.52c-3.25,0-7.69,5.13-7.69,5.13a5.91,5.91,0,0,1-1.54,1.54,14.45,14.45,0,0,1-.17-2.05l-.34-3.25c0-.34,0-.85-.51-.85h-.35l-2.39,1.19-5.63,2.91-.52.17c0,.34-.17.68-.17,1v.34a8.88,8.88,0,0,1,2.05.86c2,1.19,2.73,1.88,2.73,5.64v9s0,4.61-.17,7v1a21.35,21.35,0,0,1-3.58.34h-1.54a7.7,7.7,0,0,0-.17,2c0,.51.17.68.51.68s3.59-.17,8.2-.17c3.93,0,7.34.17,7.86.17H355V51.93a6.37,6.37,0,0,0-2.39-.34H351c-1.71,0-1.88-1-1.88-1a33.35,33.35,0,0,1-.34-3.92V33a5.7,5.7,0,0,1,.86-2.39,5.41,5.41,0,0,1,4.43-3.25,5.49,5.49,0,0,1,2.4.69,7.06,7.06,0,0,0,2.22.51,3.55,3.55,0,0,0,3.07-3.59A3.41,3.41,0,0,0,358.05,21.52Z"/><path d="M392.55,22.89A1.9,1.9,0,0,1,390.67,21l.34-5.46c0-.52-.17-1.2-.68-1.2s-.85.17-1,.85c-1,2.57-6.83,8.37-8.53,9.4-1,.51-1.37.68-1.37,1.37v.51a12.76,12.76,0,0,0,3.07.34H385c0,3.25-.18,7.52-.18,7.52v3.58c0,1-.17,7.69-.17,10.77,0,2.9,3.59,6.32,7.18,6.32a12.73,12.73,0,0,0,8.37-2.91l.17-.34a3.25,3.25,0,0,0-.34-1.2c-.35-.34-.51-.34-1-.17a10.07,10.07,0,0,1-5,1c-1.2,0-3.76-1-3.76-6.66v-9.4l.17-6.66a1.89,1.89,0,0,1,1.88-1.88h8.2c.17-.34.51-1.37.85-2.39l.18-.86.16-.17a5.51,5.51,0,0,0-2.73-.51Z"/><path d="M432.18,51.59h-1.53c-.69,0-1-.51-1.2-1.88V35.19c0-6.32,0-10.93.17-12.3,0-.51,0-.85-.34-.85a3.26,3.26,0,0,0-1.54.51,53.46,53.46,0,0,1-8,3.59l-.34.17c-.17.17-.17.68-.17,1s.17.52.68.52c3.76.68,3.93,2.56,3.93,2.56a30.32,30.32,0,0,1,.17,3.93V51.42a16.64,16.64,0,0,1-3.07.17h-2.22a6.73,6.73,0,0,0-.34,2.22c0,.34.34.51.68.51.85,0,3.76-.17,8-.17,3.07,0,6.49.17,7.17.17h.52a7,7,0,0,0,.17-2v-.34A9.8,9.8,0,0,0,432.18,51.59Z"/><path d="M424.84,13.5a4.08,4.08,0,0,0,4.27-4.1,3.72,3.72,0,0,0-3.93-3.76,4.1,4.1,0,0,0-4.44,3.93A4.23,4.23,0,0,0,424.84,13.5Z"/><path d="M195.13,78.22c0,1.51.69,1.77,1.05,1.77a3,3,0,0,0,1.33-.26.16.16,0,0,1,.24,0l.1.18a.16.16,0,0,1,0,.22,3.35,3.35,0,0,1-2.24.81,2.06,2.06,0,0,1-1.95-1.71c0-.83.06-2.59.06-2.88V76c0-.36,0-1.73,0-2.57H192.5c-.18,0-.3-.08-.3-.24s.12-.22.36-.36a9.16,9.16,0,0,0,2.29-2.52.27.27,0,0,1,.28-.2c.16,0,.2.14.2.3l-.1,2H198c.12,0,.18.1.14.18l-.2.71c0,.1-.06.16-.18.16h-2.6c0,.92-.06,1.91-.06,2.83Z"/><path d="M200.76,79.59a4.49,4.49,0,0,1,.63-6.51,4.31,4.31,0,0,1,2.69-1,4.2,4.2,0,0,1,2.81,1.17,4.44,4.44,0,0,1,1.37,3.28A4.59,4.59,0,0,1,203.82,81,4,4,0,0,1,200.76,79.59Zm5.81-3.24c0-2.23-1.63-3.64-2.65-3.64a2,2,0,0,0-1.55.65,4,4,0,0,0-1.06,3.16,4.34,4.34,0,0,0,.76,2.81,2.24,2.24,0,0,0,2,1C205.59,80.38,206.57,78.51,206.57,76.35Z"/><path d="M212.77,78.22c0,1.51.68,1.77,1,1.77a2.92,2.92,0,0,0,1.33-.26.16.16,0,0,1,.24,0l.1.18a.16.16,0,0,1,0,.22,3.34,3.34,0,0,1-2.23.81,2.05,2.05,0,0,1-2-1.71c0-.83.06-2.59.06-2.88V76c0-.36,0-1.73,0-2.57h-1.23c-.18,0-.3-.08-.3-.24s.12-.22.36-.36a9.16,9.16,0,0,0,2.29-2.52.28.28,0,0,1,.29-.2c.16,0,.2.14.2.3l-.1,2h2.79c.12,0,.18.1.14.18l-.2.71c0,.1-.06.16-.18.16h-2.59c0,.92-.06,1.91-.06,2.83Z"/><path d="M223.74,78.35c0,1.14.25,1.5.61,1.5a.92.92,0,0,0,.7-.3c.08-.1.12-.14.2-.08l.2.16c.06.06.1.16,0,.36a1.64,1.64,0,0,1-1.56,1,1.49,1.49,0,0,1-1.43-1.35h0a4.36,4.36,0,0,1-2,1.23,3.82,3.82,0,0,1-1.19.12c-.48,0-1.21-.4-1.21-1.67,0-.93.43-1.73,2-2.43a13.32,13.32,0,0,0,2.27-1.17V74.42A2.32,2.32,0,0,0,222,73.3a1.54,1.54,0,0,0-1.21-.44,2.27,2.27,0,0,0-1.31.42c-.28.26-.1.56-.1.92,0,.71-.24,1.15-1.06,1.15-.33,0-.49-.18-.49-.64a2.53,2.53,0,0,1,1.39-1.89,4.4,4.4,0,0,1,2.45-.71,2.06,2.06,0,0,1,1.61.54,1.77,1.77,0,0,1,.44,1.43v4.27Zm-1.46-2c-.73.55-2.7,1-2.7,2.62a1,1,0,0,0,1,1.1c.58,0,1.65-.7,1.65-1.24Z"/><path d="M230.56,74.75c0,1,0,4.08,0,4.7,0,.34.1.62.52.62H232c.18,0,.22.06.22.18v.35c0,.12,0,.2-.12.2s-1-.06-2.27-.06-2.09.06-2.27.06-.15-.08-.15-.2v-.35c0-.14,0-.18.27-.18h1c.22,0,.42-.14.44-.5,0-.62,0-4.08,0-5.25V73.06c0-1.43,0-3.26-.06-3.78a1.21,1.21,0,0,0-1-1.21l-.4-.14c-.1,0-.12-.06-.12-.1v-.16c0-.06.05-.1.18-.14a19,19,0,0,0,2.35-1.17.74.74,0,0,1,.42-.16c.14,0,.18.1.16.36,0,1.11-.08,5.29-.08,6.4Z"/><path d="M246.41,69.9c0-1.35-.23-1.63-.95-1.87l-.2-.06c-.22-.06-.26-.1-.26-.16v-.16c0-.06,0-.1.16-.16a21.34,21.34,0,0,0,2.13-1.11.84.84,0,0,1,.42-.18c.14,0,.18.1.16.34s0,2.46,0,4.24v2.34a4.25,4.25,0,0,1,2.78-1c1.77,0,3.68,1.43,3.68,4.3A4.51,4.51,0,0,1,250.13,81a4.67,4.67,0,0,1-2.38-.52l-.8.44a.29.29,0,0,1-.26.06l-.24-.06c-.08,0-.1-.06-.08-.16,0-.28,0-1.95,0-3.42Zm1.44,6.51a7.6,7.6,0,0,0,.31,2.92,2.21,2.21,0,0,0,1.9,1c1.21,0,2.7-.83,2.7-3.46,0-1.95-1-3.8-3-3.8a2.7,2.7,0,0,0-1.91.72Z"/><path d="M258.21,75.39a5.14,5.14,0,0,0-.06,1c0,2,1.25,3.46,2.85,3.46a2.72,2.72,0,0,0,2.44-1.37.17.17,0,0,1,.18-.09l.26.14c.06,0,.1.08,0,.3a3.74,3.74,0,0,1-6.35.76,4.75,4.75,0,0,1-.89-3.18,4.5,4.5,0,0,1,1.27-3.19,3.7,3.7,0,0,1,2.87-1.07,3,3,0,0,1,3,3c0,.28-.24.32-.56.32Zm3.2-.6c.38,0,.54-.1.54-.29,0-.46-.24-1.79-1.55-1.79-.88,0-1.73.59-2.11,2.08Z"/><path d="M272,78.35c0,1.14.25,1.5.61,1.5a.92.92,0,0,0,.7-.3c.08-.1.12-.14.2-.08l.2.16c.06.06.1.16,0,.36a1.65,1.65,0,0,1-1.57,1,1.49,1.49,0,0,1-1.42-1.35h0a4.41,4.41,0,0,1-2,1.23,3.85,3.85,0,0,1-1.19.12c-.48,0-1.21-.4-1.21-1.67,0-.93.42-1.73,2-2.43a13.5,13.5,0,0,0,2.28-1.17V74.42a2.22,2.22,0,0,0-.29-1.12,1.52,1.52,0,0,0-1.2-.44,2.27,2.27,0,0,0-1.31.42c-.28.26-.1.56-.1.92,0,.71-.24,1.15-1.06,1.15-.33,0-.49-.18-.49-.64a2.5,2.5,0,0,1,1.39-1.89,4.37,4.37,0,0,1,2.45-.71,2.06,2.06,0,0,1,1.61.54,1.8,1.8,0,0,1,.44,1.43v4.27Zm-1.46-2c-.73.55-2.7,1-2.7,2.62a1,1,0,0,0,1.05,1.1c.58,0,1.65-.7,1.65-1.24Z"/><path d="M283,76.66c0,1,0,2,0,2.37.06.62.28.7.53.7a2.94,2.94,0,0,0,.66-.06c.16,0,.22,0,.24.08l.06.26c0,.12,0,.16-.1.18l-2.11.71a1.18,1.18,0,0,1-.4.08c-.08,0-.16,0-.18-.24l-.17-1.17h0A3.67,3.67,0,0,1,278.84,81a2.1,2.1,0,0,1-1.89-.93c-.82-1.06-.78-1.72-.78-3.94V73.76c0-.56-.31-.7-.77-.76s-.44,0-.44-.14v-.37c0-.12,0-.16.22-.16H277a1,1,0,0,0,.28,0l.22,0a.21.21,0,0,1,.22.24c0,.18-.08,1.13-.08,2.32v1.44c0,.81-.2,2.1.45,3a1.67,1.67,0,0,0,1.6.76,2.75,2.75,0,0,0,1.73-1,1.09,1.09,0,0,0,.2-.54V73.7c0-.56-.36-.66-.86-.7-.34,0-.44,0-.44-.14v-.35c0-.16,0-.18.24-.18h1.87a1.59,1.59,0,0,0,.34,0l.24,0a.17.17,0,0,1,.18.2,18,18,0,0,0-.12,2.68Z"/><path d="M289,78.22c0,1.51.69,1.77,1.05,1.77a2.92,2.92,0,0,0,1.33-.26.16.16,0,0,1,.24,0l.1.18a.16.16,0,0,1,0,.22,3.34,3.34,0,0,1-2.23.81,2.05,2.05,0,0,1-2-1.71c0-.83.06-2.59.06-2.88V76c0-.36,0-1.73,0-2.57H286.4c-.18,0-.3-.08-.3-.24s.12-.22.36-.36a9.16,9.16,0,0,0,2.29-2.52.27.27,0,0,1,.28-.2c.17,0,.2.14.2.3l-.1,2h2.8c.12,0,.18.1.14.18l-.2.71c0,.1-.06.16-.18.16H289.1c-.05.92-.07,1.91-.07,2.83Z"/><path d="M295.71,74.89c0-.69-.12-1-1.13-1.21-.14,0-.18-.06-.18-.14v-.18c0-.06,0-.1.14-.14a16.69,16.69,0,0,0,2.18-1,.83.83,0,0,1,.38-.12c.1,0,.12.1.1.24,0,.34,0,1.61,0,3.28v2.19c0,.79,0,1.51,0,1.73,0,.38.1.52.32.52h.92c.17,0,.21.06.21.18v.35c0,.14,0,.2-.18.2s-1.09-.06-1.94-.06c-1.16,0-1.95.06-2.17.06s-.16,0-.16-.16v-.41c0-.12.06-.16.2-.16h1c.22,0,.3-.08.32-.4,0-.6,0-1.23,0-1.83Zm-.94-6.18A1.18,1.18,0,0,1,296,67.59a1.06,1.06,0,0,1,1.09,1.06,1.15,1.15,0,0,1-1.21,1.19A1.22,1.22,0,0,1,294.77,68.71Z"/><path d="M302,75.87a5.68,5.68,0,0,0,1,3.06,2.59,2.59,0,0,0,2.19,1,2.75,2.75,0,0,0,2.21-.86.1.1,0,0,1,.16,0l.21.2c.08.08.1.14,0,.26A4.71,4.71,0,0,1,304.6,81a3.67,3.67,0,0,1-3.12-1.41,4.17,4.17,0,0,1-.9-2.73,4.5,4.5,0,0,1,4.3-4.73c2.09,0,2.73,1.21,2.73,1.63a.68.68,0,0,1-.74.7,1.27,1.27,0,0,1-1.11-.8c-.44-.82-.86-.88-1.34-.88C303.27,72.76,302,73.8,302,75.87Z"/><path d="M311.76,74.89c0-.69-.12-1-1.13-1.21-.14,0-.18-.06-.18-.14v-.18c0-.06,0-.1.14-.14a16.61,16.61,0,0,0,2.17-1,.83.83,0,0,1,.38-.12c.1,0,.13.1.1.24,0,.34,0,1.61,0,3.28v2.19c0,.79,0,1.51,0,1.73,0,.38.1.52.32.52h.92c.16,0,.2.06.2.18v.35c0,.14,0,.2-.18.2s-1.08-.06-1.93-.06c-1.16,0-1.95.06-2.17.06s-.16,0-.16-.16v-.41c0-.12.06-.16.2-.16h1c.23,0,.31-.08.33-.4,0-.6,0-1.23,0-1.83Zm-.95-6.18a1.18,1.18,0,0,1,1.27-1.12,1.05,1.05,0,0,1,1.08,1.06,1.15,1.15,0,0,1-1.2,1.19A1.23,1.23,0,0,1,310.81,68.71Z"/><path d="M322.63,78.35c0,1.14.25,1.5.61,1.5a.92.92,0,0,0,.7-.3c.08-.1.12-.14.2-.08l.2.16c.06.06.1.16,0,.36a1.64,1.64,0,0,1-1.56,1,1.49,1.49,0,0,1-1.43-1.35h0a4.36,4.36,0,0,1-2,1.23,3.85,3.85,0,0,1-1.19.12c-.48,0-1.21-.4-1.21-1.67,0-.93.43-1.73,2-2.43a13.11,13.11,0,0,0,2.28-1.17V74.42a2.32,2.32,0,0,0-.28-1.12,1.56,1.56,0,0,0-1.21-.44,2.27,2.27,0,0,0-1.31.42c-.28.26-.1.56-.1.92,0,.71-.24,1.15-1.06,1.15-.33,0-.49-.18-.49-.64a2.53,2.53,0,0,1,1.39-1.89,4.4,4.4,0,0,1,2.45-.71,2.06,2.06,0,0,1,1.61.54,1.8,1.8,0,0,1,.44,1.43v4.27Zm-1.46-2c-.73.55-2.7,1-2.7,2.62a1,1,0,0,0,1,1.1c.58,0,1.65-.7,1.65-1.24Z"/><path d="M334.28,79.65c0,.32.18.42.44.42h.64c.18,0,.22.06.22.18v.33c0,.14,0,.22-.16.22s-.76-.06-1.91-.06-1.67.06-1.81.06-.16-.06-.16-.22v-.33c0-.14.06-.18.26-.18h.59c.22,0,.38-.1.4-.46,0-.52,0-1.17,0-1.69V75.27c0-.81,0-1.39-.59-1.81a2.19,2.19,0,0,0-1.46-.36,2.36,2.36,0,0,0-1.63.78,2,2,0,0,0-.46,1.37v4.16c0,.54.06.66.48.66h.5c.16,0,.2.06.2.21v.34c0,.12,0,.18-.14.18s-.68-.06-1.75-.06-1.67.06-1.79.06-.14-.06-.14-.18v-.37c0-.12,0-.18.2-.18h.59c.26,0,.4-.06.4-.4V75a1.23,1.23,0,0,0-.83-1.19l-.16-.08c-.14-.06-.16-.12-.16-.18v-.1c0-.1.08-.16.18-.2l1.73-1a1,1,0,0,1,.37-.14c.1,0,.14.08.16.24l.14,1.23h0a4,4,0,0,1,2.75-1.47,3.12,3.12,0,0,1,1.71.44,3,3,0,0,1,1.11,1.91Z"/><path d="M338.08,80.4c-.1-.06-.1-.19-.12-.29l-.34-1.9c0-.11,0-.15.12-.17L338,78q.12,0,.18.12l.5,1c.4.74.68,1.25,1.75,1.25A1.47,1.47,0,0,0,342,79c0-.91-.44-1.43-1.95-1.85-1.19-.34-2.38-1-2.38-2.55a2.67,2.67,0,0,1,2.82-2.46,3.74,3.74,0,0,1,1.85.42c.3.14.34.25.36.37l.3,1.4a.19.19,0,0,1-.14.18l-.24.09c-.08,0-.12,0-.18-.11l-.68-.92a1.55,1.55,0,0,0-1.41-.78,1.41,1.41,0,0,0-1.55,1.32c0,1.17.95,1.39,1.93,1.67,1.47.42,2.4,1,2.41,2.58A2.76,2.76,0,0,1,340.11,81,3.78,3.78,0,0,1,338.08,80.4Z"/></g></g></svg>