<svg xmlns="http://www.w3.org/2000/svg" viewBox="0 0 1056.5 869.07"><defs><style>.cls-1{fill:#fff;}</style></defs><g id="Layer_2" data-name="Layer 2"><g id="レイヤー_1" data-name="レイヤー 1"><path class="cls-1" d="M0,869.07c.12-10.45.27-19.79.44-28.5.57-28.61,2.75-57.76,5-85C7,736.75,11.71,718.08,16.24,700c1.18-4.72,2.4-9.59,3.55-14.41,8-33.61,19.48-66.76,30.55-98.81,4.33-12.56,8.81-25.54,13-38.38C75,513.2,85,486.45,96.05,461.69a307,307,0,0,1,32.76-56.76c16.5-22.47,34.26-43.14,49.45-60.4a69.38,69.38,0,0,1,5.18-5.42c24.92-22.57,47.74-42.56,74.81-58.56,32.06-19,60.84-40.38,85.52-63.66,23.44-22.11,45.75-48.92,68.19-82a242.09,242.09,0,0,0,23.43-42.26c4-9.48,9.66-19,17.82-29.84,2.23-3,4.87-5.86,9.07-6.93a16.14,16.14,0,0,1,4-.56c4.17,0,6.78,2.16,8,6.59a125.35,125.35,0,0,1,2.92,17.31l.39,3.24a40.13,40.13,0,0,1,.12,6.33c0,1-.06,2.09-.06,3.14v.78l.58.51c13.18,11.39,19.81,27.59,19.7,48.15-.3,54.6-16.07,99.06-48.21,135.93l-.1.11c-2.86,3.28-5.82,6.68-8.79,10-8.13,9-16.52,18.23-28.25,24.08L410,312.73l2.29,1.65c.35.25.63.47.87.66a5.42,5.42,0,0,0,1.66,1c17.74,5.94,34.14,15.47,50,24.69l.11.07c3.9,2.26,7.9,4.48,11.76,6.63,3.66,2,7.45,4.14,11.13,6.27a61.79,61.79,0,0,0,31.29,8.57,72.06,72.06,0,0,0,16.9-2.11,40.26,40.26,0,0,0,20.33-11.68c20.85-21.66,32.67-48.37,41.48-71.64,7.74-20.44,13.45-43,18-71,3.69-22.93,7.13-47.07,10.23-71.73,4.12-32.68,19.21-59.58,44.85-80,.88-.7,1.71-1.45,2.51-2.18.6-.55,1.21-1.1,1.84-1.63,1.11-.93,1.64-1.24,2.09-1.24a6.82,6.82,0,0,1,2.58,1,21,21,0,0,1-1.76,2c-2.09,2-4.21,4-6.33,6s-4.44,4.22-6.63,6.36c-16.59,16.18-25.85,37.18-28.33,64.2-.76,8.31-1.3,16.77-1.83,25-.6,9.43-1.23,19.18-2.19,28.72-3.72,36.91-10.08,80.14-29.1,121-8.66,18.6-19.09,34-31.9,47-15.58,15.86-30.66,28.66-46.12,39.14s-33,18.13-55.52,24.37c-13.8,3.81-27.8,7.77-41.34,11.6-22.58,6.38-45.92,13-69,19.1-10.5,2.79-21.49,4.62-32.11,6.39-3.7.62-7.4,1.23-11.09,1.89-43.48,7.74-78,19.18-108.81,36l-5.44,3c-12.78,7-26,14.2-38.77,21.72-4.81,2.82-9.05,6.64-13.14,10.33L149,525.38c-2.47,2.21-3.95,3-5.64,3h0a12.52,12.52,0,0,1-4.8-1.32l.91-1.16a42.11,42.11,0,0,1,4.41-5.07,82.42,82.42,0,0,1,10.75-8.64c31.24-20.46,58.3-34.65,85.17-44.64a381.81,381.81,0,0,1,77.62-19.93c21.27-3.12,41.61-8.37,65.59-15.3,13.62-3.94,27.49-7.86,40.9-11.66,14.83-4.2,30.17-8.54,45.23-12.91,22.49-6.53,43.39-18.85,65.8-38.78a7.51,7.51,0,0,0,1.33-1.7c.18-.27.38-.58.61-.9l2.28-3.19-3.89.51c-1.77.24-3.49.49-5.18.74-3.57.52-6.95,1-10.33,1.27-1.87.14-3.75.21-5.6.21a70.57,70.57,0,0,1-30.91-7.08c-13-6.28-26-13.24-38.52-20L439,335.79c-13.67-7.32-28.38-14.8-44.5-18.78a156.18,156.18,0,0,0-37.79-5,124,124,0,0,0-14.89.89c-3.31.4-6.62.78-9.93,1.16-7.8.9-15.86,1.82-23.76,3a71.37,71.37,0,0,0-24.2,7.81,8.43,8.43,0,0,1-9.51-.1c1.51-1.68,3.64-2.66,5.86-3.68l.95-.43c10.38-4.86,21.75-7.22,31.5-8.89a257.34,257.34,0,0,1,43.54-4.13c2.82,0,5.65.07,8.39.19,10.6.48,21.42,2,31,3.3a26.18,26.18,0,0,0,3.45.28,9.88,9.88,0,0,0,6.89-2.45c1.29-1.14,2.61-2.26,3.92-3.38a122.18,122.18,0,0,0,10-9.13c4-4.27,7.84-8.85,11.52-13.28,1.6-1.92,3.2-3.85,4.83-5.75,22.29-26.19,36.58-58.68,43.68-99.33,2.2-12.57,4.23-27.53,2.66-43.2-.8-7.92-2.58-19.64-8.78-30-4.06-6.78-7.24-10.7-11.52-10.7-3.59,0-7.22,2.88-11.91,7.53-7.61,7.54-13.69,16.39-19.77,25.56a584,584,0,0,1-44,58c-30.91,35.95-69,67.11-113.18,92.62C247.31,293,223,311.3,199,334c-17,16.09-31.6,34.87-45.67,53-2,2.56-4,5.13-6,7.68-18.06,23.16-32.91,48.79-45.41,78.36-13.28,31.45-24.53,63-34.7,92.47-2.94,8.5-6,17.12-9,25.45-5.82,16.19-11.84,32.93-17,49.65-9.15,29.74-18.46,61.83-24.64,95-4.39,23.6-6.07,47.17-7.12,67.11-1.1,20.78-1.87,42.29-2.35,65.7C4.63,868.65,2.28,868.85,0,869.07Z"/><path class="cls-1" d="M219.57,864.84q-1.27-8.39-2.58-16.77l-.11-.68c-2.49-15.74-5.07-32-7.06-48.08-2.9-23.41-2.54-47.53,1.08-73.73a47.11,47.11,0,0,1,11.88-25.29c15.95-18.14,34.46-35.13,58.26-53.45,4.28-3.3,8.6-7,12.84-10.85a232.11,232.11,0,0,1,75.32-46.38l8.82-3.34c30.9-11.67,62.85-23.75,93.27-38.26,6.55-3.13,13.54-5.7,20.3-8.2,4.26-1.57,8.66-3.19,12.93-4.94,16.11-6.6,32.76-13.43,49-20.61,18.37-8.12,32.44-20.91,41.82-38,1.55-2.82,3.23-5.65,4.85-8.38,1.49-2.5,3-5.09,4.47-7.69q19.17-34.41,38.31-68.86,15.57-28,31.17-56l2.17-3.92c3-5.51,6.19-11.2,9.54-16.61,10.13-16.38,15.13-35.13,15.72-59,.39-16.07-1.3-32.2-2.94-47.79q-.6-5.61-1.16-11.21c-.81-8.33-.91-16.9-1-25.2,0-3.43-.08-7-.17-10.49a6.42,6.42,0,0,1,.27-1.67l.06-.27a5.63,5.63,0,0,1,3-1,4.43,4.43,0,0,1,2.12.56l16,100.57,3.65-7.78c.78-1.67,1.42-3,2.07-4.4,10.83-22.88,16.31-47.31,20.62-70.31,4.88-26,11.33-48.9,19.73-69.86,11.4-28.47,29.13-51.18,52.67-67.52,4.87-3.37,10.83-5.54,16.6-7.64,1.91-.69,3.88-1.41,5.79-2.16a4.38,4.38,0,0,1,1.56-.31,4.26,4.26,0,0,1,2.65,1l-.16.12a12.89,12.89,0,0,1-3.05,1.92c-16.62,6.15-27.82,18.81-37,30.2-13.79,17.06-23.2,34.26-28.76,52.58q-2.05,6.75-4.13,13.5c-5,16.47-10.27,33.5-14.78,50.44-8,29.94-17.58,55.46-29.41,78-6.37,12.13-11,22.67-13.2,34.67-1.6,8.86-6.39,16.84-11,24.56-1.29,2.14-2.62,4.36-3.87,6.57-20.43,36.17-42.12,72.77-66.3,111.89-4.84,7.83-9.59,15.89-14.18,23.68q-3.09,5.25-6.19,10.48c-.56.93-1.1,1.88-1.84,3.17L605,479.33l4.91-2.31,2.41-1.12c1.28-.58,2.2-1,3.12-1.49,2.33-1.22,4.69-2.41,7-3.6,5.4-2.73,11-5.55,16.25-8.77,25.86-15.8,44.7-29.32,61.09-43.83,9.74-8.62,19.35-17.42,27.6-25,9.35-8.58,18-19,27.18-32.86,6.75-10.16,10.63-21.46,13.82-32.15,2.93-9.8,5.68-19.82,8.34-29.52,3.45-12.57,7-25.58,11-38.2,9-28.67,18.83-57.64,28.31-85.65l4.13-12.21c1.71-5.06,3.82-10.11,5.87-15,1.19-2.85,2.43-5.8,3.58-8.73a2,2,0,0,1,2.16-1.58,8.39,8.39,0,0,1,1.7.22,2.71,2.71,0,0,1,1.78,1,2.11,2.11,0,0,1,.16,1.63c-.34,1.56-.81,3.07-1.31,4.67-.2.66-.41,1.32-.6,2l-4.06,13.78q-5.84,19.84-11.66,39.69c-.28.94-.47,1.87-.74,3.16-.15.71-.32,1.53-.54,2.54l3.05,1.34,5.22-7.52c3.4-4.92,6.62-9.56,9.85-14.12,18.64-26.32,36.14-45.63,55.07-60.77,10.82-8.65,22.6-16.54,34-24.18l3.52-2.36c6.31-4.24,12.84-6.38,19.42-6.38,1,0,2.07,0,3.11.15.32,0,.66,0,1,.07a3.85,3.85,0,0,1,2.29.53,2,2,0,0,1-.52.12,19.07,19.07,0,0,0-2.81-.2c-6.47,0-11.9,3.37-16.26,6.08C905,116.48,880.91,137.88,862,162.38c-9.59,12.44-18.78,25.5-27.67,38.12-3.52,5-7,10-10.58,15-1,1.43-2,2.89-3,4.35-3.73,5.46-7.25,10.61-12.27,14.7-1.81,1.47-2.53,4.11-3.11,6.23l-.08.29q-2.92,10.59-5.76,21.22c-2.82,10.47-5.74,21.3-8.74,31.91-2.67,9.41-5.64,18.92-8.52,28.11-.9,2.87-1.79,5.73-2.68,8.6-5.93,19.1-17,36.4-34.79,54.43-3,3-6.12,6.05-9.15,9-4.28,4.11-8.7,8.35-12.92,12.83l1.87,2.75,1.33-.52c1-.37,2-.76,3-1.19,20.76-9.09,39.64-21.91,57.91-34.32l.68-.46c1.25-.85,2.49-1.71,3.74-2.58,2.73-1.9,5.55-3.87,8.42-5.61,7.72-4.7,14.41-11.28,20.44-20.11a555.49,555.49,0,0,0,39.23-67.12,432.62,432.62,0,0,1,28.29-49.24,209.06,209.06,0,0,1,28.19-33.53c1.46-1.43,2.33-1.63,3.06-1.63a8,8,0,0,1,3.35,1,14.11,14.11,0,0,1-1.63,2.29c-18,19.27-31.13,42.3-42.64,64.32-4.9,9.38-9.65,19-14.24,28.38l-1.84,3.74c-9.62,19.54-21.73,37.88-32.34,53.54a60.3,60.3,0,0,1-17.24,16.93q-7,4.52-13.89,9.08c-9.85,6.46-20,13.14-30.21,19.43-8.3,5.14-17,9.49-25.24,13.51l-1.11.55c-8.74,4.27-17.79,8.69-25.63,15.23a43.33,43.33,0,0,1-9,5.26c-1.5.73-3.06,1.48-4.55,2.29l-1.08.59c-1.34.73-2.68,1.46-4,2.22L689,436.86c-8.13,4.68-16.53,9.51-24.72,14.39-2.79,1.66-5.47,3.55-8.06,5.38-1.39,1-2.79,2-4.21,2.92-3,2-6,4-9,6-6.54,4.29-13.3,8.72-19.71,13.45a194.55,194.55,0,0,0-19.54,16.8c-8.25,8-16.57,15.38-27.59,19-5.63,1.84-11.44,3.51-17,5.12-3.29,1-6.58,1.9-9.86,2.88-3.55,1.07-7.33,2.23-11,3.64-2.84,1.08-5.69,2.25-8.44,3.38C526,531.36,522,533,518,534.39c-14.93,5.3-29.63,11.71-43.85,17.91q-5.32,2.33-10.67,4.63c-17.38,7.49-35.27,14.62-52.58,21.52-11.93,4.75-24.26,9.67-36.34,14.66a199.81,199.81,0,0,0-27.08,13.54,252.5,252.5,0,0,0-42.26,31.66c-8.06,7.57-17.15,14.39-25.94,21-3.48,2.61-7.07,5.31-10.57,8-14.07,10.93-26.51,23.93-38.53,36.5l-.25.25c-5.47,5.72-6.9,12.9-7.53,18.53-2.78,24.65-3.35,43.69-1.85,61.76,2.14,25.89,5.49,53.08,10,80.84a14.29,14.29,0,0,0-3.42-.42h-.61a18.58,18.58,0,0,0-6.72,1.58Z"/><path class="cls-1" d="M832.55,122.17a10.77,10.77,0,0,1-10.24-8.71,32.17,32.17,0,0,1-.19-6.77c.06-1.31.11-2.8.11-4.39.23-15.58,6.88-30.22,14.88-46.38a166.55,166.55,0,0,1,25.68-38.29A160.17,160.17,0,0,1,877.59,3.9l1.49-1.27A12.08,12.08,0,0,1,884.6.21,12,12,0,0,1,886.72,0a3.94,3.94,0,0,1,3.14,1.1c.81.95,1,2.68.66,5A312.53,312.53,0,0,1,857.84,102a60.38,60.38,0,0,1-3.39,5.42c-.69,1-1.38,2-2,3.09-3.94,6.26-10.81,8.85-16.87,11.14A8.42,8.42,0,0,1,832.55,122.17Z"/><path class="cls-1" d="M701,141.5c-2.13,0-3-.42-3.19-3l0-.59-.39-.44c-6.08-6.83-7.75-15.45-9-24.42a86.08,86.08,0,0,1-.43-15c.63-18.84,2.31-41,10.06-62.44a136.68,136.68,0,0,1,6-13.38L705,20a7.37,7.37,0,0,1,7.2-4.48,10.73,10.73,0,0,1,1.12.05c3.62.32,5.76,2.37,6.73,6.42a39.84,39.84,0,0,1,1.37,8.46c.12,7.24.1,14.62.08,21.75,0,2.77,0,5.55,0,8.32,1.18,24.32-.88,45.74-6.31,65.56a54.61,54.61,0,0,1-4,10.38c-1.12,2.2-3.27,4.83-7.12,4.92-.46,0-.92,0-1.39.07S701.53,141.5,701,141.5Z"/><path class="cls-1" d="M917.21,177.64c-2.54,0-4.05-.38-4.89-1.24-1.13-1.14-1.59-3.54-1.56-8,.19-.57.38-1.24.61-2a67.2,67.2,0,0,1,2.69-7.83c6.18-14.27,15.67-26.65,24.87-38.11,11.18-13.93,25.26-26.9,44.29-40.8,3.86-2.82,7.48-4.19,11.07-4.19A15.81,15.81,0,0,1,998,76c1.71.42,2.75.94,3.08,1.54s.2,1.66-.34,3.21a80.94,80.94,0,0,1-4.27,9.75c-13.82,27.49-33.42,53.76-59.91,80.32-4.52,4.53-10.26,6.65-18.61,6.86Z"/><path class="cls-1" d="M983.46,192.73a48.84,48.84,0,0,1-5.5-.36,5.54,5.54,0,0,1-4.13-2.35,6,6,0,0,1-.52-5.09,62.13,62.13,0,0,1,5.6-13.22c5.2-8.86,12.85-15.5,18.94-20.3,12-9.49,26.7-16.63,46.14-22.48a18,18,0,0,1,5.12-.85,11.63,11.63,0,0,1,7.39,2.65c-1.09,1.36-2.14,2.71-3.17,4a96.51,96.51,0,0,1-8.84,10.35c-11,10.63-22.39,20.91-34.07,31.38-3.23,2.9-6.73,5.65-10.12,8.31-1.85,1.45-3.69,2.9-5.51,4.39C991.81,191.6,988.21,192.73,983.46,192.73Z"/><path class="cls-1" d="M875.64,292.36a5.62,5.62,0,0,1-2.69-.76,8.23,8.23,0,0,1,1-1.32c31-30.34,59.68-56,87.68-78.55a75.21,75.21,0,0,1,8.18-5.77,7.81,7.81,0,0,1,4-1.42,5.85,5.85,0,0,1,3.23,1.1,16.66,16.66,0,0,0-2.56,1.61c-29.32,23.51-56.2,47.9-88.3,77.34l-1.91,1.78c-1.52,1.41-3.09,2.87-4.67,4.22A6.29,6.29,0,0,1,875.64,292.36Z"/></g></g></svg>