<svg xmlns="http://www.w3.org/2000/svg" viewBox="0 0 193.34 225.28"><defs><style>.cls-1{fill:#fff;fill-rule:evenodd;}</style></defs><g id="Layer_2" data-name="Layer 2"><g id="レイヤー_1" data-name="レイヤー 1"><path class="cls-1" d="M107.65,91.25c0-.27,0-.53,0-.79h-.11l0-.4h-.1c0-.2-.11-.4-.16-.6h-.1a1.27,1.27,0,0,0,0-.2l-.19-.1c0-.07,0-.13,0-.2l-.19-.11c0-.06,0-.13,0-.19h-.11l-.06-.59-.19-.11c0-.13,0-.27-.07-.4l-.19-.11a1.15,1.15,0,0,1,0-.19h-.1a1.34,1.34,0,0,1,0-.2h-.1c0-.1,0-.2,0-.29l-.38-.32a1.34,1.34,0,0,0,0-.2l-.28-.21-.55-.72h-.19l-.83-1-.29,0v-.1h-.19V84h-.19l-.18-.31h-.2c0-.06-.05-.13-.09-.2l-.57-.23L102,83l-.48-.13-.09-.2-.87-.35a.28.28,0,0,0,0-.09l-.38-.12V82l-.3,0a.34.34,0,0,0,0-.1h-.29v-.1l-.19,0v-.09L99,81.5v-.1l-1-.05A5.59,5.59,0,0,0,96.93,81s0-.07,0-.1h-.1c0-.14,0-.26,0-.4s1-.68,1.12-.71l.4,0v-.1h.2l.11-.19h.2v-.1h.2l.21-.18h.19l.42-.46.3-.09.11-.19c.45-.26.92-.3,1.22-.72h.2a1.28,1.28,0,0,1,0-.19h.1l.62-.66h.2V76.9l.31-.18a1.34,1.34,0,0,0,0-.2l.31-.18c0-.06,0-.12,0-.19l.41-.27c0-.07,0-.14,0-.2l.2-.09.12-.29h.09a1.21,1.21,0,0,0,0-.19l.21-.1c0-.09.07-.18.11-.28h.1c0-.09,0-.19,0-.29l.2-.09c0-.06,0-.12,0-.19h.1a1.27,1.27,0,0,1,0-.2l.21-.18a1.27,1.27,0,0,1,0-.2l.2-.09c0-.07,0-.13,0-.19h.1c0-.26.1-.52.14-.78h.1l.12-.39h.1l0-.48h.1a1.41,1.41,0,0,1,0-.2h.09c.05-.19.09-.39.14-.58h.09l.15-.79h.1c0-.06,0-.13,0-.19h.1c0-.16,0-.32,0-.49a4.13,4.13,0,0,0,.31-1.95H107a2.64,2.64,0,0,0,0-.29h-.1c0-.2,0-.4,0-.59h-.1c0-.14,0-.27-.08-.4h-.09a1.41,1.41,0,0,1,0-.2l-.47-.41-.09-.21-.38-.12-.18-.3a6.38,6.38,0,0,0-2.73-.45v.09h-.2a.34.34,0,0,1,0,.1l-.59,0v.1l-.2,0v.1l-.3,0v.1l-.59,0a.38.38,0,0,1,0,.1l-.59.06v.1l-.4.07s0,.07,0,.1l-1.29.22-.11.19-.4.08-.21.28-.6.16-.32.38-.19,0c-.11.13-.21.26-.32.38h-.19l-.21.18h-.2v.1h-.2l-.11.19h-.19l-.11.19h-.2l-.21.28-.4.08-.11.19h-.2c-.17.18-.34.37-.52.55l-.4.08c-.14.15-.28.31-.41.47-.39.3-.76.61-1.14.91a1.34,1.34,0,0,0,0,.2,1.21,1.21,0,0,0-.2.09c0,.06,0,.13,0,.19l-.71.46c0,.06,0,.12,0,.19-.21.15-.41.31-.62.45,0,.07,0,.14,0,.2l-.41.27-.12.39-.2.09-.12.29h-.09l-.24.67-.31.18c0,.1,0,.2,0,.29h-.1c-.26.55-.1.76-.65,1a.31.31,0,0,1,0,.1h-.09c-.26-.72-.25-1.83-.44-2.59,0-.32,0-.65,0-1h-.1c0-.1,0-.2,0-.29h-.1c0-.1,0-.2,0-.3h-.1c0-.09,0-.2,0-.29H87c0-.1,0-.2,0-.29h-.1c0-.1,0-.2,0-.29-.26-.48-.53-1-.79-1.42,0-.1,0-.2,0-.3h-.1a2.64,2.64,0,0,0,0-.29H86a1.41,1.41,0,0,0,0-.2l-.28-.21v-.2h-.09c0-.16,0-.32,0-.49h-.1c0-.14-.05-.27-.07-.4h-.1c0-.1,0-.19,0-.29h-.1c0-.07,0-.14,0-.2h-.1c0-.06,0-.13,0-.19h-.1l-.27-.41h-.2a.38.38,0,0,1,0-.1h-.1l-.09-.3h-.09a2.83,2.83,0,0,1,0-.29h-.1a1.21,1.21,0,0,1,0-.19h-.1a1.08,1.08,0,0,1-.27-.51L83.65,64c0-.06,0-.13,0-.2h-.1a.34.34,0,0,1,0-.1l-.39-.12-.09-.2h-.19l-.19-.21h-.2a.38.38,0,0,0,0-.1h-.2l-.08-.21h-.2s0-.06,0-.09l-.88-.15a1.31,1.31,0,0,1-.08-.21c-.17,0-.33-.08-.49-.12v-.1l-.78.05-.62.46c0,.1,0,.2,0,.3h-.1a1.34,1.34,0,0,1,0,.2H79a1.34,1.34,0,0,1,0,.2l-.3.17-.12.39h-.1l-.23.57h-.1c0,.1,0,.2,0,.3H78c0,.09,0,.19,0,.29h-.1c-.07.2-.15.39-.23.58h-.09c0,.19,0,.39,0,.58h-.1a1.21,1.21,0,0,1,0,.19h-.1c-.07.2-.15.39-.23.58H77c-.06.36-.11.71-.16,1.07h-.1q0,.21,0,.39h-.09l0,.39H76.5l-.09,1.47h-.1l-.06,1.18h.09c0,.13,0,.26,0,.39h.1c0,.16-.09.33-.13.48h.1l0,.49h.1c0,.36,0,.72,0,1.08h.1c0,.07,0,.14,0,.2h.1c0,.11,0,.21,0,.3l.29.21.06.7.19.11.18.2c0,.07,0,.14,0,.2l.37.32c0,.16.05.32.07.49l.19.11c0,.1.06.2.08.3l.29.21c0,.13,0,.27.07.4h.1a1.21,1.21,0,0,0,0,.19l.19.11c0,.07,0,.13,0,.2l.37.32c.13.19,0,.13.18.3,0,.23,0,.46,0,.69h-.1v.1c-.15-.1-.26,0-.49-.13a.31.31,0,0,0,0-.1l-2.34-.23a.34.34,0,0,0,0,.1l-1-.06s0,.07,0,.1l-.29,0s0,.07,0,.1h-.29a1.18,1.18,0,0,0-.11.19l-.2,0v.1l-.3,0v.1l-.5.07-.11.19-.89,0v.1l-.2,0-.21.29H72v.09l-.69,0c0,.07-.07.13-.1.2l-.41.07c0,.07-.07.13-.1.19h-.2l-.21.28h-.2l-.52.56-.4.08-.42.46-.4.07q-.21.3-.42.57h-.2l-.21.29-.2,0-.32.48h-.2a1.74,1.74,0,0,1-.11.18c-.1.06-.2.13-.3.18a1.41,1.41,0,0,0,0,.2l-.31.18-.12.39-.2.08c0,.07,0,.13,0,.2l-.62.46c0,.06,0,.13,0,.19l-.2.09a1.21,1.21,0,0,0,0,.19l-.2.09-.12.29-.3.18a4.25,4.25,0,0,1-.65.85c0,.23,0,.46,0,.68l.2.11a.34.34,0,0,0,0,.1H64a1.19,1.19,0,0,0,.08.2,1.67,1.67,0,0,0,.67.44,1.21,1.21,0,0,0,0,.19h.09v.09H65c0,.1.11.2.17.3h.2v.1l1,.25.09.2.87.15v.1l.29,0v.1h.29v.1l1.36.18v.1h.29a.31.31,0,0,1,0,.1l1.28.08a.28.28,0,0,1,0,.09c.2,0,.21-.08.21-.08l.58,0,1.17.16s0-.06,0-.09.69.24,1,.15a.28.28,0,0,0,0-.09h.19a.38.38,0,0,0,0-.1l.59,0V91l.3,0a1.18,1.18,0,0,0,.11-.19l.59,0v-.09H77.2v-.09l.49-.07.11-.19.4,0v-.1l.29,0a.38.38,0,0,0,0-.1l.69,0v-.1c.51,0,.38.06.68.24a3.05,3.05,0,0,1-.27,1.26l-.2.09c-.05.19-.09.38-.14.58h-.09a1.41,1.41,0,0,0,0,.2h-.1l0,.58h-.1l0,.5h-.1a10,10,0,0,0,0,2.56l.06,2.36h.1l0,.4H79c0,.13,0,.26,0,.39h.1a1.28,1.28,0,0,0,0,.19h.1l0,.39.19.11c0,.33.1.66.14,1h.1c0,.2.11.4.16.6h.1c0,.13,0,.26.08.39l.18.11a1.34,1.34,0,0,1,0,.2h.11c0,.14,0,.27.07.4h.1c0,.14,0,.27.07.41h.1c0,.09,0,.2,0,.29l.19.11c0,.07,0,.13,0,.2l.19.2.19,0c0,.1.06.2.08.3h.1l.36.52h.2c0,.1.06.2.08.3l.28.21v.1l.29,0a1.44,1.44,0,0,1,.47.51l1.18-.12.22-.29.19,0c.27-.17.19-.37.62-.46.11-.33.5-.62.73-.85l.21-.08c.07-.19.15-.39.23-.58l.3-.18a1.15,1.15,0,0,0,0-.19l.31-.18c0-.07,0-.13,0-.2l.2-.09c0-.22.1-.45.14-.67l.4-.18c0-.16.09-.32.13-.48h.1a1.21,1.21,0,0,1,0-.19H88l.12-.48h.1c0-.09,0-.19,0-.29h.09c0-.19,0-.39,0-.58h.1l.12-.38h.1c0-.1,0-.19,0-.29h.1s0-.06,0-.1h-.1a.34.34,0,0,1,0-.1h.09c0-.2,0-.39,0-.59h.09L89,98h.1c0-.39,0-.78.07-1.18h.09c0-.1,0-.2,0-.29h.1a7.84,7.84,0,0,0,0-2.16l.06-1h.1l0-1.19c0-.42,0-.85.07-1.27h-.09c-.13-.55.13-.93-.23-1.29a2.57,2.57,0,0,1,.15-.87c.43,0,.45,0,.68.23,0,0,0,.07,0,.1h.2c0,.07,0,.14.08.2h.1l.09.2.58.23c.08.14.18.27.27.4l.19,0,.09.2h.2c0,.14.11.27.17.41l.39.12a.31.31,0,0,0,0,.1h.29l.27.41.59.13.18.31.58.13a3.07,3.07,0,0,1,.17.31h.2l.09.2,1.07.16.09.2.29,0v.1l1.08.06a.28.28,0,0,0,0,.09l.2,0a.31.31,0,0,0,0,.1l2.45.14a.34.34,0,0,1,0,.1c.36,0,.72,0,1.08.06v.09l1.27.08c.9.3,2.5,0,3.74,0a2.9,2.9,0,0,1,.41-.27l.1-.19h.2v-.09l.31-.18.12-.39.31-.18a1.21,1.21,0,0,1,0-.19h.1c.1-.12.08-.19.21-.29,0-.26,0-.52,0-.79ZM87,80.71c.13-.39,1.57-3.28,1.59-3.54h.1c0-.13,0-.26,0-.39h.1c0-.1,0-.2,0-.29h.1l0-.39h.09l0-.49h.1c0-.1,0-.2,0-.3h.09c0-.16.09-.32.13-.49h.1c0-.07,0-.13,0-.2h.1c0-.1,0-.2,0-.3h.11a1.41,1.41,0,0,1,0-.2h.09c.12-.29.23-.58.35-.86l.2-.09c.08-.22.16-.45.23-.68l.62-.45c0-.07,0-.14,0-.2l.2-.08a1.41,1.41,0,0,0,0-.2l.31-.08v-.1l.3-.18c0-.07,0-.13,0-.2l.72-.54a1.34,1.34,0,0,1,0-.2h.1l.21-.29h.2a1.74,1.74,0,0,1,.11-.18h.19l.11-.19a2.12,2.12,0,0,1,1-.53c.15-.47.27-.26.61-.45l.11-.19h.19l.12-.19H96l.11-.19h.2v-.1l.3-.08.11-.19h.2l.31-.37.6-.16.11-.19h.2l.21-.29.2,0v-.1h.2v-.1l.4,0,.11-.19h.19c.07-.09.15-.19.21-.28l.41-.08V66l.68.13v-.09h.2s0-.07,0-.1h.2v-.1l.29,0s0-.06,0-.1l.88,0a.28.28,0,0,1,0-.09h.29v-.09a1.19,1.19,0,0,1,.68.13v.1c.39.16.52-.08.77.24l.79,0v.1l.28.21a1.41,1.41,0,0,1,0,.2l.19.1a4.43,4.43,0,0,1,.35,2.48l-.2.09c0,.19-.09.39-.13.58h-.1l-.12.38H105l-.15.87h-.1a1.21,1.21,0,0,1,0,.19h-.1c0,.29-.1.58-.14.87h-.1c0,.19-.09.39-.14.58h-.09a1.21,1.21,0,0,0,0,.19h-.1c0,.09,0,.19,0,.29H104c0,.19-.09.38-.13.57a.88.88,0,0,1-.2.09c0,.07,0,.13,0,.2l-.2.08a1.41,1.41,0,0,0,0,.2l-.21.09c0,.13-.08.26-.12.38l-.2.09c0,.07,0,.13,0,.19l-.41.28c0,.06,0,.13,0,.2l-.2.08-.12.29h-.19s0,.06,0,.1l-.41.27c0,.1-.07.19-.11.29a3.14,3.14,0,0,0-.31.18V77h-.2c-.31.31-.62.63-.94.93l-.5.07-.1.19h-.2c-.11.12-.21.25-.31.38l-.3.08-.12.18-.39,0v.1l-.3,0V79h-.2a.31.31,0,0,1,0,.1h-.19l-.21.28-.4.08-.11.18-1.51.6-1-.15s0,.07,0,.1l-.39,0a.34.34,0,0,1,0,.1l-.19-.12c-.49.05-1,.08-1.48.12v.1l-.6.06v.1h-.2v.1l-.6,0v.1l-.4.07v.1l-.39,0a.34.34,0,0,0,0,.1h-.2V81c-.26.11-.52.06-.8.16v.09l-.3,0v.1h-.2l-.11.19-.6.16s0-.06,0-.09c-.58,0-.54-.1-.66-.53h-.1C86.87,80.8,87,80.78,87,80.71ZM88,97.1h-.1c0,.26,0,.52,0,.78h-.1c0,.06,0,.13,0,.2h-.09c0,.13,0,.26,0,.39h-.1c0,.1,0,.2,0,.3h-.1c0,.09,0,.19,0,.29h-.1l0,.49h-.1c0,.26-.09.52-.14.79H87c0,.1,0,.2,0,.29h-.09c-.08.19-.16.38-.23.57h-.1c0,.07,0,.13,0,.19a1.21,1.21,0,0,1-.2.09c0,.06,0,.13,0,.2l-.31.18a1.21,1.21,0,0,1,0,.19h-.09c0,.09-.08.18-.12.29l-.2.08c0,.06,0,.13,0,.2l-.31.18a1.21,1.21,0,0,1,0,.19l-.3.18a1.34,1.34,0,0,0,0,.2c-.05.06-.14.06-.21.18h-.2c-.18.59-.78.56-1.41.6-.1-.12-.17-.11-.28-.21a.28.28,0,0,1,0-.09l-.2,0-.27-.41h-.1a1.41,1.41,0,0,1,0-.2l-.28-.21c0-.07,0-.13,0-.2l-.29-.21c0-.06,0-.13,0-.19l-.19-.11c0-.17,0-.33-.08-.5l-.28-.21c0-.1,0-.2,0-.3h-.1c0-.1,0-.2,0-.3l-.19-.1c0-.1,0-.2,0-.3h-.1a1.28,1.28,0,0,1,0-.19l-.19-.11V100h-.1l-.06-.7h-.09c0-.1,0-.19,0-.29h-.09c0-.06,0-.13,0-.19h-.1c0-.13,0-.26,0-.4h-.1l0-.49h-.1l.06-1h-.1c0-.26,0-.52,0-.78H80A2.82,2.82,0,0,1,80.1,95c0-.26,0-.52,0-.78h.1c.07-.56.13-1.11.19-1.67h.1c0-.19.09-.39.13-.58h.11v-.2h.09c0-.32.11-.65.16-1h.1a1.34,1.34,0,0,1,0-.2l.2-.09.15-1,.2-.09.24-.67.3-.18.12-.29h.2v-.1l.52-.36a1.34,1.34,0,0,1,0-.2l.3-.18.12-.38.2-.09c0-.06,0-.13,0-.19l.3-.18.12-.39c.1-.12,1.94-1.92,1.46-2.34,0,0,0-.07,0-.1l-.3,0a.31.31,0,0,0,0-.1h-.1v.1c-.32,0-.24,0-.41.17,0,0-.64.72-.68.72a1.21,1.21,0,0,1,0,.19l-.3.18s0,.07,0,.1h-.19c-.08.09-.15.19-.22.28l-.29,0-.62.46-.12.38h-.1a1.34,1.34,0,0,1,0,.2l-.2.08c0,.07,0,.13,0,.2l-.2.09c0,.06,0,.12,0,.19l-.2.09c0,.06,0,.13,0,.19l-.2.09c-.1.13-.21.25-.32.38l-.39.07a.34.34,0,0,0,0,.1h-.19l-.33.47H80l-.12.29-1.4.41v.1h-.2s0,.06,0,.09H78v.1c-.14,0-.26-.09-.39-.12s0,.06,0,.09l-.4.08v.1l-.59,0v.1l-.3,0v.1l-.69,0v.1l-.3,0v.1h-.19s0,.07,0,.1l-.59,0v.1l-.39,0s0,.06,0,.1l-.49,0v.1l-.3,0v.1L72,90l-1.57-.09v-.1l-.29,0a.38.38,0,0,1,0-.1.26.26,0,0,0-.3.08l-1.07-.16V89.5c-.13,0-.26-.09-.39-.12a.38.38,0,0,0,0-.1l-.3,0a.34.34,0,0,0,0-.1l-.68,0V89h-.19l-.09-.2-1-.35c-.31-.38-.62-.75-.92-1.14a1.07,1.07,0,0,1,.23-.67l.2-.09c.1-.13.1-.38.23-.48l.19,0,.21-.19.12-.38.41-.18a1.21,1.21,0,0,1,0-.19l.51-.37c0-.06,0-.13,0-.19l.83-.64a2.49,2.49,0,0,1,.11-.29h.1l.21-.28h.2l.11-.19h.19l.94-.93h.2l.52-.56,1.09-.22a.38.38,0,0,0,0-.1h.2v-.1h.2l.11-.19.49-.07.11-.19h.2a.38.38,0,0,1,0-.1l.39,0v-.1h.2a.34.34,0,0,1,0-.1l.29,0a.31.31,0,0,1,0-.1l.68,0,.11-.19h.2v-.1l.79.05v-.1a1.67,1.67,0,0,1,.79-.06l.29.12v-.1h.2a.28.28,0,0,1,0-.09l.39,0a.38.38,0,0,1,0-.1l2,.22a.28.28,0,0,0,0,.09l.39.13a.38.38,0,0,1,0,.1l.69,0a.31.31,0,0,1,0,.1h.2l.46.62.29,0a.38.38,0,0,1,0,.1l.29.11a.38.38,0,0,1,0,.1H82a1.27,1.27,0,0,1,0,.2h.1l.27.41.69,0,.27.41.49,0s0,.07,0,.1c.64,0,.38-.18.72-.45,0-.58-.45-.51-.74-.83-.12-.17-.25-.34-.36-.51h-.2l-.09-.21-.37-.31c-.13-.17-.24-.34-.37-.52l-1.14-.65v-.2c-.6-.16-.83-.68-1.11-1.14L80,78c0-.13,0-.27-.08-.4l-.28-.21c0-.07,0-.13,0-.2l-.28-.21c0-.07,0-.13,0-.2l-.19-.1a1.48,1.48,0,0,0,0-.2l-.37-.32a1.15,1.15,0,0,1,0-.19l-.19-.12c0-.16-.05-.33-.07-.49l-.19-.11c0-.07,0-.13,0-.19l-.19-.12c-.06-.2-.11-.4-.17-.59H78c-.06-.2-.11-.4-.16-.6h-.1c0-.26,0-.52,0-.78a13.22,13.22,0,0,1,.67-6.35h.09c0-.06,0-.13,0-.19l.31-.18c0-.1,0-.2,0-.3h.1a1.34,1.34,0,0,1,0-.2H79c0-.13.09-.26.13-.39h.09c0-.2.09-.39.14-.58.3-.25.61-.49.93-.74v-.1l.19,0a.38.38,0,0,0,0-.1l.69,0c0,.07.05.14.08.2l.3,0a.31.31,0,0,0,0,.1h.3a.34.34,0,0,0,0,.1l.57.23.09.2h.2l.73.93h.2l.45.62h.1l0,.59.19.11a1.27,1.27,0,0,0,0,.2h.1c0,.07,0,.13,0,.2h.1c0,.16,0,.32.07.49h.1c0,.07,0,.13,0,.2l.19.11c0,.06,0,.13,0,.2H85a1.34,1.34,0,0,1,0,.2l.19.11a1.21,1.21,0,0,1,0,.19h.1c0,.36,0,.72,0,1.09h.09c0,.13.06.26.08.4h.1l.06.7.19.1c0,.07,0,.14,0,.2h.1l0,.69h.09c0,.13,0,.26.08.4h.09l0,.69h.09c0,.17,0,.32,0,.49h.09a2.83,2.83,0,0,1,0,.3h.1a8.88,8.88,0,0,1-.23,2.36c0,.78,0,1.57,0,2.35H86c0,.13,0,.27,0,.4h-.09l-.06,1h-.1c-.05.19-.09.38-.13.58h-.1c0,.07,0,.13,0,.2h-.1l-.06,1a2,2,0,0,1,.37.5c.54,0,.63-.25,1.1-.33,0,.17,0,.31.07.5h.09c0,.13,0,.26,0,.39H87c0,.07,0,.14,0,.2l.19.11c0,.07,0,.13,0,.19h.1a3.3,3.3,0,0,1-.19,1.47h.1c0,.14,0,.26,0,.39h.1a1.34,1.34,0,0,0,0,.2h.09c0,.46,0,.92,0,1.38h.1c0,.14,0,.27.08.4h.1c0,.06,0,.13,0,.2l.19.1,0,1.28h.1l0,.39H88c0,.06,0,.13,0,.19h.1c0,.09,0,.2,0,.29h.1c0,.23,0,.46,0,.68h.1c0,.1,0,.2,0,.29h.1c0,.19,0,.39,0,.59h.1c0,.75-.08,1.51-.13,2.26h.1Zm17.89-5.17c-.12.39-.37.5-.72.65v.1l-.5,0a10.32,10.32,0,0,1-1.78.29v-.1l-.88,0v-.1l-.88-.05s0-.06,0-.1l-1,0v-.1l-.49,0v.1l-.79,0a.34.34,0,0,0,0-.1l-.79,0a.31.31,0,0,0,0-.1l-.29,0v-.09l-.39,0V92l-1.17-.17a.31.31,0,0,0,0-.1h-.2a.34.34,0,0,0,0-.1l-.49,0v-.09l-.39-.13v-.09l-.29,0s0-.06,0-.1h-.2l-.09-.2-.57-.23-.09-.2h-.19l-.09-.21h-.2s0-.06,0-.09l-.2,0-.18-.2H93l-.27-.41-.2,0c0-.06,0-.13-.08-.2l-.58-.23-.09-.2h-.19l-.18-.3h-.19a2,2,0,0,1-.1-.21L90.63,88c0-.06-.22.07-.22,0h-.1c0-.2-1-.77-1-1,0,0-.63-2-.7-2a.28.28,0,0,0,0-.09l-.29-.22c0-.06,0-.13,0-.19h-.1c-.2-.4.1-.69-.32-.93a1.76,1.76,0,0,1,.25-.87c.35,0,3.88-.72,3.88-.75h.19a.54.54,0,0,1,.3-.08s0-.07,0-.1h.2v-.09l1.18.06a4.24,4.24,0,0,1,1.47,0v.1l.58,0V82l1.08.06s0,.07,0,.1l.69,0s0,.06,0,.1H98v.1l.69,0a.34.34,0,0,0,0,.1h.2l.08.2.58.23.09.2.58.13a.31.31,0,0,1,0,.1h.2s0,.07,0,.1h.2l.18.31.69,0c.08.14.18.27.27.41H102c.18.12.38.31.57.43a1.21,1.21,0,0,0,0,.19,2,2,0,0,1,.95.55l.18.3h.19l.09.21h.2c0,.06,0,.13.08.2l.38.32c0,.13,0,.26.07.39l.19.11c0,.07,0,.13,0,.2l.28.21c.06.2.11.4.17.6l.19.11c0,.07,0,.13,0,.19h.11c0,.07,0,.13,0,.2h.1c0,.1,0,.2,0,.3h.1c0,.07,0,.13,0,.2l.19.11c0,.13,0,.26.08.4h.09C106.24,90,106.3,91.62,105.93,91.93Z"/><path class="cls-1" d="M62.71,29.41l-.12-1h-.11v-.55h-.12v-.33h-.11v-1c-.08-.77-.16-1.53-.23-2.3H61.9v-.33l-.34-.21V23.5h-.12l.12-.66h-.12l-.23-.66H61.1c0-.22-.08-.44-.11-.66l-.24-.11v-.22h-.11v-.44h-.12v-.32l-.23-.11v-.55h-.11v-.33h-.12v-.65H60l-.12-.44h-.11v-.22L59.49,18v-.33h-.11v-.22h-.12v-.22L59,17.14l-.12-.65H58.8l-.12-.44h-.11v-.66h-.12v-.22L58.1,15v-.22l-.23-.11c0-.14-.07-.29-.11-.43l-.23-.11v-.22l-.46-.33v-.22l-.23-.11v-.33l-.34-.22v-.22l-.24-.11V12l-.91-1-.47-.11-.57-.66L54,10.13l-.11-.33-.34-.21V9.36h-.12V9.15h-.12l-.34-.44H52.7l-.23-.33h-.23L50.86,6.84h-.23a3.71,3.71,0,0,1-.23-.32h-.23c-.15-.19-.31-.37-.46-.55h-.35V5.86h-.23l-.23-.33-.46-.11c-.15-.18-.3-.37-.46-.55h-.23l-.23-.33h-.23c-.12-.14-.23-.29-.34-.43L46.49,4a2.39,2.39,0,0,1-.12-.22l-.46-.11-.12-.22h-.23V3.34L45,3.23l-.23-.33-.46-.11V2.68h-.23v-.1h-.23V2.46h-.23V2.35h-.35l-.11-.21h-.23V2l-1-.1V1.81l-.46-.11V1.59h-.57V1.48h-.23V1.37h-.69V1.26h-.35V1.15h-.81V1h-.34V.93H38.2V.82h-.35V.71h-.92V.6L36.47.49V.38c-.36-.12-.55.16-.8.11V.38h-.35V.27H33.71V.17h-.92V.06a6.43,6.43,0,0,0-2.18.11L29,.27V.38L28.3.27V.38h-.23V.49L26.69.71V.82h-.23V.93l-1-.11V.93h-.35V1l-.8.11v.11H24v.11h-.45v.11l-.69.22v.11l-.58.11c-.08.1-.15.22-.23.32h-.23v.11H21.4v.11h-.23v.12h-.23l-.12.21h-.23V2.9h-.23V3l-.68.11v.11h-.24a1.51,1.51,0,0,1-.11.22H19.1v.11h-.23v.11h-.35v.11l-.45.11V4h-.24v.11h-.34l-.12.22h-.23v.11H16.8v.1h-.23v.12h-.23a3.71,3.71,0,0,0-.23.32h-.23l-.12.23h-.23l-.11.21L15,5.53l-.12.22h-.23v.11L14.15,6l-.23.33-.34.11v.11h-.23l-.12.22H13c-.12.14-.23.29-.35.44h-.23L12,7.72A5,5,0,0,0,10.7,8.93h-.23v.22c-.45.11-.35.24-.58.54L9.43,10v.22l-.23.22H9a1.64,1.64,0,0,0-.12.22H8.63v.11l-.46.33v.22l-.35.22v.21l-.57.44v.22l-.81.66c0,.22-.07.44-.11.66l-.23.11L6,14.29l-.46.33-.12.44H5.29v.44l-.23.11v.22l-.23.11v.22H4.72l-.12.43H4.49l-.12.66-.23.11v.22l-.35.22V18H3.68l-.12.44H3.45v.65H3.33c-.07.22-.15.44-.23.66l-.22.11v.22H2.76l-.12.77-.34.22-.12.43H2.07v.77l-.35.22c0,.29-.08.58-.11.88H1.49v.33H1.38v.21H1.27c-.05.22-.08.45-.12.66H1v.66H.92v.33H.8v.76H.69L.57,27H.46c0,.15.08,0,.11.11v.77a13.1,13.1,0,0,0-.46,3.83c0,.4-.07.81-.11,1.2H.11v.55H.23V36.2a2.67,2.67,0,0,1,.23.88L.34,38.5H.46c0,.15.08.29.11.44H.69c0,.4.08.8.11,1.2H.92v.55H1v.88l.24.11v.22h.11v.76h.11v.22l.23.11v.33h.12v.22H2v.22h.12c.07.22.15.44.23.66h.11v.43h.12c0,.15.08.3.11.44h.12v.44h.12c.07.22.15.44.22.66h.12c.08.44.15.87.23,1.31h.11c.19.24.38.32.47.66h.23l.11.22h.12v.22l.46.33v.21h.11l.12.44.34.22v.11l.23.11v.22l.81.66v.21l.34.23v.22H7V52h.12v.22l.23.22v.22l1.15,1v.21q.4.35.81.66l.11.22h.23l.81.88h.23l.46.54h.23v.11h.23l.23.34.46.1.34.44h.23v.11h.23l.24.22h.23l.34.44h.23l.23.33h.23c.08,0,.09.14.23.22v.22l.35.1v.11h.23V59h.23c0,.07.07.14.11.22H16l.35.43.69.22a2.26,2.26,0,0,0,.11.22l.58.11c.08.11.15.22.22.33h.24v.11h.23v.11h.46v.11a2.6,2.6,0,0,1,1,.22l.23,0s0,.07,0,.11l.23,0s0,.08,0,.11l.35,0a.34.34,0,0,0,0,.1l.23,0s0,.07,0,.11l.47,0a.49.49,0,0,0,0,.12l.35,0v.11l.23,0s0,.06,0,.1l.71.14a.45.45,0,0,1,0,.11c.08,0,.77.12,1.07.15v.11h.23l.12.22h.34v.11h.23v.11H25l.23.22h.23a34.21,34.21,0,0,0,4.95.66v-.11c.12,0,1.83.26,1.94.26v-.11a7.06,7.06,0,0,1,2.19.11l2.19-.33v-.1H38.2v-.11h.46V63h.23v-.11l.57-.11.35-.44H40l.12-.22h.23v-.11h.23v-.11H41v-.11h.22v-.11l.81-.11v-.1h.23a2.53,2.53,0,0,1,.12-.23h.34v-.11h.23v-.1h.23l.34-.44h.23l.12-.22h.34V60.3l.46-.11v-.11l.92-.11v-.11h.23l.12-.22.46-.11v-.11h.46v-.11l.69-.21V59h.35a2.4,2.4,0,0,1,.11-.23l.69-.21.11-.22.58-.11.69-.77.69-.22.35-.44h.23l.11-.21h.23l.12-.22H52c0-.08.08-.15.11-.23h.23V56l.46-.11.12-.22.34-.11.24-.33h.23L54,55v-.22l.58-.33v-.21l.23-.22H55c.38-.41.77-.81,1.15-1.21l.58-.44c0-.14.07-.29.11-.44l.35-.21v-.22l.23-.23V51.1h.11v-.22l.23-.11v-.33l.23-.11.23-.66c.15-.1.31-.21.46-.33l.12-.43h.11v-.44H59v-.22l.23-.11v-.22h.12V47.7h.11c.07-.36.15-.73.23-1.1h.11v-.21H60v-.55h.11l.12-.44h.11v-.88h.12c0-.14.07-.29.11-.43h.12c0-.3.07-.59.11-.88h.12V43H61V41.9h.11v-.55h.11v-.22h.12v-.44h.11v-.87h.12V39.6h.11v-.66h.12v-.33h.11v-.55H62V36.75h.11v-.33h.12V36h.11c0-.4-.07-.8-.11-1.2l.23-.11V32.91h.11v-.43h.12V30.72h.11V29.41Zm-1.5.55c-.07.23-.34.57-.22,1h.11v1.21H61v.76h.11c0,.35-.35.83-.23,1.32H61l-.12.55h-.12c-.13.38.18.74.12,1h-.12V36h-.11v.66h-.12v.22h-.11L60.29,38h-.11v1.42h-.12c0,.14-.07.29-.11.44h-.12v.32h-.11v.66H59.6V41h-.11v.66h-.11v.22h-.12v.87h-.12v.33H59v.33h-.12v.44H58.8v.22h-.12l.12.76h-.12v.22l-.23.11v.33h-.12v.22h-.11c0,.33-.08.66-.12,1H58v.22h-.12v.21h-.11v.22h-.11v.33h-.12c-.07.22-.15.44-.23.66h-.11v.44h-.12c0,.14-.08.29-.11.44h-.12v.22l-.23.11c0,.25-.08.51-.11.76l-.24.11v.22l-.57.44v.21l-.34.23v.22l-.23.1v.22l-.58.44v.22h-.12l-.22.33H54l-.57.66h-.23c-.19.21-.39.43-.57.66h-.24l-.34.43h-.23l-.12.22h-.23l-.34.44h-.23l-.12.22h-.23l-.22.33h-.35v.1h-.23v.11h-.23v.12l-.23.1v.22l-.35.11-.23.33-.58.11v.11l-.45.11v.11h-.35v.11h-.23v.11h-.35l-.22.33h-.24l-.11.22h-.23v.11h-.35v.11l-.46.11v.1l-.57.11V59l-.81.11-.11.21-.58.11v.11H42.8c0,.08-.08.15-.11.22h-.34v.11h-.24V60c-.32.19-.2-.1-.34.33l-1.15.33-.12.22h-.23V61l-.46.12v.1l-.69.11v.11h-.23v.12h-.34v.1H38v.11l-.58.11v.11h-.23v.11L36,62.16v.11H30.84v.11c-1,.15-1.68-.3-2.64-.16v-.11h-.34V62H27.4v-.11l-1.73-.1v-.11h-.23v-.12H25.1v-.11l-.69-.21v-.12H24V61h-.23a1.19,1.19,0,0,0-.5-.21s0-.07,0-.11l-.81,0-.13-.2-.59,0s0-.07,0-.11l-.47-.06s0-.07,0-.1l-.7,0s0-.07,0-.11l-.35,0a2.39,2.39,0,0,0-.13-.21l-.47-.05a.45.45,0,0,1,0-.11c-.16,0-.37.1-.53.07v-.11h-.34v-.11l-.7-.22v-.1h-.22V59.1h-.35l-.23-.34-.34-.1v-.11l-.46-.11-.12-.22H16l-.23-.33h-.23l-.23-.33h-.23c-.11-.15-.23-.29-.35-.44H14.5l-.69-.76h-.23v-.12h-.23L13.23,56l-.46-.11-.23-.33h-.23a1.55,1.55,0,0,0-.12-.22H12c-.15-.18-.3-.37-.46-.55l-.34-.11L11,54.49h-.23a2.7,2.7,0,0,1-.22-.33h-.12v-.22l-.35-.11v-.1l-.69-.55V53a1.76,1.76,0,0,1-1-1.1v-.32l-.58-.44v-.22l-.23-.11v-.22l-.23-.11a3.35,3.35,0,0,1-1-1.42H6.1v-.11c-.33-.25,0,0-.23-.33H5.75v-.22l-.23-.11v-.11L5.29,48v-.22L5,47.59v-.22H4.83c0-.18-.07-.36-.11-.54H4.6l-.23-.66H4.26v-.55H4.14c0-.18-.08-.36-.11-.55H3.91v-.22H3.79v-.33H3.68V44.3l-.23-.1-.12-.88H3.22l-.12-.44-.34-.22v-.22H2.64c0-.14-.07-.29-.11-.43H2.41v-.33H2.3v-.44H2.18V40.8H2.07v-1H2v-.33H1.84v-.33H1.72v-.33H1.61c0-.37.07-.73.11-1.1H1.61l-.12-.43H1.38v-.88h.11c0-.76-.08-1.53-.11-2.3H1.27c-.05-.73-.08-1.46-.12-2.19h.12v-.11H1.15v-.77h.12V29.74H1.15c.07-.44.15-.88.23-1.31h.11V28h.12v-.1H1.49V27h.12v-.66h.11c.08-.37.16-.73.23-1.09h.12V25h.11l.12-.65h.11v-.56h.12c0-.15.08-.29.11-.43h.12c0-.26.07-.51.12-.77H3V22.4H3.1l.12-1,.23-.1c0-.15.07-.3.11-.44l.58-.44c.25-.39-.15-.47,0-.88h.12v-.22l.23-.11c0-.18.07-.36.11-.55l.23-.1v-.22l.35-.22v-.22h.11v-.22H5.4V17h.12v-.22l.58-.43c0-.22.07-.44.11-.66l.23-.11v-.22l.23-.11v-.22L6.9,15v-.33H7V14.4h.12v-.21l2.19-2,.57-1.09h.23l.24-.33h.23l.11-.22h.23l.57-.66h.23c.09-.37.26-.42.35-.76a1.32,1.32,0,0,0,.57-.33V8.71h.23l.23-.22h.24V8.38h.23V8.27h.23V8.16H14l.11-.22h.23c.12-.14.23-.29.34-.44H15a2.26,2.26,0,0,1,.11-.22l.35-.1V7.06L15.88,7l.23-.32h.23a1.51,1.51,0,0,1,.11-.22h.35V6.3H17V6.19h.23c0-.08.07-.15.11-.22l.57-.11V5.75h.35V5.64l.46-.11V5.42h.35V5.31h.34v-.1h.24V5.09h.23l.22-.33h.35v-.1h.23l.11-.22h.23V4.33h.35l.12-.22h.23V4H22V3.89h.22l.23-.22h.24a2.26,2.26,0,0,1,.11-.22l.69-.22V3.12h.23V3l.69-.22V2.68l2.88-.22V2.35h.46l.11-.21h.23V2h1.38v-.1h.35V1.81h2.53a16.8,16.8,0,0,1,4.83.65l2.19.12v.1h.46v.11h.35V2.9h.23V3h.34v.11l.69.11.12.22h.23v.11l.8.11v.11l.58.11V4l.46.11v.11l1,.32c0,.08.08.15.12.22l.46.11.23.34.46.1.12.22h.22c.16.19.31.36.46.55H47a2.26,2.26,0,0,0,.11.22l.69.22.12.22H48a2.12,2.12,0,0,1,.11.21h.24l.45.55H49l.12.22h.23l.69.77h.24l.11.22h.23l.23.33H51v.22l.93.54V10c.45.12.47.32.69.66h.11v.22l.46.33c.07.22.15.43.23.65l.57.44.12.22h.23c0,.11.08.22.11.33l.58.44v.22l.23.11.12.44.22.11v.21l.23.11v.22l.46.33.24.66.23.11c0,.14.07.29.11.44H57c0,.14.07.29.11.43h.12c0,.22.07.44.11.66h.12v.22h.11v.77h.12c0,.14.07.29.11.44l.23.11c0,.14.08.29.11.43l.23.11.12.44.23.11v.22h.12c.08.58.15,1.17.23,1.75h.11v.22l.24.11c.11.33.22.66.34,1h.11v.22H60v.32h.11v.33h.12v.23h.11l.12,1.3.23.11V26h.11c0,.47-.07.94-.11,1.42h.11v.33h.12v.87C61,28.93,61.34,29.52,61.21,30Z"/><path class="cls-1" d="M34.75,58.33v.11a8.51,8.51,0,0,1-3.11-.33l-1.84.11v-.11h-.23V58h-.8v-.11l-1.16-.11v-.11l-.69-.22v-.11h-.34v-.11h-.8v-.11l-.7-.22v-.11h-.69v-.11h-.23c0-.07-.07.17-.12.09h-.22l-.23-.32h-.35s-1.6-.25-1.6-.29h-.23l-.23-.33-.69-.11c-.09.11-.14.11-.23.22h-.12c0,.11,1.61.39,1.61.51h-.12c0,.21.08.13.12.34h.11V57l.34.11.35.44h.23v.11l.46.11v.11h.46V58h.23a2.26,2.26,0,0,1,.11.22h.24v.11h.23v.11h.34v.11h.69v.11l.69.1v.11h.23V59h.46v.11h.35v.11h.46v.1l.69.22v.11l.92.11v.11H31l1.27.11v-.11H33v-.11h.23v-.11h.58v-.11h.46v-.11h.58v-.11h.34a2.12,2.12,0,0,0,.11-.21h.35V59l.34-.12c.07-.21,0-.09.12-.21-.07-.27-.13-.25-.23-.44Z"/><path class="cls-1" d="M56.84,29.74H57a4.16,4.16,0,0,1-.23,2.08v2.3h-.12v.44H56.5v.66h-.12v1.53h-.12v.87h-.11V38H56v.87h-.11v.66H55.8v.65h-.11v.77h-.12c0,.15-.07.29-.11.44h-.11v.77l-.35.22v.76l-.46.33v.33h-.12v.76h-.11l-.23.66H54v.66h-.11v.22l-.46.33-.12.44h-.11v.43l-.23.11v.22l-.23.11v.22l-.35.22v.22l-.34.22c0,.18-.08.36-.11.55l-.47.33v.21l-.34.22-.12.22h-.23l-.23.33H50.4v.22l-.23.11a2.65,2.65,0,0,1-1.39.87c-.17.59-.63.38-.8,1a1.59,1.59,0,0,0-.69.33v.11l-.46.11-.12.22h-.22l-.35.43-.46.11c-.15.19-.31.37-.46.55H45l-.23.33h-.23c-.11.15-.23.29-.35.44L43,55.48v.11l-.46.11v.11h-.22l-.24.32-.57.11-.12.22-.8.12-.12.21h-.23v.11h-.81l-.8.66c0,.74-1,.82.92.9l.58-.12v-.11h.23c.07-.1.15.1.23,0h.23A2.39,2.39,0,0,1,41,58l.68-.22v-.11h.23v-.11h.57l.24-.33c.21-.11.7-.09.92-.22V56.9l.34-.11.12-.21h.35v-.12h.22v-.1h.23l.12-.23h.23V56l1.15-.33.8-1h.24c0-.07.07-.14.11-.22l.35-.1v-.11h.22c0-.08.08-.15.12-.22h.23a2.4,2.4,0,0,0,.11-.23h.23l.47-.54c.67-.62,1.93-.75,2.18-1.75h.23l.69-.88h.24a.8.8,0,0,1,.22-.44h.12c.32-.48.1-1,.81-1.2a2.67,2.67,0,0,1,.46-.77V48l.22-.11V47.7h.12c.11-.33.23-.65.34-1l.24-.12c0-.25.07-.51.11-.76l.23-.11c0-.18.08-.37.11-.55h.12V45h.11v-.32h.12l-.12-.55h.12v-.22l.34-.22V43.1h.12l.23-.66h.12V41.9h.11v-.33H57v-.66h.11v-.22h.12v-.44h.11c.05-.24-.25-.42-.11-.76h.11v-.22l.23-.11c.16-.35-.16-.64-.11-.88h.11l.12-1.64h.11v-.22h.11V34H58v-3h.11v-.21h.12V29.3H58.1c-.14-.52.28-.9,0-1.2-.11-.41-.23-.3-.45-.55C57,27.64,56.58,28.84,56.84,29.74Z"/><path class="cls-1" d="M24.39,32.59H23.24v.1l-2-.21v.11h-.23v.1h-.34v.12a3.13,3.13,0,0,1-1.84-.33l-1,.11v-.11H15.88v-.11h-.35v-.11h-.81v-.11c-.42-.1-.89.24-1.14.33h-.47v.11h-.23v.1l-1.26.12v-.12l-.46-.1v-.11c-.66-.22-1.37.22-1.84-.22a1.45,1.45,0,0,0-1,.33c0,.29-.07.58-.11.87a5,5,0,0,0,.46.66,8.19,8.19,0,0,0,3.56-.22h.58v-.11l.46-.11v-.11H14.5a8.13,8.13,0,0,1,2.18.22h.81v.11h.23V34a6.32,6.32,0,0,0,2.07-.11c0-.07.07-.14.12-.22h.45v-.11l1.84.11v.11h.35v.11l.92-.11h1.76C25.55,33.22,24.39,32.55,24.39,32.59Z"/><path class="cls-1" d="M28.38,27.87a8.74,8.74,0,0,0-1.11-.65v-.11l-.46-.33c-.22-.29-.26-.58-.58-.76v-.23a4.63,4.63,0,0,1-1.38-.87h-.23c0-.08-.08-.15-.11-.22h-.12c0-.18-.08-.37-.11-.55L24,24c0-.15-.07-.29-.11-.44-.19-.14-.39-.29-.57-.44V23l-.23-.11v-.11H22.9v-.11h-.23l-.12-.22h-.23L22,22h-.12v-.22h-.11v-.22a1.23,1.23,0,0,1-.23-.11c-.28-.4-.08-.6-.7-.76a3.17,3.17,0,0,0-.69-1.1h-.22l-.23-.33h-.12c-.12-.18-.1-.68-.23-.87l-1-.88v-.22l-1-.87v-.22l-.69-.55-.12-.44h-.11l-.12-.33L16,14.73v-.22c-.09-.11-.5-.15-.57-.22v-.1c-.49.06-.38.15-.7.32v.88h.12v.22l.23.11v.22c.21.28.44.18.58.65.28.08.19.06.34.22h.12V17l.34.22v.22l1.49,1.32V19l.24.11c0,.11.08.22.11.33h.12c0,.15.07.3.11.44l.81.65v.22l.23.23h.23a2.25,2.25,0,0,0,.12.21c.14.12.3.22.45.33l.12.44.23.11.11.44.23.11c.16.18.31.37.47.54l1.15.77v.22c.15.11.3.23.46.33s.07.29.11.44h.12l.34.43h.23l.23.23v.21c.19.15.38.3.58.44v.11H25c0,.11.07.22.11.33l.46.33v.22h.24c0,.11.07.22.11.33l.69.55v.17A2.67,2.67,0,0,0,28.38,27.87Z"/><path class="cls-1" d="M26.92,36.53v.33l-.23.11c0,.18-.07.36-.11.54h-.12v.22h-.11V38l-.35.1-.22.22v.22l-.24.11v.33l-.23.11c-.07.22-.15.44-.23.65l-.23.12V40l-.23.11v.22l-.23.11v.22h-.11v.22l-.24.22v.22l-.57.33c-.07.22-.15.44-.23.66h-.11l-.12.32-.34.22v.33l-.35.22v.22c-.21.28-.45.18-.57.65-.48.12-.15.06-.35.34h-.12c0,.11-.07.21-.11.32h-.23v.11h-.12v.22l-.46.33v.22c-.31.08-.26,0-.34.33h-.23a3.08,3.08,0,0,1-.46.77v.21l-.35.22v.22l-.23.11c0,.18-.07.37-.11.55l-.46.33v.22c-.11.07-.24.14-.35.22v.11H17.6c0,.11-.07.21-.11.33h-.12v.21l-.34.22c0,.82.28.73.57,1.21a5.13,5.13,0,0,0,.81-.11.85.85,0,0,1,.23-.44h.11v-.22l.23-.11V50l.23-.11v-.22l.23-.21v-.22h.12V49l.23-.11c.07-.22.15-.44.23-.66l.23-.11.11-.44.81-.55c0-.18.08-.36.11-.55.24-.17.47-.36.7-.54v-.22l.34-.22V45.4l.35-.22c.38-.43.76-.88,1.15-1.31H24c.1-.39.3-.5.47-.77v-.22l.57-.44.12-.54.23-.11v-.22l.35-.22c0-.15.07-.29.11-.44l.23-.11v-.22l.23-.11v-.33l.23-.11v-.21h.11c.08-.22.16-.44.23-.66l.23-.11.12-.33h.12c.29-.45,0-.66.57-1C28,37.7,27.83,36.51,26.92,36.53Z"/><path class="cls-1" d="M30.61,40.91h.11c0,1.06-.07,2.12-.11,3.18h.11v2h.12v.44H31l.12.44h.11c0,.32-.07.65-.11,1h.11v.33h.12v.88h.11v.44l.23.1V50h.12v.55h-.12c0,.23.12.22.12.22v1.09h.11c0,.3-.08.59-.11.88h.11v.33H32l-.12.76c0,.45.08.88.12,1.32l.57.66c.73,0,.92-.11,1-.66.64-.67-.11-2.19-.23-2.85l-.12-3.06h-.12V48.8H33c-.07-.22-.15-.44-.23-.66h-.11l-.12-1.42A10.31,10.31,0,0,1,32,44V41h-.12c0-.11-.08-.22-.11-.33C31.67,40.29,30.46,40.4,30.61,40.91Z"/><path class="cls-1" d="M36.71,32.17h-.23v-.11h-.23V32a.8.8,0,0,0-.46-.22c-.06-.3-.47-.92-.34-1.21l.23-.11V30.2h.11V30h.12v-.44c.09-.21.49-.45.34-.87h-.11v-.22s-.17-.1-.23-.22c-.22,0-.49-.23-.81-.11v.11c-.09.05-.36.21-.57.11v-.11l-.35-.11c0-.18-.08-.36-.11-.55H34v-.22h-.11V27h-.12V26.8h-.11v-.21h-.12l-.12-.33H32.8v.11c-.47.36,0,.28-.23.65,0,0-.27.19-.35.33l-1.61-.11v.11h-.22v.11h-.7a.92.92,0,0,0-.26-.22c-.55.38-2.13,1.17-1.46,1.76v.54l-1.5,1.1-.18.8a1.71,1.71,0,0,1,0,1.72h1c.09.41.24.7-.12,1,0,.85.23,1.08.81,1.32v.43a1.16,1.16,0,0,1,1.29,1.19l.2,0c.06.14.06,0,.12.11v.44h.11v.22h.12c0,.11.08.22.11.33.68.1,1.25.12,1.56.52a3.81,3.81,0,0,1,1.35-.14.79.79,0,0,0-.14-.49c0-.77,0-.59.45-.88V37.1l.35-.11v-.11c.36-.2,1.52.24,1.61.33,1.21,0,.92-.67,1.61-1.09,0-.15-.08-.3-.11-.44l-.23-.11c-.28-.66.83-1,1-1.31,0-.22.08-.45.12-.66h.11v-.77Z"/><path class="cls-1" d="M4.37,38.83h.12c0,.66.07,1.31.11,2h.12v.33h.11v.33H5V42h.11v.22h.12c0,.61.07,1.24.11,1.86l.23.11v.22h.11v.33h.12V45h.12v.33H6v.33H6.1v.22l.46.33v.22l.34.21v.23l.23.11c.08.21.15.43.23.65l.58.44c0,.14.07.29.11.44l.46.33V49l.23.11v.21h.12v.23H9v.21L9.2,50v.22h.12l.11.22h.23l.35.44h.23l.12.32c.26.23.53.44.8.66l.11.22.69.22.35.44.46.11.11.22h.23v.11h.35v.11l.46.11v.11h.23l.12.22h.23l.11.21h.23l.12.22.69.23v.1c.58.32,1.74,1.32,2.66,1.34.12-.13.2-1.45-4.73-4.07v-.12h-.23c-.12-.14-.24-.29-.35-.44h-.23c-.08-.1-.15-.21-.23-.32h-.23a1.55,1.55,0,0,0-.12-.22l-.46-.11-.23-.33h-.11V50l-.69-.54c0-.15-.08-.3-.11-.44l-.47-.33c-.07-.22-.15-.44-.23-.66l-.23-.11V47.7H9.55v-.22L9,47.05v-.22l-.24-.11V46.6l-.23-.1c0-.22-.07-.44-.11-.66l-.23-.11-.12-.33-.34-.22V45l-.23-.21v-.23H7.36V44.3H7.25v-.21H7.13v-.22l-.23-.11V43.1H6.79v-.33H6.67v-.33H6.56v-.87H6.44v-.22H6.33v-.66H6.21v-.22H6.1v-.65H6V39.6H5.87V38.18H5.75L5.87,36H5.75v-.44H5.63V35H5.52c.08-.33.15-.66.23-1a18.66,18.66,0,0,1,.12-3V29.19H6v-.76H6.1V28.1h.11v-.55h.12l.11-.44h.12c.07-.84.15-1.68.23-2.52H6.9v-.21H7V23.5h.12v-.22l.23-.12V23l.23-.11.12-1.21.34-.22v-.22h.12v-.32h.11v-.34H8.4c0-.14.07-.28.11-.43h.12c0-.22.08-.44.11-.66h.12v-.22l.23-.11V18.9H9.2v-.23l.35-.21v-.22h.11c.16-.25,0-.15.23-.33,0-.57,0-.43-.23-.77-.54.07-.47.2-.68.55H8.86v.22l-.46.33v.22c-.19.11-.39.21-.58.33s-.08.36-.11.54l-.46.33L7.13,20l-.23.11v.22H6.79v.21H6.67v.34H6.56v.54H6.44v.33H6.33V22H6.21c0,.15-.08.29-.11.44H6v.33H5.87v1H5.75V24H5.63v.22H5.52v1H5.4v.33H5.29c0,.36-.07.73-.11,1.09H5.06c0,.48-.07.95-.11,1.43H4.83v.43H4.72v.22H4.6v1.1L4.37,30a.25.25,0,0,0,.12.32v.66H4.37v2.52s.15,0,.12.22H4.37v1.43a9.39,9.39,0,0,0,0,2.19c0,.32-.08.66-.11,1h.11Z"/><path class="cls-1" d="M26.58,44.2l-.8.44v.21h-.12v.33h-.12v.33h-.11v.33h-.12v.33H25.2v.33h-.12v.22H25c-.08.22-.16.43-.23.65h-.12c0,.26-.08.51-.11.77l-.47.33v.33h-.11c0,.11-.08.22-.11.33l-.35.21c0,.3-.07.59-.11.88h-.12v.22l-.46.33c-.11.33-.23.66-.35,1a1.35,1.35,0,0,0,.12.54l.35.11.69-.77.23-.1v-.23L24,51.2V51h.12v-.66h.12V50h.11V48.91h.12v-.22h.11l.12-.66.46-.33c0-.18.07-.36.11-.55l.23-.1v-.22h.12v-.66h.12c0-.15.07-.29.11-.44l.23-.11V45.4a2,2,0,0,1,.69-.65V44h-.23Z"/><path class="cls-1" d="M28.07,49h.12v-.55h.11l.12-1.87h.11l.24-.65h.11v-.22H29c.15-.25-.05-.15.23-.33a1.75,1.75,0,0,0-.12-.65c-.23-.07-.1,0-.23-.11a1.46,1.46,0,0,0-.58.11c0,.22-.11.21-.11.21v.55h-.12v.22H28v.33h-.12v.22h-.11l-.12,1.09H27.5v.22h-.11l-.12.55h-.12v2H27v.77l-.23.11v.65a1.45,1.45,0,0,1,.34.44c.64,0,.59-.21,1-.32,0-.12.08-.22.11-.33h-.11V51.2h-.12c0-.47-.07-.94-.11-1.42h.11Z"/><path class="cls-1" d="M37.05,48.14V47.7h-.12v-.33h-.11v-.32h-.11V46.6h-.12v-.54h-.12V45.4h-.11V45l-.23-.11v-.21H36a5.21,5.21,0,0,1-.11-1.76h-.35c-.09.12,0,0-.11.11a1.8,1.8,0,0,0,0,1.1h.11c0,.47-.07.95-.11,1.42h.11v.55h.12v.44h.11v1h.12c0,.15.07.3.11.44h.12v.33h.11l.12.44h.11v.65h.12v.23h.12v.32h.11c0,.15.08.29.11.44.68,0,.65-.22,1-.44v-.76L37.74,49Z"/><path class="cls-1" d="M38.89,46.5v.44H39v.21h.11c0,.26.08.51.11.77h.12v.88a1.63,1.63,0,0,1,.34.33l.58.11c.11-.2.17-.18.23-.44.06-.09.15,0,.12-.22H40.5v-.33l-.23-.11c0-.26-.07-.51-.11-.77l-.23-.11v-.32l-.24-.11c0-.26-.07-.52-.11-.77h-.12v-.33h-.11v-.55h-.12v-.33h-.11v-.21H39V44h-.12v-.22h-.12c-.07-.22-.15-.44-.22-.66h-.12c-.13-.44.45-.57.23-1.09l-.23-.11v-.77h-.11v-.22s-.17-.09-.23-.22a2.09,2.09,0,0,0-.7.11,4.36,4.36,0,0,0,.23,1.43l.12,1h.11v.22H38v.66h.12v.33h.11v.33h.12v.65h.11v.22h.12c.14.28.1.56.22.88Z"/><path class="cls-1" d="M43.38,47.37c.15.19.3.37.46.55l.69.11a1.46,1.46,0,0,1,.23-.22c.24-.58-.75-1.07-.92-1.31L43.72,46l-.57-.44L43,45.07,42.8,45v-.44h-.11V44.3l-.58-.43v-.55H42V43.1h-.12l-.23-.33a1.47,1.47,0,0,0-.46.11v.55l.23.11v.33h.12v.33c.15.1.3.22.46.32.11.33.23.66.35,1h.1v.22h.12V46l.23.11.12.44H43v.33h.12v.22h.11v.32Z"/><path class="cls-1" d="M15.42,47.05c0,.1.07.21.11.32a1.12,1.12,0,0,0,1-.65h.23a1.36,1.36,0,0,1,.46-.77l.57-.11.35-.55.57-.11v-.11h.35V45l.34-.21V44.3h.12v-.1h-.12V44c-.27-.07-.21,0-.34-.22a1.74,1.74,0,0,0-1.16.54,1.51,1.51,0,0,1-.11.22H17.6l-.34.44-.92.77V46l-.23.11a2.14,2.14,0,0,0-.69.88c-.08.13-.15,0-.12.11Z"/><path class="cls-1" d="M37.05,37.3l.23.11v.21a1.52,1.52,0,0,1,.34.34c.2,0,.73.22.81.22v.1h.23v.11h.23v.11l.69.22v.11l.58.11v.11h.23v.11h.34l.12.22.57.11v.11h.23v.1h.23l.12.22h.23l.22.22h.24v.11h.23a1.51,1.51,0,0,0,.11.22h.23l.12.22h.23c0,.07.07.15.11.22H44l.12.22h.35v.11h.22v.11h.23l.12.22.46.11.23.33h.23l.12.22,1,.32.11.22.35.11V43l1,.33.12.22h.23a1.51,1.51,0,0,1,.11.22h.24l.23.33h.23c.2.14.29.39.58.55v.21a1,1,0,0,1,.45.22v.11H51v.11c.25.15.17,0,.35.22H52V45.4l.34-.11c0-1-.32-.59-.8-1v-.1L51.2,44v-.22L51,43.65v-.22l-.92-.66h-.23l-.11-.22h-.23c-.08-.11-.16-.21-.23-.32l-1.16-.33a1.51,1.51,0,0,0-.11-.22l-.69-.22-.12-.22h-.34L46.71,41h-.22l-.24-.33H46l-.12-.22-.69-.22-.35-.43h-.23a1.51,1.51,0,0,0-.11-.22l-.69-.22c-.16-.18-.31-.37-.46-.55h-.23L43,38.61l-.8-.22a3.88,3.88,0,0,1-.23-.33h-.23V38h-.35v-.12h-.23v-.11h-.34v-.11l-.46-.11v-.1l-.58-.11-.12-.22h-.23l-.23-.33H39v-.11a4.17,4.17,0,0,0-1.62.11l-.34.11Z"/><path class="cls-1" d="M15,43.54v-.11l.57-.11.12-.22h.23a1.51,1.51,0,0,0,.11-.22h.35v-.11h.23l.23-.33.46-.1v-.11l1-.11.12-.22h.23v-.11h.23c.06,0,.09-.15.23-.22s.08-.22.11-.33a1.48,1.48,0,0,1-.34-.44,3.34,3.34,0,0,0-1.73.44,1.51,1.51,0,0,0-.11.22H16.8l-.12.22h-.23a1.51,1.51,0,0,0-.11.22h-.23l-.12.22h-.23c-.08.11-.15.22-.23.32H15.3v.11h-.23v.11l-.35.11c-.07.22,0,.1-.11.22C14.62,43.41,14.59,43.45,15,43.54Z"/><path class="cls-1" d="M22.78,36.64c-.06-.48-.22-.39-.46-.66a1.72,1.72,0,0,0-1,.22,1.51,1.51,0,0,1-.11.22l-.58.11-.23.33-.57.11v.11h-.23v.11l-1.15.11v.11h-.47v.1h-.22v.11h-.35v.11H16.11v.11h-.46V38H15v.1h-.24l-.11.22-.57.11-.12.22h-.23v.11h-.23v.11l-.81.22v.11l-.57.44c.08.3.16.24.23.54H13a1.51,1.51,0,0,0,.11-.22h.24l.11-.22h.23v-.1H14v-.11l.68-.22v-.11h.58v-.11l.46-.11v-.11l1.15-.22V38.5h.35v-.11h.81v-.11h.34v-.1c.15,0,.3-.08.46-.12V38h.81v-.12l.45-.11v-.11h.35v-.11h.23v-.1l.46-.11v-.11h.35v-.11H22V37h.22l.12-.22h.35C22.82,36.68,22.63,36.7,22.78,36.64Z"/><path class="cls-1" d="M46.49,38.39h-.12c0,.11.07.22.12.33a9.15,9.15,0,0,0,2.06.11v-.22a2.44,2.44,0,0,1-1.72-.43C46.56,38.24,46.61,38.2,46.49,38.39Z"/><path class="cls-1" d="M49.48,35.22c.2.05.6.38,1,.22l.12-.22h.23c.07-.22,0-.1.11-.22-.06-.46-.16-.36-.34-.66a1.83,1.83,0,0,0-1,0v.11H47v.11H45.1v-.11l-1,.11-.69-.11v.11H43v.11l-.92.11v.11h-.34a1.68,1.68,0,0,1-.23.22,2,2,0,0,0,.11.76,2.2,2.2,0,0,0,1.27,0v-.11h.23v-.1h.92v-.12h.35v-.1H46.6v-.12H47v-.1l1.14.1A4,4,0,0,1,49.48,35.22Z"/><path class="cls-1" d="M40.83,27.77c0,.13-.12.27-.18.41l-.25.08a1.55,1.55,0,0,1,0,.21l-.68.56-.47,0-.16.2-1.32.23-.22,0-.17.31-.25.07c-.14.11-.1.19-.29.29-.07.57,0,.44.34.72,0,.08,0,.15.08.24l.34.05a.52.52,0,0,1,0,.11c.62,0,.45-.13.77-.43l.38-.16.16-.2.22,0,0-.11.22,0s0-.07,0-.11l.34.06a.36.36,0,0,1,0-.11h.7l.87-1a2.07,2.07,0,0,1,0-.22l1.44-.88.43-.48.23,0,.15-.19A3.11,3.11,0,0,0,45,26.31a2.1,2.1,0,0,0,.87-.3l.14-.2.23,0,.29-.29.45.07a.36.36,0,0,0,0-.1c.22-.06.45,0,.61-.13a1.55,1.55,0,0,1,0-.21l.24-.08.82-.64.34.05.41-.38.23,0c.09-.1.19-.19.29-.29l.22,0,.42-.38c.25-.1.51.11.81,0l.29-.29.45.07s0-.07,0-.1l.23,0,.15-.19.23,0c.23-.08.5-.24.75-.32.13-.53.41-.94.12-1.32-.1-.23-.26-.3-.38-.5-.89,0-1.13.64-2,.68a1.7,1.7,0,0,1,0,.22l-.11,0c-.24.18-.27,0-.49.14l-.15.2-.23,0-.16.2-.46,0a.36.36,0,0,0,0,.11H49l-1.08.83-.23,0a.36.36,0,0,1,0,.11l-.22,0s0,.08,0,.11l-.25.08c0,.06,0,.14,0,.21l-.91.52-.28.29-.23,0-.28.29-.23,0-.15.2-.23,0a.43.43,0,0,1,0,.11c-.35.14-.18-.13-.39.27a1.4,1.4,0,0,0-.89.41,1.7,1.7,0,0,0,0,.22l-.65.34-.18.42a2.92,2.92,0,0,1-1.1.26c-.13.52-.31.54-.61.79Z"/><path class="cls-1" d="M45.33,32.15c.07-.22,0-.1.12-.22a1.11,1.11,0,0,0-.12-.44,1.86,1.86,0,0,0-1,.22,1.11,1.11,0,0,0,.12.44A1.87,1.87,0,0,0,45.33,32.15Z"/><path class="cls-1" d="M47.06,31.16a1.86,1.86,0,0,0-.92.22L46,31.6h.11v.11C46.73,31.72,47,31.61,47.06,31.16Z"/><path class="cls-1" d="M49.25,30.94v-.1h.11v-.12a1.39,1.39,0,0,1-.35-.44h-.68l-.24.34h-.22v.1h-.23l-.12.22h-.23v.11h-.12v.11h.58C48.2,30.74,48.86,31.17,49.25,30.94Z"/><path class="cls-1" d="M9.2,28.75l-.34.11-.12.33.35.11v.11h1.27v.11h.91v.11l.81.22c0,.11.08.22.11.33.35.1.69.21,1,.33h.46v.11A4.38,4.38,0,0,0,15,30.51a2.55,2.55,0,0,1,.11-.33H15V30l-.58-.11v-.11h-.57v-.11l-.46-.11v-.11l-.7-.11a2.26,2.26,0,0,0-.11-.22h-.23V29A2.76,2.76,0,0,0,11,28.75,8.52,8.52,0,0,0,9.2,28.75Z"/><path class="cls-1" d="M11.27,25.25l.23.1v.23h.12L12,26h.23l.35.43h.23v.11h.46l.12.22h.23l.23.33H14l.23.33h.23l.22.33.47.11.11.22a1.44,1.44,0,0,0,.92.22V28.2l.23-.1c.08-.27-.48-.65-.57-.77L15.76,27l-.69-.22c-.15-.18-.3-.37-.46-.55h-.23L14.27,26H14l-.12-.23h-.34v-.11l-.47-.1v-.11h-.23c-.15-.18-.3-.37-.46-.55h-.23l-.34-.44a1.46,1.46,0,0,0-.58.11l-.11.33h.11Z"/><path class="cls-1" d="M21.52,27.44c.16-.53-.14-.43-.47-.77h-.46l.58.77Z"/><path class="cls-1" d="M13.69,21.63l.81.88h.22a1.55,1.55,0,0,1,.12.22l.46.11.12.21h.23l1.26,1.33h.23l.12.21.46.11c.11.14.22.3.35.44h.22l.12.21c.4.27.65.25.92.67h.23L18.29,24.7h-.22c-.05-.07-.08-.15-.13-.22l-.45-.33-.12-.33h-.11a1.71,1.71,0,0,0-.92-.66V23h-.12l-.69-.77H15.3c-.15-.18-.31-.36-.46-.55l-.34-.11-.69-.87h-.7c-.06.22,0,.09-.11.22v.32c.15.12.31.22.46.33v.11Z"/><path class="cls-1" d="M35.21,18.79v-1.1h.11l.12-.44h.11v-.76h.12v-.33h.11v-.77A2.8,2.8,0,0,0,36,13.64l-.34-.11v.11h-.23c0,.21-.12.22-.12.22v.65h-.11l-.12.44H35v.33h-.11v.33h-.12v.22h-.12v.22l-.34.22v1h-.12v.33h-.11l-.12,1h-.11v.22h-.12v.32H33.6L33.48,21h.12v.11h-.12c0,.14-.07.29-.11.43h-.12c0,.48-.07.95-.12,1.43H33v.21a1.67,1.67,0,0,1-.23.12,4.69,4.69,0,0,1-.46.54,1.67,1.67,0,0,0,.46,1.32c.3.29.6.16,1,.11l.11-.33h.12V24.7h.11v-1h.12v-.33h.11v-.23h.12v-.43h.11V21.41h.12v-.22h.12v-.32H35v-1h.11v-.44H35c0-.22.07-.44.11-.65Z"/><path class="cls-1" d="M21.05,8.71V8.6c.4-.14.79.17,1,.11V8.6h.23l.11-.22c.39-.19.66.06.93,0V8.27h.34c.11,0,0-.14.34-.22.08-.26.13-.24.24-.44s.26,0,.46-.11V7.39H26V7.28c.26,0,.44.22.81.11V7.28h.34v-.1l.46-.12V7H28V6.84L29.57,7s0,.15.23.11V7h1a2.7,2.7,0,0,1,1.49-.21v.1h1.5V7h.92v.11C35,7.1,35,7,35,7l.8.11v.12c.37.09.41.28.69.43,0,.84.07,1.24.12,1.86l.69-.11c.18-.77.79-1.25,1.15-1.86a2.57,2.57,0,0,1,1.26.22v.11h.24v.11h.23v.11h.57v.11h.46v.11h.46V8.16h.12v.11h.46v.11h.34v.11h.23l.12.22.57.11v.11l.69.22v.11l.46.1a2.53,2.53,0,0,1,.12.23l.46.1c.08.15.15.3.23.44l.69.22,1,1.1h.24l.23.21v.22l.34.22v.22h.11v.22h.12l.12.22h.22l.35.44h.23l.12.22h.23c0,.11.07.22.11.33l.23.11c.16.21,0,.15.23.33v.21a2,2,0,0,1,.81.55v.11h.23c0,.08.07.15.11.22h.12l.11.44.47.33c0,.18.07.36.11.54l.23.11c0,.11.07.22.11.33h.12c0,.15.07.3.12.44a1.51,1.51,0,0,0,.22.11v.22h.12V18l.46.33v.22l.23.22V19h.12v.22h.11v.22H54v.22l.46.33c.16.44.31.88.46,1.32l.47.32v.22l.22.11v.66h.12v1h.11V24h.12v.34H56c.09.31.13.35.47.43.13.12,0,.05.23.11.11-.14.28-.14.34-.22v-.22h.12c.15-.23-.06-.15.23-.33v-.76l-.23-.11V23h-.12v-.22H57v-1.1h-.12v-.22l-.23-.1c0-.19-.08-.37-.11-.56h-.12v-.22h-.12v-.21L56,20.21v-.33h-.11v-.22H55.8v-.22l-.34-.22-.58-1h-.23l-.11-.33h-.12v-.22h-.11c-.15-.16-.06-.15-.35-.22l-.11-.33h-.11v-.22h-.12v-.33l-.23-.1v-.22h-.12c-.11-.37-.23-.73-.34-1.1L52.59,15v-.22c-.12-.07-.24-.14-.35-.22v-.22L52,14.08h-.23l-.58-.66L51,13.31v-.22l-.8-.66-.12-.22h-.23L49.71,12h-.12L47.06,9l-.57-.11-.24-.33H46l-.81-.88H45l-.12-.22h-.23V7.39H44.3V7.28l-.46-.1V7.06L43.15,7V6.84H42v-.1h-.35V6.63h-.23V6.52H41V6.41h-.35V6.3h-.23V6.19H40V6.08h-.46V6l-2-.22h-1V5.64H35.9V5.53h-.23V5.42l-1.61.11V5.42h-.35V5.31l-2.64.11v.11H31V5.42l-2.42-.11v.11H28.3v.11l-.91.11v.11h-.24v.11h-.34V6l-2.42.11v.11l-.46.11v.11h-.46v.11h-.23v.11l-.57.11-.24.32-.34.12-.69.76c-.24.15-.5,0-.81.11v.11h-.23v.11L20,8.49c0,.35.1.32.23.55A2,2,0,0,0,21.05,8.71Z"/><path class="cls-1" d="M41.65,23.39a1.7,1.7,0,0,0,.23.87,1.79,1.79,0,0,0,.92,0c.15-.44.31-.87.46-1.31h.12v-.22h.11v-.44L44,22v-.22h.12v-.65l.57-.44a2.62,2.62,0,0,0,.69-1.54c-.74.09-.41.38-.8.66H44.3l-.12.22h-.11v.22H44v.22c-.15.1-.3.22-.46.32V21l-.23.11v.22l-.34.21v.22H42.8c-.11.25,0,.56-.11.77s-.54.08-.69.77Z"/><path class="cls-1" d="M27.5,22.84l.46.88a3.5,3.5,0,0,0,.81.1.84.84,0,0,1,.34-.22,1.4,1.4,0,0,0-.34-1.09l-.24-.11v-.22h-.11l-.12-.66-.23-.11c0-.1-.07-.22-.11-.32h-.12v-.22h-.11v-.22l-.23-.22v-.22c-.11-.08-.23-.15-.35-.22v-.22l-.23-.11c0-.15-.07-.29-.11-.44l-.23-.11V18.9h-.12c0-.19-.07-.37-.11-.55l-.23-.11L26,17.8l-.34-.22-.12-.44h-.11v-.65l-.35-.22v-.22H25v-.44l-.35-.22c0-.15-.08-.29-.11-.44l-.23-.11-.12-.33H24v-.22h-.11v-.21h-.11v-.44H23.7l-.11-.44L23.24,13v-.22h-.11v-.22H23c0-.11-.08-.22-.11-.33h-.23V12.1a2.3,2.3,0,0,1-.47.11c-.09.12,0,0-.11.11,0,.25,0,.29.11.44h.12V13l.23.11.12.44h.11v.33h.12v.22l.23.11c0,.14.07.29.11.43l.23.11v.33h.12v.22l.23.11v.33l.22.11.24.66.23.1c.11.41.23.81.34,1.21l.58.44c.15.43.3.87.46,1.31H26v.22h.12V20l.34.22v.22h.12v.32h.11v.34h.12c0,.14.08.29.11.43H27c0,.19.08.37.11.55h.12v.22h.12l-.12.33h.12v.22Z"/><path class="cls-1" d="M39.35,15.17v.22l-.23.11v.22H39c0,.15-.08.29-.12.44h-.12v.43h-.11v.22h-.11l-.12.66-.34.22v.22H38l-.12.76-.23.12v.54h-.11v.22l-.23.11-.12.55h-.11c.06.47.27.45.46.77H38c.19-.23.38-.45.58-.66v-.66h.11v-.33h.11l.12-.76H39v-.22l.34-.22v-.77h.11V17h.12V16.7h.11v-.21h.12v-.22l.23-.11v-.22h.12v-.77h.11a1.88,1.88,0,0,0-.11-.66h-.35c-.16.1,0,.28-.12.44Z"/><path class="cls-1" d="M42.35,17.25h.34c0-.11.08-.22.11-.33l.58-.43a1.06,1.06,0,0,0-.12-.44l-.34-.11v.11h-.23c-.13.45-.46.57-.58,1.09C42.35,17.21,42.21,17.13,42.35,17.25Z"/><path class="cls-1" d="M29.57,16.92c.08-.19-.16-.56-.23-.65h-.11l-.35-1h-.11v-.22h-.12l-.12-.55h-.11v-.32H28.3v-.66h-.11v-.22h-.12c0-.26-.07-.51-.11-.77h-.12c-.11-.16-.22-.18-.34-.33h-.35v.11l-.34.11c0,.22.08.44.11.66H27v1.2h.11l.24.66h.11v.33h.11c.08.22.16.44.23.66H28c0,.25.07.51.11.76l.23.11.12.33a3.44,3.44,0,0,0,.81.11A2,2,0,0,1,29.57,16.92Z"/><path class="cls-1" d="M31.07,15.06c.43-.82,0-1.45,0-2.41,0-.44-.19-.88,0-1.09a1.7,1.7,0,0,0-.23-1.1,1.56,1.56,0,0,0-.93.22c-.07.36-.15.73-.22,1.09h.11v.33h.11l.12,1h.11v.77h.12C30.23,14.64,30.41,15,31.07,15.06Z"/><path class="cls-1" d="M13.11,14.4v-.11h.24c.13-.08.13-.42.23-.54l.34-.22v-.22H14v-.22l.23-.22v-.22l.57-.44L15,12h.23c.14-.11,0-.28.11-.43h.12v-.11c-.25.05-.33.06-.46.21-.39.11-.4.28-.46.66H14l-.46.55h-.23l-.24.22c-.18.24-.22.47-.46.66a1.75,1.75,0,0,0,.12.65Z"/><path class="cls-1" d="M44.18,171.54c.09.16.19.31.28.46a3.73,3.73,0,0,1,1.16.31,2.51,2.51,0,0,0,1-.15c-.26-.46-.63-.44-.86-.77v-.31l-.43-.31c-.24-.37-.22-.67-.58-.92,0-1,.18-.73.58-1.24a6.31,6.31,0,0,1,2.45.62c0,.1.09.2.14.3h.29v.16h.43c0,.1.1.21.14.31h.29v.15h.43v.16l1,.16v.15c.39.12.33,0,.43.46.94.22,1.31,1,2,1.39v.47h-.15c-.33.35-1.17.45-1.72.61v.15h-.15v-.15h-.43v-.16h-.58v-.15h-.28l-.15-.3h-.28v-.16l-.73.16v-.16h-.28v-.16l-1.15-.15c.09.38.07.25.28.47v.14h.29c.15.21.29.42.44.62h.42a6.56,6.56,0,0,0,2.45.46l1.15.16v-.16h.44V174h.72v-.15c.42-.12.68-.44.43-.78a2.11,2.11,0,0,1,.28-1.23,5.07,5.07,0,0,1,1.3.31c.09.31,0,.13.14.31,0,1,.39.95.72,1.54.56,0,.72,0,1-.31a2.92,2.92,0,0,0,.14-.31h.87v-.15h.29v-.16l2.3-.14v-.16h.57v-.16h1.15v-.15h.29v-.16h2v-.15h.43V172h1.15v-.15h.29v-.15h.29c0-.1.09-.21.14-.31h.43c.1-.16.2-.31.29-.47h.29c.05-.1.1-.2.14-.3l.58-.47v-.3a2.69,2.69,0,0,1,.29-.16v-.31a3.08,3.08,0,0,0,.28-.3h.15l.57-2.63h-.14v-.3h-.15v-.47h-.14c-.05-.15-.09-.31-.14-.46h-.15v-.15c-.4-.32-.87-.33-1.15-.77H66.48v.15c-.33.15-.86.28-1.15,0l-.43-.15c0-.75.58-2.22.29-2.94l-.29-.15c0-.26-.09-.52-.14-.77h-.15c0-.16-.09-.31-.14-.47-.31-.07-.41-.09-.57-.3-.78,0-1.43.23-1.59.92-.58.17-.5.57-.86.93l-.43.15-.15.31a4.1,4.1,0,0,0-1.15,1.7h-.14v.15h-.44V164c-.34-.09-.31-.16-.57-.3,0-.62.09-1.23.14-1.85h-.14v-.31h-.14v-.62h-.15v-1.23h-.14v-.31l-.29-.16v-.3h-.14L57,158l-1.29-.46-.58.15h-.57c0,.1-.1.21-.14.31h-.29l-.15.62h-.14v.77h-.14c-.15.49,0,.89-.29,1.23v2.63a2.89,2.89,0,0,0-.43.46l-.72-.15-.72-.93h-.29L50.8,162l-.29-.15v-.31h-.14l-.58-.78c-.26-.21-.21.08-.43-.3-.45,0-1.07-.08-1.29.15a.84.84,0,0,0-.73.77,2.58,2.58,0,0,0-.28,1.55h.14v.31h.14V164h.15v1.09h.14a4.39,4.39,0,0,0,.72,1.54,1.78,1.78,0,0,1-.14.62H46.77v-.16l-.58-.15v-.16L44,166.45v.16l-.58.15v.16l-.29.15v.31H43c-.2.23-.08.2-.43.31,0,.51.09,1,.14,1.54l.29.15v.31h.14c0,.21.1.41.14.62l.58.46v.46H44v.31ZM64,167.69l.28-.31h.29v-.15c.34-.19.82-.12,1.16-.31a2.92,2.92,0,0,1,.14-.31h.29v-.16h.72v-.15c.65,0,.68.19,1.15.31a3,3,0,0,1-.15,2h-.14v.31l-.29.16v.3h-.14c-.1.15-.19.31-.29.47l-.86.3-.15.32h-.28v.15h-.58v.15H64.9v.15H64v.16h-.43v.15h-.29v.16c-.74.29-1.76-.18-2.3.31-.75,0-.56-.06-1-.31v-.47h.14c.1-.15.2-.3.29-.45h.29l.86-1.09.58-.15.28-.46h.29l.44-.62h.28l.29-.46Zm-5.18.31H59c0-.36.1-.72.14-1.08h.15v-.31h.14v-.46h.15v-.31h.14v-.31l.43-.31v-.15l.43-.15v-.31l.29-.16v-.62H61c0-.2.09-.41.14-.61h.14l.15-.31h.29v-.16a2.81,2.81,0,0,0,.86-1.08,2,2,0,0,1,1,.31,2,2,0,0,1,.14,1.55h-.14v.92h-.15v.31l-.72.61v.31l-.29.16v.31l-.43.3a4.56,4.56,0,0,1-2.3,1.7c0,.16-.09.31-.14.46l-.87.16A1.59,1.59,0,0,1,58.86,168Zm-4-7.26a2.11,2.11,0,0,1,.28-1.23c.51,0,.68-.2,1,.16a4,4,0,0,1,.72.92v.46H57c.06.21.1.41.15.62h.14v.46h.15l-.15,3.09h-.14v.46H57c.06.36.1.72.15,1.08H57v.47l-.42.3v.31h-.15c0,.26-.1.52-.14.77h-.15c0,.16-.09.31-.14.47a1.35,1.35,0,0,1-.58.15A9.13,9.13,0,0,0,55,168v-1.24h-.14v-1.84H55a.43.43,0,0,0-.14-.47v-1.7h-.14A3.85,3.85,0,0,1,54.83,160.74Zm-6.34,2.79h.15a1.79,1.79,0,0,1,.29-.62c1.11.12,1.42.88,2,1.54l.72.62v.3l.29.16c.1.31.19.62.29.92a2.69,2.69,0,0,0,.29.16c.23.56-.12.93.28,1.39a1.31,1.31,0,0,1-.28.92,1.75,1.75,0,0,1-1.16-.61v-.16h-.28l-.29-.31c-.26-.36-.22-.67-.58-.92v-.31c-.57-.18-.18,0-.43-.46h-.14v-.31l-.43-.31v-.46l-.58-.46v-.93h-.15Z"/><path class="cls-1" d="M93.5,224.88a1.58,1.58,0,0,1,.33-.22l.63-.27.25-.14.1-.1.09-.1a2.16,2.16,0,0,0,.18-.3.2.2,0,0,0,0-.08,4.11,4.11,0,0,0,.17-.67,5.81,5.81,0,0,0,0-.59l-.06-.27-.68,0,0,.16-1.16-.34a1,1,0,0,1,0,.16L92.6,222a.78.78,0,0,0,0,.16L92,222a.88.88,0,0,0,0,.16l-.6-.09c0,.06,0,.1,0,.15l-.29,0,0,.16-.44-.07a.88.88,0,0,0,0,.16l-1.33-.21,0,.16-.44-.07c0,.05,0,.1,0,.15l-1.5-.07a.77.77,0,0,0,0,.15l-.62.07a.78.78,0,0,1,0,.16l-1.35-.05c0,.05,0,.1,0,.16l-.6-.1a1,1,0,0,1,0,.16l-.44-.07c0,.05,0,.1,0,.16l-1.48-.23a.77.77,0,0,0,0,.15l-1.19-.19c0,.06,0,.11,0,.16l-.29,0a.77.77,0,0,0,0,.15l-1.93-.3a.78.78,0,0,0,0-.16c-.3-.1-.31.11-.31.11l-.74-.11,0,.15-1.32-.21,0,.16-1.23-.27c-.58,0-1.16,0-1.75,0l-.23,0c-.69,0-1.39,0-2.08-.05l-.12.19-.32.1s-.19.55-.23.62a1.91,1.91,0,0,1,.61,1.07,4.46,4.46,0,0,0,1,.32c.66-.52,2.24.12,3.3.2l.9,0a.45.45,0,0,0,.43.23c0-.05,0-.11,0-.16.34,0,.51.39,1,.32l0-.16,1.21,0c0,.05,0,.11,0,.16l.15,0a1,1,0,0,1,0-.16l.89.14a.77.77,0,0,1,0-.15l1.48.23c0-.05,0-.1,0-.16l1,.17,0-.16.88.14a.88.88,0,0,0,0-.16l.3.05a1,1,0,0,0,0-.16l1.48.23a.78.78,0,0,0,0-.16l.6.1a.88.88,0,0,1,0-.16l.44.06c0-.05,0-.1,0-.15l1,.17,0-.17.29.05,0-.16c.44.08.88.14,1.33.21,0,0,0-.1,0-.15l.59.09a.88.88,0,0,0,0-.16l.6.09a.88.88,0,0,1,0-.16l.88.15a8.77,8.77,0,0,1,1.38-.11A1.72,1.72,0,0,1,93.5,224.88Z"/><path class="cls-1" d="M125.44,195.39l0-.31.32-.12a2.17,2.17,0,0,0,.27-1.1l-.59-.23c0,.05,0,.1,0,.16l-.46.1c0,.11,0,.22,0,.32l-.32.12,0,.32h-.15l0,.32-.15,0c0,.16,0,.31-.05.47l-.65.41,0,.32-.32.13-.21.61-.31.12c-.08.21-.15.41-.22.62l-.15,0,0,.32-.15,0,0,.32H122c0,.1,0,.21,0,.31l-.33.29,0,.32-.48.26-.21.62-.32.12c-.09.37-.17.73-.26,1.1l-.15,0c0,.11,0,.21,0,.32l-.14,0a12,12,0,0,0-.43,1.24l-.15,0c0,.21,0,.43-.07.64l-.31.12c0,.11,0,.21,0,.32l-.31.12,0,.32-.32.13c0,.16,0,.31,0,.47h-.15l-.21.61c-.35.42.14.92.31,1.33.37,0,.53.06.76-.07,0-.05,0-.1,0-.16l.3,0c.22-.14.22-.49.37-.76l.15,0,.09-.79c.1-.05.21-.08.31-.12s0-.33,0-.48h.15c0-.26.06-.53.08-.79l.15,0c.07-.21.14-.41.22-.62l.15,0c.09-.47.19-1,.29-1.42l.48-.27c.07-.15.14-.3.2-.45h.15c0-.21,0-.42.07-.63h.15c.07-.2.14-.4.21-.62l.15,0,.6-1.37.31-.13c.07-.2.14-.41.22-.62l.47-.26c0-.16,0-.32,0-.48l.15,0c0-.1,0-.21,0-.32l.31-.12,0-.32h.15c0-.2,0-.42.07-.63Z"/><path class="cls-1" d="M126.13,200.31c.06-.15.13-.3.2-.45h.15l0-.32.15,0c0-.32.07-.63.1-.95l.15,0c0-.17,0-.32,0-.48l.15,0,0-.32.81-.55c.07-.2.14-.41.22-.62l.64-.41c.13-.3.26-.61.4-.92l.48-.26,0-.32.33-.28,0-.32.15,0,0-.32.32-.12,0-.32.15,0c.08-.26.15-.52.23-.78l.32-.12.24-.94.15,0a3.11,3.11,0,0,1,0-.32l.31-.12,0-.32.33-.29,0-.31.15,0c0-.11,0-.22,0-.33l.31-.12c.07-.2.15-.41.22-.62l.31-.12c0-.11,0-.22,0-.32l.14,0c0-.11,0-.21,0-.32l.14,0c0-.16,0-.32,0-.48l.15,0c0-.11,0-.22,0-.32l.15,0c0-.16,0-.32.05-.48l.14,0c0-.16,0-.32.05-.48s.21-.09.32-.12l0-.32.48-.27,0-.31.65-.41c.06-.16.13-.31.2-.46l.15,0,0-.32.15,0a3.53,3.53,0,0,1-.08-.66,1.16,1.16,0,0,1-.42-.37,2.13,2.13,0,0,0-1.22.18l-.16.14-.09.79-.15,0-.21.63-.64.4-.24.78-.15,0,0,.32-.32.12c0,.16,0,.32,0,.48l-.15,0c-.07.21-.14.41-.22.62l-.15,0,0,.32-.31.12c-.07.21-.14.41-.22.62h-.15l-.39.92-.15,0c-.08.26-.16.52-.23.78l-.48.26a3.11,3.11,0,0,0,0,.32l-.14,0c0,.11,0,.21,0,.32l-.14,0c0,.16,0,.32,0,.48l-.15,0a3.11,3.11,0,0,0,0,.32l-.31.12-.24.78-.15,0,0,.32-.15,0-.21.62-.46.11c-.07.15-.14.3-.2.46l-.48.26c-.2.27-.25,1-.43,1.24l-.48.27,0,.31-.65.41,0,.32-.65.4c-.28.47,0,.86-.42,1.24a3.43,3.43,0,0,0,0,1.13A5.58,5.58,0,0,0,126.13,200.31Z"/><path class="cls-1" d="M128.72,188.53l-.12-.33-.74-.08c-.2.89-.72,1.17-1,2C128,190.07,127.93,188.93,128.72,188.53Z"/><path class="cls-1" d="M42.71,166.59l-.18.3c-.64.24-.83-.32-1.49-.18,0,0,0,.11,0,.16l-.44-.05c0,.05,0,.11,0,.16l-.29,0a.88.88,0,0,0,0,.16l-1.21,0s0,.1,0,.15l-.3,0s0,.1,0,.16l-5.66-.52c0,.05,0,.11,0,.16l-.45-.06c0,.06,0,.11,0,.16l-.61.09c0,.05,0,.11,0,.16H30.59a.88.88,0,0,1,0,.16l-.44-.06c0,.06,0,.11,0,.17l-.59-.08s0,.11,0,.16l-.61.09s0,.1,0,.16l-.44-.05c0,.05,0,.1,0,.16L27.22,168a.92.92,0,0,0,0,.16l-.3,0c-.06.1-.13.21-.18.31l-1.79-.22c0,.05,0,.11,0,.16l-1.34-.16c0,.05,0,.11,0,.16l-.44-.06c0,.06,0,.11,0,.17l-.59-.08a1,1,0,0,0,0,.16l-.3,0-.51.58-.45-.06c0,.06,0,.11,0,.17l-.3,0c0,.05,0,.11,0,.16l-.44,0a2.82,2.82,0,0,0-.18.29l-.45-.05a3.89,3.89,0,0,1-2,.08c-.07.16-.14.31-.2.47s-.07,0-.19.3a3,3,0,0,1,1,.92,4,4,0,0,0,2.13-.23l.18-.3.3,0c0-.06,0-.11,0-.16l.3,0c0-.06,0-.11,0-.17l.44.06a.88.88,0,0,0,0-.16l.3,0c0-.05,0-.1,0-.16l.44.06a.78.78,0,0,0,0-.16l.61-.09c0-.05,0-.1,0-.16l.59.08c0-.06,0-.11,0-.16l3.12.37a.78.78,0,0,1,0-.16l1,0c0-.05,0-.11,0-.17l.29,0a.78.78,0,0,0,0-.16l1,.13c0-.05,0-.11,0-.16l.89.1c0-.05,0-.1,0-.16l.44.06s0-.11,0-.16l.6.08c.11-.21.24-.41.36-.61.38-.22.84.12,1.35,0,0,0,0-.1,0-.16l.44.05a.77.77,0,0,0,0-.15l.44.05a.78.78,0,0,0,0-.16l1.47.34a3.18,3.18,0,0,1,1.5,0c0,.05,0,.11,0,.16l.59.07s0-.1,0-.16c.45-.08.7.1,1,0,0-.06,0-.11,0-.16l.3,0c0-.06,0-.12,0-.17l.88.27a.88.88,0,0,1,0-.16l.29,0c0-.05,0-.11,0-.16l.44,0s0-.1,0-.16l1.19.14c0-.05,0-.1,0-.15l.61-.09a.88.88,0,0,1,0-.16l1.12-.06c0-.58-.1-1.16-.19-1.73Z"/><path class="cls-1" d="M81.86,164.1l-.36-.1a.81.81,0,0,1,0,.16l-.94-.26s0,.11,0,.16l-.94-.26a.76.76,0,0,0,0,.15l-.26-.07a.92.92,0,0,0,0,.16l-2.16-.43a.86.86,0,0,1,0,.16l-.51-.14a.76.76,0,0,0,0,.15l-.26-.07a.81.81,0,0,1,0,.16l-.26-.07a.92.92,0,0,1,0,.16l-.17-.05v.16l-.26-.07a.76.76,0,0,0,0,.15L74.52,164a.92.92,0,0,1,0,.16l-.17,0s0,.1,0,.16l-.51-.15c0,.05,0,.11,0,.16l-.25-.07c0,.05,0,.1,0,.16l-.43-.12c0,.06,0,.11,0,.16l-.69-.19a.92.92,0,0,1,0,.16l-.78-.06c0,.06,0,.11,0,.16l-.34-.09s0,.11,0,.16l-.26-.07a.81.81,0,0,1,0,.15l-.34-.09s0,.1,0,.16l-1.47-.25c0,.06,0,.11,0,.16l-.17-.05c0,.06,0,.11,0,.16l-.52-.14v.16l-.26-.07a.81.81,0,0,0,0,.16,1.66,1.66,0,0,0-.21-.06c-.1.64-.17,1.32-.21,2h0a.76.76,0,0,1,0-.15l.17,0a.92.92,0,0,1,0-.16l.86.09a.92.92,0,0,0,0-.16l.18,0v-.16h.62a.92.92,0,0,1,0-.16l1,.29a.86.86,0,0,0,0-.16l.26.07a.81.81,0,0,0,0-.16l.26.07s0-.1,0-.16l1.21.18c0-.06,0-.11,0-.16l.17,0v-.16l.78.05a.81.81,0,0,0,0-.16l.17,0a.81.81,0,0,0,0-.16l.69.19s0-.1,0-.16l.17.05a.76.76,0,0,0,0-.15l.52.14a.81.81,0,0,1,0-.16l.17.05c0-.06,0-.11,0-.16l1,.1c0-.05,0-.11,0-.16l.17,0a.86.86,0,0,0,0-.16l1.3.2c0-.06,0-.11,0-.16l.43.12a.81.81,0,0,1,0-.16c.21-.06.57.32.59.32a.76.76,0,0,1,0-.15l1,.28a.86.86,0,0,1,0-.16l.26.07v-.16l.52.15s0-.2.18-.12c0,.06,0,.11,0,.16l.6.17a.86.86,0,0,0,0-.16l.6.17c0-.05,0-.11,0-.16l.78.21V166A8.69,8.69,0,0,0,81.86,164.1Z"/><path class="cls-1" d="M149.1,166.32l-.75-.08,0-.16-.59-.07c0-.06,0-.11,0-.16l-.29,0a.86.86,0,0,1,0-.16l-.89-.11a.78.78,0,0,1,0,.16l-4.32-.35a7.21,7.21,0,0,0-2.8-.5.78.78,0,0,0,0,.16l-2.08-.25a.77.77,0,0,0,0,.15l-.59-.07a1,1,0,0,0,0,.16l-1-.28c0,.05,0,.1,0,.15l-4.9-.59a1,1,0,0,0,0,.16l-1.63-.19c0,.05,0,.11,0,.16l-.45-.06a1,1,0,0,1,0,.17l-.89-.11c0,.05,0,.1,0,.16l-.6-.07c0,.05,0,.1,0,.16a6.45,6.45,0,0,1-1.65-.14,8,8,0,0,0-1.3,2l.19,0c0-.06,0-.11,0-.16l1.49.18c0-.06,0-.11,0-.16l1.93.23s0-.11,0-.16l.45.06c0-.06,0-.11,0-.17l1.94.24s0-.11,0-.16l.29,0s0-.1,0-.16l1.63.2c.05,0,.07-.2.32-.12a9.31,9.31,0,0,0,3.1.53c.74-.13,2,.34,2.84.19a4.62,4.62,0,0,1,2.41,0,.78.78,0,0,1,0,.16l1.19.15c0,.05,0,.1,0,.15l.44.06c0,.05,0,.1,0,.15l3.9.15c1.2.56,1.8,1.35,3.45,1.55a2.25,2.25,0,0,1,.88-1.19c0-.32.06-.64.1-.95A10.32,10.32,0,0,0,149.1,166.32Z"/><path class="cls-1" d="M146.65,171.49c0-.1,0-.21,0-.32a1.65,1.65,0,0,1-.28-.34l-1.49-.11c0,.05,0,.11,0,.16l-.3,0-.17.31-.3,0a.86.86,0,0,1,0,.16l-.92.25a.81.81,0,0,1,0,.16l-.44,0a.86.86,0,0,0,0,.16l-.45,0c0,.06,0,.11,0,.17l-.61.11a.92.92,0,0,1,0,.16c-.49-.1-1-.18-1.48-.27,0,.05,0,.1,0,.16l-.61.11-.17.31-.29,0c0,.06,0,.11,0,.17l-1.8,0-.17.31-.44,0c0,.06,0,.11,0,.16l-1.62-.28a.81.81,0,0,0,0,.16h-.15a.81.81,0,0,1,0-.16l-1.65-.13a.86.86,0,0,1,0,.16l-.89-.07c0,.06,0,.11,0,.16l-.74-.05a.76.76,0,0,0,0,.15l-1.35-.1c0,.06,0,.11,0,.17l-.44,0a.86.86,0,0,0,0,.16l-.45,0a.81.81,0,0,0,0,.16l-1.67.19a.81.81,0,0,1,0,.16l-3.13-.24c0,.06,0,.11,0,.16l-.59,0a.86.86,0,0,0,0,.16l-.3,0c0,.05,0,.1,0,.16l-.59,0s0,.11,0,.16l-3.89-.14c0,.06,0,.11,0,.17l-.9-.07a.86.86,0,0,1,0,.16l-.44,0a.92.92,0,0,0,0,.16l-.45,0c0,.06,0,.11,0,.16a2.62,2.62,0,0,1-1.33-.26l-2.4,0s0,.1,0,.16l-.45,0a.86.86,0,0,1,0,.16l-.44,0a.81.81,0,0,0,0,.16l-.46,0a.81.81,0,0,1,0,.16l-.44,0s0,.1,0,.16l-.61.11c0,.06,0,.11,0,.17l-2.09-.17a1,1,0,0,1,0,.17l-.44,0a.86.86,0,0,0,0,.16l-.89-.23a.86.86,0,0,1,0,.16l-.45,0c0,.06,0,.11,0,.16l-.3,0c0,.05,0,.1,0,.16l-1.8-.25,0-.09-.47,0v.07l-.21,0s0,.06,0,.1l-.69-.07c0,.06,0,.1,0,.16h0l-.41-.05v.06h-.2a.38.38,0,0,0,0,.1h-1.3c0,.05,0,.11,0,.16l-.44,0a.61.61,0,0,0,0,.14l-.19,0-.2-.07-.24.22h-.14s0,.1,0,.15h0L99,175.73c0,.06,0,.11,0,.16l-.3,0s0,.1,0,.15l-1.34-.13c0,.05,0,.11,0,.16l-.3,0s0,.11,0,.16l-.74-.07s0,.1,0,.16l-.89-.09s0,.1,0,.16L91,176.22c0,.06,0,.11,0,.16l-.45,0s0,.11,0,.16l-1-.11c0,.06,0,.11,0,.17l-.45-.05c0,.05,0,.11,0,.16l-1-.1c0,.05,0,.1,0,.15l-.74-.07s0,.1,0,.16l-.75-.07s0,.1,0,.16c-.85,0-1.7-.5-2.55-.53,0,0,0,.1,0,.16l-.3,0c0,.06,0,.11,0,.17l-.9-.09c0,.05,0,.11,0,.16l-.45,0a.86.86,0,0,1,0,.16c-1.39-.08-2.79-.6-4.19-.69a.92.92,0,0,1,0,.16l-.44,0s0,.1,0,.15l-.45,0a.86.86,0,0,1,0,.16l-.89-.09c0,.06,0,.11,0,.16l-.59-.06s0,.11,0,.16l-.45,0a.86.86,0,0,0,0,.16l-.45-.05c0,.05,0,.11,0,.16l-2.52-.25c0,.05,0,.1,0,.16l-2.69-.11a.92.92,0,0,1,0-.16l-1.2,0a.76.76,0,0,1,0-.15l-1.94-.2c-1.08-.11-2.18.22-3.27.11l-.43-.2s0,.1,0,.15l-.89-.08c0,.05,0,.1,0,.15l-1.92-.34c-1.25-.08-2.49.29-3.74.21l-1.47-.3c0,.05,0,.11,0,.16l-.3,0c0,.05,0,.11,0,.16l-2.81-.45c0,.06,0,.11,0,.16l-4-.56s0-.1,0-.15l-1.63-.17h-.15c0-.05,0-.11,0-.16l-2.08-.21c0-.06,0-.11,0-.16l-1.39,0v0l-.22-.07a.83.83,0,0,0,0,.15l-.29-.08a.66.66,0,0,0,0,.15l-.58-.17c0,.05,0,.1,0,.15l-.86-.26s0,.1,0,.16c-.2,0-.4,0-.61,0,0,.05,0,.09,0,.15L36.17,174a.83.83,0,0,1,0,.15,17.9,17.9,0,0,0-1.77-.36s0-.11,0-.16h-.14a.88.88,0,0,0,0,.16l-.59-.07s0,.1,0,.15l-.75-.09c0,.06,0,.11,0,.16l-1.06,0c0,.05,0,.11,0,.16l-.42-.22-.15,0c0,.06,0,.11,0,.16l-1.32-.32s0-.1,0-.15l-.3,0-.12-.34-.59-.07a1,1,0,0,1,0-.16l-3.12-.37c0-.06,0-.11,0-.16l-.74-.09s0-.1,0-.16c-.43-.25-.42-.11-.89-.11l-.21.62.78,1.22.57.24c0,.05,0,.1,0,.15l.87.27a.78.78,0,0,1,0,.16l.45,0c0,.05,0,.11,0,.16L27,175c0,.06,0,.11,0,.16l2.4.13c0,.05,0,.11,0,.16l.45.05a1,1,0,0,0,0,.17l.3,0c0,.05,0,.1,0,.16.45.22,1.11-.1,1.37-.16l2.84.18a.88.88,0,0,1,0-.16c.19,0,.67.25.86.3a.83.83,0,0,0,0-.15l1.44.44a1.24,1.24,0,0,0,0-.16l.29.09a.83.83,0,0,0,0-.15l1.15.34c0-.05,0-.1,0-.15l1.19.19a.83.83,0,0,0,0-.15l.44.13a.94.94,0,0,1,0-.16c.19.07.38.12.57.18,0-.05,0-.1,0-.16l.29.09c0-.05,0-.1,0-.15l.44.13a.83.83,0,0,1,0-.15l.35.11v0l.83.19s0-.1,0-.15l.14.05v0l3,.45a.86.86,0,0,1,0,.16l1.93.19a.81.81,0,0,1,0,.16l2.68.27c0,.05,0,.1,0,.16l2.24.06a24.32,24.32,0,0,0,6,0l1.63.32a.81.81,0,0,1,0-.16l1,.11c0-.06,0-.12,0-.16.92-.19,1.92.33,2.66.42l1.49.15s.06-.2.31-.13a9.1,9.1,0,0,0,3,0s0-.11,0-.16c.24,0,.24.18.28.19h1.5c0,.05,0,.11,0,.16l.59.06s0-.11,0-.16l.29,0c0-.05,0-.11,0-.16l2.07.37a1,1,0,0,1,0-.17l1.18.12a.77.77,0,0,1,0-.15l.59.05c0-.05,0-.1,0-.16l.74.08s0-.11,0-.16l.6.06v-.16l.45.05c0-.06,0-.11,0-.16l.6.05c0-.05,0-.1,0-.16.35,0,.7.51,1,.54,0,0,0-.11,0-.16l.45.05c0-.05,0-.11,0-.16.79.08,1.59.15,2.38.24,0-.06,0-.11,0-.16l.44,0s0-.1,0-.15c.7,0,1.4.46,2.1.48,0-.06,0-.11,0-.16l.59.06c0-.06,0-.11,0-.17l2.54.1c0-.05,0-.11,0-.16l.59.06s0-.11,0-.16l1.49.14a.81.81,0,0,1,0-.15l.45.05a.81.81,0,0,1,0-.16l.61-.11c0-.05,0-.1,0-.16l1.64.17h1.65s0-.1,0-.16l1.49.15c0-.05,0-.11,0-.16l.29,0c0-.06,0-.11,0-.16l1.34.13c0-.05,0-.1,0-.15l.45,0c0-.06,0-.11,0-.16l.75.07s0-.1,0-.15l1.35,0c0-.05,0-.11,0-.16l.45,0v0l.29,0c0,.05,0,.1,0,.15l.75.06a.76.76,0,0,1,0-.15l1.19.08c0-.05,0-.1,0-.15l.89.06a.86.86,0,0,0,0-.16l.3,0a.76.76,0,0,0,0-.15l1.49.27a.81.81,0,0,1,0-.16l.44,0a.86.86,0,0,0,0-.16l.6.05c0-.05,0-.11,0-.16l1.64.12s0-.21.31-.14a.41.41,0,0,0,.44.2s0-.1,0-.16l1.65,0c0-.05,0-.1,0-.15l1,.07s0-.1,0-.16l.3,0a.86.86,0,0,0,0-.16l1.2.09a.81.81,0,0,1,0-.16l.59,0a.81.81,0,0,0,0-.16l.9.07s0-.1,0-.16l1.79.14a.81.81,0,0,1,0-.16l.59,0a.86.86,0,0,0,0-.16l2,.15a.81.81,0,0,1,0-.16l.44,0a1,1,0,0,0,0-.17.39.39,0,0,1,.44.2l.74.06c0-.06,0-.12,0-.17l1.78.14a.86.86,0,0,0,0-.16l.45,0a.81.81,0,0,0,0-.16l.45,0a.86.86,0,0,0,0-.16l.45,0s0-.1,0-.16l.89.07a.86.86,0,0,1,0,.16c.3.07.31-.14.31-.14l2.24.17a2.91,2.91,0,0,1,.17-.3c.8-.06,1.61-.1,2.41-.14,0-.06,0-.11,0-.17l.45,0a.86.86,0,0,1,0-.16l1.05-.08c0-.05,0-.11,0-.16l.3,0s0-.1,0-.16l2.24.17c.24.1.72.5,1.17.41,0-.05,0-.1,0-.16l1.5,0,.17-.31,1.2.09a.81.81,0,0,0,0,.16l1.34-.06s0-.1,0-.16l.29,0c0-.05,0-.1,0-.16l.59,0,.33-.46.45,0c0-.06,0-.11,0-.16l3.14.07a.81.81,0,0,0,0-.16l.3,0,.33-.45,1.07-.24.17-.31.29,0c0-.06,0-.12,0-.17l.62-.43c.1-.38.48-.8.39-1.26Z"/><path class="cls-1" d="M107.11,171.47h-.3l-.06-.14-.44-.16-.07-.38-.13,0v-.5h-.17l-.14-.62h-.12v-.46h-.14l.13-1.59h.15v-.46L106,167v-3.24a1.35,1.35,0,0,1,.08-.3,1.28,1.28,0,0,0,.06-.82l0-.09H106v-.46h-.12l.12-.94-.15-2.77h-.13V156.2h-.15v-.46h-.12l.14-.92h-.18l-.14-1.08h-.14c0-.38-.09-.75-.14-1.12l-.46-.39,0-.21v-.13h-.14v-1.08h-.14v-.25l-.14-.12a.59.59,0,0,1-.17-.18l-.05-.1-.5.18a7.42,7.42,0,0,0-.25,3.1.46.46,0,0,1,.16.3h-.16V155H103v2.42h.11L103,158h.18v2.93h.14V162h.15v1.7h.14v3.85h.13l.08.4.22,1.8a2.27,2.27,0,0,1-.25.49,2.5,2.5,0,0,0-.32.7l-.62,0v-.13h-.41a1.07,1.07,0,0,0-.19-.15,2.28,2.28,0,0,0-1-.52h.45v-.72H101v.72a.83.83,0,0,0-.21.06l-.05,0-.16.35-.52,0-.36.06v.16h-.1a1.85,1.85,0,0,1-.54-.11,1,1,0,0,0-.34-.08l-.09,0-.08.11v0h-.1a1.43,1.43,0,0,0,.2-.79L98,169.5l0-.06v-.13h-.41l0-.23-.41-.06v0l-.13-.15H96.9v-.15h-.41l0-.24a7.77,7.77,0,0,0-.93-.37l.08,0v-.11l-.86-.15v-.17h-.41l0-.24-.94-.37-.1-.21-.12-.2-.71-.19v-.18h-.28v-.13l-.58-.15v-.18h-.43l-.12-.16h-.17v-.15h-.41l0-.24c-.58-.16-1.08-.26-1.57-.35v-.18h-.41l0-.23-.27-.05v-.17L87,164.09v-.17h-.4v-.18l0-.07-.1-.06-2.1-.16,0,.09a2.69,2.69,0,0,0-.16,1l.25.27.37.3,0,.2.23.21.14.4.08.45h.12v.18l.17.19.46.37.09.23.13.11h.28l0,.24.39.07.3.45.33.43,1.35.5v.13l0,0H89v.12l.58.16v.18H90l.12.16h.32V170H91v.15h.72v.16h.43v.14l1.15.15v.18l1.73-.16v.15H97.8l.13.15h.36l-.18.28-.62-.07h-.12v.16l-1.78.13-.11-.14h-1v-.15h-.29V171h-.43v-.16l-2.3.15v-.14h-.29v-.16h-.86l-.13-.15h-.3v-.16h-.29l-.13-.15h-.31v-.13l-1.29-.31v-.18h-.41l0-.23-.4-.08,0-.24-.42-.15-.23-.06v-.09l-.08-.15-.93-.38-.07-.24-.4-.07-.2-.27,0-.22-.2-.19-.15-.08a1.34,1.34,0,0,1-.11-.36c-.07-.26-.13-.42-.63-.57l-.21-.84-.13-.05V165h-.15v-.33l-.27-.29-.35-.28-.07-1.43,0-.33a2,2,0,0,0,.57-1h0c.19,0,.25-.05.43-.19l0,0,.05-.11v-.15l.89,0a5.92,5.92,0,0,0,2.12,1.39l1,.16,0,.16.15.24.65.16.3.05,0,.24.83.07h.12l0-.13.07-.05a5.61,5.61,0,0,0-.26-1.4l-.47-.35.05-.51v-.14H89l0-.61h-.14v-.46h-.15V159h-.14v-.31h-.16l-.14-1.54h-.13v-.31H88v-.64a7.86,7.86,0,0,1-.28-3.06h0A.59.59,0,0,0,88,153a1.73,1.73,0,0,1,1.06-.39s0,.11.1.11l.23.23.14.22.12,0v.2l.25.22,0,.09.49.42-.06.2.21.19.15.08-.07.19v.07l.48.35,0,.2.35.27-.06.19L93,157.51l.41.74.39.07.72,1.19.19.29.67.06h.14l-.16-2h-.26l0-.45-.12-.39-.14,0v-2.38l-.09-.3a3.85,3.85,0,0,1-.23-1.88h.17V152h.15v-.46h.14v-1.85H95v-.6h.14l.12-.08a.52.52,0,0,0,.12-.37h0l.22-.05a.58.58,0,0,1,.42-.17,2.72,2.72,0,0,1,.62.12l.19,0a1.45,1.45,0,0,0,.3.82,2.27,2.27,0,0,1,.19.34v.38h.17l.12.67.39.32,0,.27v.13h.17l.14.62h.12v.46h.15v.49l.21.19.15.08.22,1,.48.38,0,.21.09.43H100v.33a11.46,11.46,0,0,0,1.22,2.58l.89,0v-.12a4.56,4.56,0,0,1,.08-.57,4.66,4.66,0,0,0,.06-1.79l0-.1h-.11v-.51h.14v-3.86h.16l-.14-1.23h.13v-1.8h-.17l-.1-.51.23-.46.17-.55.09,0a1.14,1.14,0,0,0,.28-.07,2.71,2.71,0,0,1,1-.17l0,.15.15.25a3,3,0,0,0,.5.21l.06.52,0,.06.33.18-.07.19.36.27-.06.19v.14h.17l.14.61h.12v.46h.12l0,.18v.13h.16l.15.93h.12v.3h.15v1.7h.14v.31h.16l.15,1.08h.1l0,.33v.13H107l.14,2.81-.17,1.05h.2c.09.37.16.41.52.45h.08l.18-.06a.87.87,0,0,1,.25-.26l0-1.37h0l.27-.59.13-.42,0,.09h.12v-.31H109v-.77h.14v-.46l.14-.13v-1.11h.15v-.31h.14v-.46h.15v-1.52c0-.09.09-.23.15-.37a4.26,4.26,0,0,0,.27-.83,2.15,2.15,0,0,0,.7-.56,10.66,10.66,0,0,1,1.46.2l.31.52.34.5.11,2h-.13v1.18h.14v.31h.12l-.11,1.74h-.14l-.17,2.12h.16v.51h-.15v.46h-.16l.18,1.37.71-.19.19-.46h.19v-.31H114v-.43l.33-.24.49-.44,0-.4H115l.07,0,.09-.13v-.31h.1l.42-.35.2-.56.27-.89h.11l.07,0,.12-.15v-.16l.22,0,.07-.43.37-.2.06-.42.22,0,.07-.43.69-.84.19,0h.13v-.16h.28v-.15h.43v-.13c.3-.32.31-.32.89-.33,0,.08.13.22.25.32l.06.47v.13h.16l.14.93h.12l-.13,2-.07,0-.15.08,0,.3h-.16v1.05l-.07-.05-.15.09-.05.3h-.17v.9l-.37.19a1,1,0,0,0-.13.64,1,1,0,0,1-.06.5l-.26.18-.32.26-.15.82-.22.07-.07.42a8.23,8.23,0,0,1-.61.68,3.2,3.2,0,0,0-.94,1.35h-.2a2.64,2.64,0,0,1-.78.94l-.06.27v.13h.53v-.15h.72v-.13l.31,0h.12V165h.43v-.13a.32.32,0,0,1,.27-.09h.24a.72.72,0,0,0,.44-.12l.06-.26.06.07.29-.1.19-.26.16-.26.33.06h.12v-.15h.29v-.14l.17,0,.5-.56.31-.41.2,0h.12v-.16h.29v-.13l.3,0,.53-.67.19.05.26-.38,1.33.07c0,.1.2.3.39.48l.22.22,0,1.62h.27a3,3,0,0,1-.26,1.36l0-.08h-.12v.93l-.14.13v.33h-.15V167l-.67.51-.05.41-.2.12-.49.42-.16.33-.18-.07-1.1,1.28-.79.11-.2.25-.17.27-.33-.06h-.12v.13l-.16,0h-.13v.16h-.43V171l-1.48.13V171h-1.25v.16h0a3.7,3.7,0,0,1-.65.05,8.68,8.68,0,0,1-.9-.06,7.39,7.39,0,0,0-.78-.06,2.34,2.34,0,0,0-.57.07l-1.68-.17v.17h-.43v.15h-1.87v.13l-1.48-.13-.15.05a8.85,8.85,0,0,1-1,.27Zm4.51-1.3.1,0a5.77,5.77,0,0,0,1.24.11c.4,0,.82,0,1.24-.05s.93-.06,1.43-.06h2.13V170h.46l.25-.37.18.06h.12v-.15h.87v-.14l.16,0h.12v-.17l.77-.14.61-.7.61-.73.7-.6.08-.25.11-.44a1.24,1.24,0,0,0,.36-.22,5.31,5.31,0,0,0,.36-1.32l0-.16h-.2l-.14-.62h-.4a2.1,2.1,0,0,0-1.65.5l-.31.48-.33-.05h-.12v.15h-.17l-.17.22-.08.16-.18-.07h-.12v.15h-.29v.14l-.31,0-.19.25-.23.11-.56.12v.14h-.39l-.18.38-.32-.07h-.12v.13l-.17,0h-.12V167l-.57.15v.15l-.87.15v.17l-.57.15v.1l-.31,0h-.13v.28h0a2.18,2.18,0,0,0-.78.19l-.08,0v.11h-.29v.19l-.46.12-.11.13-.62.19a1.09,1.09,0,0,0-.23.38l0-.08h-.12ZM101,168.1l.55.08a2,2,0,0,0,.1-1.72c0-.14-.09-.28-.13-.44l.2-.56h-.2v-.31h-.16l-.14-1.23h-.13v-.77h-.14v-.47h-.15v-.31h-.12l0-1.23h-.14v-1.08h-.15v-.46h-.17L100,159h-.12v-.92h-.15v-.32h-.14v-.17L99,157l0-.51v-.13h-.15v-.46h-.14v-.31h-.15v-.18l-.48-.42-.11-.45-.13-.41-.48-.37,0-.2v-.08l-.35-.19V153l-.08-.42-.35-.19c-.05-.06-.09-.14-.13-.19-.16-.23-.23-.25-.78-.28h-.09l0,.09a6.76,6.76,0,0,0-.15,1.88,1.7,1.7,0,0,1,.22,1.14,3.64,3.64,0,0,0,.08,1.07l0,.1h.09l-.14.92h.16v.46h.18l.14.62h.1v.62h.15V159l.36.19-.07.19.22.2.14.07-.07.19V160h.14v.47h.12l0,.33v.13h.15v.31h.14v.17l.36.28.08.53v.06l.34.18-.07.35.25.21,0,.25v.13h.14v.92H99l.15.62h.12v.18l.27.22.15.52.06.14.43.31.1.54.24.18,0,.24v.14h.14v.31h.18Zm-5.77-1.94.67.17,0,.13,0,.06.11.12,1.39.34.41-.91h-.24a1.63,1.63,0,0,0-.49-.7,1.74,1.74,0,0,1-.36-.45l-.28-1.36-.5-.44-.12-.1,0-.2-.36-.28.07-.19-.46-.43-.16-.14,0-.2-.21-.19-.15-.08.07-.19-.42-.44-.49-.44,0-.2-.51-.28-.08-.25-.39-.07,0-.23-.9-.82-.11-.4-.67-.66-.51-.48,0-.11-.08-.16-.42-.18-.67-.25v.25l-.47.16.91,2.75v.55H90l0,.18v.13h.16l.28,1.74.33.29.15.11,0,.19.24.25.24.17,0,.2v.13h.16l.15.77h.24l0,.24.39.07.06.2.13.21.39.06L93,165l.1.17.27,0v0l.42.25.53.18-.08,0v.11l1,.15Zm12.94-.26,1-.18.24-.55.23-.07.07-.43.07,0,.15-.08,0-.3h.17V164l.14-.12v-.34h.14v-.31h.13l.14-.77h.15l.14-1.08h.17v-.62l.14-.13v-1h.11l.15-.61h0a8.2,8.2,0,0,0,0-3.24l.16-.88.13-.77c-.19-.23-.26-.34-.34-.45a1,1,0,0,0-.61-.47l-.15-.05v.2h-.13l-.15,1.08h-.15v.31h-.15v.61H110v.47l-.13.13v.17h-.15v1.08h-.12l-.14.62h-.17v1.39h-.15v.62H109v.3l-.14.13v.95h-.15v.47h-.14V163h-.15v.47h-.13Zm5.49-2.78h-.16l-.36.32a1.38,1.38,0,0,0-.49,1.21,2.08,2.08,0,0,1,.28.34l0,.09h.11l.16,0,.12-.12a2.06,2.06,0,0,0,1.07-.64l.12-.24.22,0,.82-1,.19-.05.27-.09v-.41l.07,0,.15-.07,0-.3h.16v-.44l.25-.21,0-.4L117,161l.16-.12,0-.41.25-.22,0-.27h0l.14-.13v-.18h.14v-.31h.15V159l.07,0,.15-.08.05-.6h.14l.16-.72.25-.13.13-.1a1.76,1.76,0,0,0,.09-1.3l0-.32h-.1l-.32,0-.26,0a.67.67,0,0,0-.52.27.7.7,0,0,0-.27.68.73.73,0,0,1-.05.44h-.12l0,.05v.3l-.38.2,0,.42-.38.2-.16.45-.17.54-.83.72,0,.4-.22,0-.07,0v.23l-.22,0-.07.43-.25.21,0,.27h0l-.14.13V162l-.23.1-.15.1,0,.29h-.16Z"/><path class="cls-1" d="M187.19,123.27l-.63-.81.06-.71h-.12l0-.24-.14,0,0-.23-.19,0,.05-.71h-.13l-.06-.74h-.12l0-.24h-.12l0-.37h-.14l0-.22-.07-.26-.12-.07h-.08l0-.33a.4.4,0,0,0-.15-.07s0,0,0,0l0-.34h-.11l0-.25H185l0-.36h-.1l0,.06-.28-.82h0l0-.24h-.13l0-.25h-.13l0-.2-.07-.4-.26-.2h-.06l0-.33h-.14l-.08-.63h-.1V114l-.12,0v-.11l-.25,0v-.13l-.48,0v-.12l-.27,0,0-.12-.26-.11-.09-.07-.14-.23h-.16v-.12l-.24,0v-.12l-.4,0-.16-.25h-.19l-.27-.4-.76,0v-.13h-.1l-.16,0-.11-.21-.18-.23-.17,0,0-.11-.14-.2-1.13-.09V111l-.07,0-.19,0a6.42,6.42,0,0,0-2,.32v0l-1.16,0-1.28,0,0,.19-1.43-.25v.13l-.48,0v.12l-.25,0v.12l-.37,0v.15h-.21a4,4,0,0,1-.9-.24l-2.23-.17v-.13l-1.22,0v-.11l-1-.08v-.13l-.37,0v-.12l-.24,0v-.11l-.85-.19v-.13l-1.09-.2v-.14h-.09l-.16,0-.05-.12-.14-.2h-.15v-.12l-.61,0v-.12l-.24,0v-.12l-.49,0v-.12l-.86-.07v-.12h-.09l-.17,0-.28-.43-1-.19v-.13h-.1l-.16,0-.13-.31h-.06l-.16,0-.18-.31-.27,0v-.13l-.37,0v-.11l-.37,0v-.13h-.62a1,1,0,0,0-.18-.3l-.15,0v-.12l-.25,0v-.12l-.8-.06a8.4,8.4,0,0,1-.89-.46c-.26-.15-.51-.29-.77-.41s-.52-.11-.73-.13H152l-.18-.31-.17,0-.19-.27-.33-.42H151v-.1l-.06,0a.55.55,0,0,0-.22-.07h-.08a1.23,1.23,0,0,1,.34-.86l.22,0v-.1l0-.2.21-.14,0-.15h.12l0-.27h.11l.19-.24v-.07l.7-.08v-.13l.5-.09v-.1l.49,0v-.12l.36,0v-.13l1.11,0v-.12l2.81.1v-.12l.49,0v-.12l.49,0v-.11l1.79.13c.24,0,.83,0,1.35,0,.21,0,.38,0,.51,0a.35.35,0,0,0,.19,0v.22h.24V102l.85.06v.12l2.43.31v.13l.37,0v.12l.48,0v.11l1.09.21v.13l.73.05v.12l2.54.44V104h.1l.16,0,.16.32.53.15v.14l.37,0v.13l.24,0v.12l1.1.08V105l.27,0,0,.12a1.64,1.64,0,0,0,.51.18l.3,0a.34.34,0,0,0,.1,0l0,.22.24,0v.1l1.2.34v.14l.24,0v.12h.09l.16,0,.12.3h.06l.17,0,.05.13.13.19.18,0,.29.3h.15v.12l.24,0v.12h.09l.16,0,.13.29.22.17a5.53,5.53,0,0,1,1.54,1.58l.83.06.07-.92h-.12l0-.24h-.13l0-.4,0-.07,0,0-.16,0v-.32l-.24-.21-.19-.12,0-.46h-.13l0-.24h-.09l0,.07c-.13-.5-.25-1-.41-1.56a.83.83,0,0,0-.31-.19l0-.24-.07-.11,0,0-.11,0-.23-.81a.33.33,0,0,0-.15-.07s0,0-.05,0l0-.34h-.1l0,.06-.18-.71-.14-.48-.13-.07-.06,0,0-.34-.19-.07,0-.38-.08-.31-.19,0,0-.34H178l0-.37h-.12l0-.25h-.12l0-.24h-.1l-.07,0-.15-.21h-.15v-.15l-.93.09v.11l-.68,0-.07.06,0,0s-.06.09-.35.19a1.71,1.71,0,0,1-.32.51l-.18.21a1.5,1.5,0,0,1-.56-.47l-.12-.12-.19-.31-.27,0v-.1l-.47-.16V99l-.74,0v-.12l-1.34-.23v-.1l-.06,0a1.22,1.22,0,0,0-.26-.06,1.62,1.62,0,0,0-.68.14l-.2.07-1.2-.1v.13l-1.48-.12c-.36,0-.72,0-1,0s-.62,0-.91,0a3,3,0,0,1-.85-.17l-.88-.07v-.12l-.25,0V98l-.84-.18v-.14l-.37,0v-.11l-1-.2,0-.13-.25,0v-.12l-.36,0v-.11l-1.69-.26v-.13l-.24,0v-.12h-.27l-.17-.28-.52,0v-.12l-.36,0V95.8l-.86-.17-.17-.29h-.18l-.29-.29h-.16v-.12l-.24,0v-.12l-.36,0v0l0-.09-.06,0-.25,0,0-.33h-.09a5.79,5.79,0,0,1-1.11-.36l0-.21-.49,0v-.11l-.29-.09-.2,0-.05-.12-.14-.2-.17,0-.29-.43-.16,0a1.11,1.11,0,0,0-.16-.3l-.22-.1-.08,0,0-.21h-.09l-.16,0-.05-.11-.14-.21h-.2l-.24-.2a.82.82,0,0,0-.52-.29h0a.91.91,0,0,0-.53-.72.24.24,0,0,0-.11-.06s0,0,0,0l0-.23h-.1l-.23-.06s-.07-.12-.12-.12h0l0-.31.26-.16v-.17h.11l.22-.31.56-.1V89l.73,0V89l.36,0v-.12l.37,0v-.13l.37,0v-.12l1.1.09v-.13l.86.07v-.12l1.22.1v-.13l2.07.16V88.6l1.88.15v.12l.25,0V89l.36,0v.12l1.1.09v.12l.25,0v.12l1,.08v.1l.48.16,0,.14.49,0v.12l.73.06v.1l.48.16v.12l.07,0c.41.12.83.22,1.25.33v.13l.48.15,0,.15.37,0v.13h.24v.11l.72.18v0l0,.09.43.15v.14l.36,0v.12l.25,0v.12l.49,0v.12h.39a8.82,8.82,0,0,0,.62.81l.27,0v.12l.37,0v.12l.24,0v.1l.36.1.26.06.17.29.17,0,.23.33L172,95l.16,0,.18.31.17,0,.23.4.79.79.73,1h.15v.12h.1l.16,0,.12.27,0,0a.6.6,0,0,0,.24.11c.07,0,.11,0,.27.19.75.06.85,0,1-.24l.34-.39-.3-1.23-.16-.35h-.19a1.49,1.49,0,0,1-.16-.47,2.3,2.3,0,0,0-.11-.38l-.09-.08-.25-.14,0-.34-.18-.07,0-.2-.09-.35-.2-.17-.11,0-.11-.55-.43-.36-.11-.47-.19-.83-.23-.19-.2-.16-.2-.82h-.12V90L173,90l0-.25-.08-.1-.05,0h-.11l0-.46h-.1l0,.07-.14-.44-.12-.07h-.07l0-.26-.07-.29c-.26-.27-.54-.54-.86-.83l-.39,0v-.12l-.37,0c-.7-.06-1.1,0-1.37.51l-1.86,0v-.12l-.49,0v-.12l-1.34-.1V87.1l-1.34-.1v-.12l-1.47-.11v-.13l-.49,0,0-.13-.74,0V86.3l-1-.07v-.12l-.85-.07v-.12l-.49,0v-.12l-1.09-.09v-.09l-.47-.17v0l-.08-.1L157,85.1V85l-.24,0v-.12l-.74-.06v-.12l-.24,0V84.5h-.09l-.29,0-.18-.32h-.15v-.11l-.09,0c-.39-.07-.78-.14-1.12-.17h0l-.15-.26-.14-.17h-.15v-.13l-1-.08v-.11l-.37,0V83l-.48-.16v-.14l-.56-.11-.42,0-.15-.3-.18-.08-.12,0,0-.22h-.1l-.29,0-.13-.22-.24-.34-.5-.21-.51-.14,0-.22-.25,0v-.12h-.09l-.17,0a.87.87,0,0,0-.18-.31l-.16,0-.12-.29L147,80l0-.12a1.13,1.13,0,0,1-.42-.69l-.17-.36h0l.1-.34,0-.08a1.08,1.08,0,0,0,.73-.28,3.17,3.17,0,0,0,.25-.23v0l.49,0v-.12l.24,0V77.7l.16,0,.46-.09.05-.19.39,0a.2.2,0,0,0,.11-.06.39.39,0,0,0,.24.11h.12l.08,0v-.11h1.35v-.11l3.46.38v.13l.49,0v.12l.31,0v-.1l.54.13v.14l.73,0v.12l1.09.2v.14l1,.07v.12l.37,0v.12l.49,0v.12l.73.06v.12l.37,0v.12l.36,0v.12l.37,0v.13l.76.06,0,.11.31.13.35.08,0,.22.73,0v.11l.73.18,0,.11.48.16v.14l.72.17v.12l.27.09.23,0a2.7,2.7,0,0,0,.27.43l.27.1.15,0,0,.11.13.19.21.07.08.18.68.65a7.69,7.69,0,0,0,.62.82l.17,0a2.33,2.33,0,0,0,.29.44H169v.1l.6.17v.15h.1a2.14,2.14,0,0,0,.77-.07l.08,0-.2-.94-.13-.45-.1-.06-.09,0-.13-.56-.19,0,0-.34h-.12l0-.24h-.14v-.36l-.19-.06V81.4l-.21-.19,0-.34h-.12l0-.25h-.12l0-.25h-.13v-.21l-.2-.2,0-.33-.19-.08-.09-.54,0,0-.18,0v-.31l-.2-.2,0-.34h-.14l0-.24a.42.42,0,0,0-.15-.06h0l0-.42-.59-.94-1.16-.53h-.09l-.06-.13-.13-.18-.16,0-.12-.3-.57-.16V75l-1.55.16v.12H163a.7.7,0,0,1-.46-.25,1,1,0,0,0-.26-.19,1.45,1.45,0,0,0-.33-.08,1.64,1.64,0,0,0-.91.2v0l-.79-.06v-.14l-1.54,0v.09l-.6-.16v.11l.06,0-.8.23-.2.31h-1.68v.11l-.37,0v.13l-1.82-.14v.1l-1-.19v.13l-1.64-.13v-.12l-.49,0V75.1l-.36,0V75l-1.2-.22v-.13l-.24,0v-.12h-.1l-.19,0-.15-.22-.88-.07V74l-.48-.16v-.14l-1-.08v-.1l-.07,0-.42-.1-.06-.15-.13-.17h-.15V73l-.6,0v0l-.06-.09-.65-.28v-.14h-.09l-.17,0-.15-.31a4.58,4.58,0,0,0-.66-.24l-.12-.29-.18-.19a2.19,2.19,0,0,0-1-.76l0-.44h.09l0-.06c0-.06.08-.21.11-.22a.38.38,0,0,0,.28-.1l.07-.12,0-.07.24,0,.11-.08,0,0c.07-.08.14-.18.13-.23l.34,0v-.11h.24v-.12l.61,0V69l.5-.09v-.12l1.24-.15v-.1l.37,0v-.15l.5-.08v-.1l.6,0v-.12l.49,0v-.12l2.25.18v.12l.61,0a8.85,8.85,0,0,1,2.06-.09l.36,0,1.2.23v-.15h1.16v.1l.72.18v.13h.09c.81.1,1.62.21,2.36.26l.3.44.63,0v.12l.36,0v.12l.25,0V70h.1l.16,0,.05.13.13.18h.15v.11l.74.16a4.1,4.1,0,0,0,.29.42l.17,0,.18.32h.2l.22.16a1.33,1.33,0,0,0,.68.34.85.85,0,0,0,.76.79,1,1,0,0,1,.56.29l.1.2a.4.4,0,0,0,.15.07l0,0v.31c.13.18.41.29.9.35h.09l0-.09a1.41,1.41,0,0,1,.1-.34.37.37,0,0,0,.05-.15V73.1l-.14,0c-.07-.39-.14-.46-.33-.58l-.22-.15-.22-.38-.1-.08-.12,0-.1-.58H164V70.8a2.73,2.73,0,0,0-.3-.22,4.45,4.45,0,0,0-.14-.55.53.53,0,0,0-.14-.08l0,0,0-.33-.19,0,0-.34h-.14l0-.24-.19-.08-.06-.24-.06-.19-.43-.34c0-.17-.06-.34-.12-.56l-.22-.18h-.09l0-.34h-.13v-.23l-.23-.2-.2-.16-.11-.54-.26-.23-.17-.09,0-.24-.09-.11-.06,0-.22-.08-.46-.67a2.77,2.77,0,0,0-.34-.22,1.29,1.29,0,0,1-.51-.47,1.61,1.61,0,0,1-.37-.12l-.11,0h-.1v.12l-.58,0-.95.73,0,.17h-.1a.8.8,0,0,0-.12.18,1.49,1.49,0,0,1-.17.23v.14l-3.28-.5v.13l-.24,0v.12l-.74-.06V65l-1.71-.13V65l-.37,0v.12l-.49,0v.1l-.73-.17v.13l-.54,0v-.12l-1.34-.1v-.13l-.37,0v-.13l-.24,0v-.12l-.61,0v-.12l-.85-.06V64H145l-.28,0a.73.73,0,0,0-.18-.31l-.15,0v-.12l-.49,0v-.12l-.24,0v-.12l-.6-.05v-.12L141.61,63V62.9l-.49,0v-.13l-.36,0v-.1l-.85-.19v-.13l-.24,0v-.1l-1.68-.5v-.12l-.48-.16v-.14h-.1l-.16,0-.1-.25-.1-.06-.5-.11-.12-.29-.7-.26-.15-.31-1.37-.51,0-.2-.32-.25a1.09,1.09,0,0,1-.12-.36.8.8,0,0,0-.27-.51c.34-.79,1.39-.74,2.5-.69a6.8,6.8,0,0,0,1.77-.07l.54-.14c.44-.12.91-.25,1.31-.33l2.57.2,2.34.06v.12l.37,0v.12l.8.07v-.12l1,.19v.12l.25,0v.13l1.21.09v.12l.36,0v.13l1.22.09v.12l.37,0v.12h.1l.56.08.15.22.16,0,.12.31h.21v.13l.85.06v.12l.49,0,0,.12.25,0v.12l.49,0V60h.09l.17,0,.16.3.38.11.2.09.14.23.17,0,.18.31.17,0,0,.11a1.05,1.05,0,0,0,.43.27l0,.25a.29.29,0,0,0,.15.07h.05l0,.21H156a.77.77,0,0,1,.19.32.68.68,0,0,0,.45.47v.05l.08.09.07,0a1.36,1.36,0,0,0,.67-.28l.13-.08v-.06l1.21.21,0-.13h0l.1,0v-.1a2.39,2.39,0,0,0-.18-1.41l-.24-.18h-.07l0-.33-.19-.05,0-.34h-.12v-.24h-.09l0,0-.11-.28-.19-.17-.26-.21-.05-.11-.11-.19-.25-.11-.05,0,0-.32-.07,0a1,1,0,0,1-.27-.13.34.34,0,0,0-.19-.09h-.07a1.64,1.64,0,0,0-.53-.92l-.13-.13-.18-.32-.17,0-.26-.42-.32-.12-.19-.3-.17-.24-.19,0v-.32l-.36-.34-.18-.12,0-.22h-.1l-.15.06-.12-.43c-.27-.26-.54-.52-.77-.72l0-.32-.33-.26-.11-.14a8.61,8.61,0,0,1-1.06-1.45l-.17,0a.8.8,0,0,0-.32-.49l-.09-.07h0v-.12l-.1-.12-.26-.1v-.25l-.76-.75c0-.15,0-.31-.06-.47l-.08-.22-.3-.09-.05-.21-.08-.21a.76.76,0,0,0-.3-.19l0-.33-.19-.06,0-.33-.54-.33,0-.33-.19-.07,0-.21-.09-.36-.19,0v-.32L147,45.6l-.32-.25,0-.24-.05-.1-.06,0-.13,0,0-.29-.08-.28L146,44.2l0-.33-.2-.06,0-.34h-.13v-.21l-.2-.2,0-.32-.32-.29-.06-.74H145v-.15l-.07-.11-.05,0-.11,0-.07-.27-.21-.55h0l0-.28-.06-.32-.18-.14-.13,0,0-.46h-.14l-.08-.5h-.12l0-.24-.12-.07-.07,0,0-.46h-.12v-.24h-.14l-.08-.5h-.11l0-.36-.14-.07s0,0-.05,0l0-.34h-.12l0-.49h-.1l0,.07,0-.17-.23-.66h0l0-.36-.12,0,0-.24h-.13v-.23l-.32-.28-.11,0,.06-.71h-.13l0-.36h-.12l0-.24h-.12l0-.37h-.12l0-.66a6.08,6.08,0,0,1-.09-.76,2.06,2.06,0,0,0-.36-1.34,2.24,2.24,0,0,1,.25-1,6.07,6.07,0,0,1,.94,0,3,3,0,0,1,1.73.68l.14.24.16.19h.17a.82.82,0,0,0,.17.28l.17,0,.21.32.16.23.51.22.16,0,.18.3.27,0v.13h.1l.16,0,.23.41h0a2.28,2.28,0,0,0,.46.27.85.85,0,0,1,.59.68,1.78,1.78,0,0,1,.41.19l0,.21h.09l.17,0,.05.13.14.19.16-.05.06.15.12.17.17,0,.29.43.16,0,0,.12.14.19.17,0,.47.69h0l.16,0,.12.42.37.36.37.33.17,0a2.58,2.58,0,0,0,.77,1.15l.22.22.05.13.13.18.18,0,.29.39.54.7.28.16v.33l.32.21c0,.17.05.34.08.5l.07.09,0,0,.26.14v.31l.2.2v.32l.18.16.25.17,0,.33.18.07,0,.31.08.37.23.18h.08l0,.33.2.06,0,.46h.12l0,.24h.14v.23l.19.15.11,0,0,.33.19.08.14.83.08.23.19.08a4.43,4.43,0,0,0,.12.56l.19,0,0,.34h.13l.06.86h.13l.26.76h0l-.09,1.1h.1l0,0,.12.47.2.11a.6.6,0,0,1,0,.38,1.44,1.44,0,0,0,0,.46l0,.06H159l.12,1.6h.11l0,.25h.12l-.07,1h.12l-.07.85h.13l0,.36h.14a2.6,2.6,0,0,1-.79,2.06,1.75,1.75,0,0,0,.2,1.2.29.29,0,0,0,.15.07,0,0,0,0,0,0,0l0,.34h.12l0,.25h.13v.22l.2.19,0,.32c.11.09.22.19.31.19l0,.34h.11l0,.25H160v.47l.1.08.21.11,0,.33.1.06h.09l0,.24.07.11,0,0h.11l0,.34h.09l.05,0a1,1,0,0,0,.17.41l.45,0,0-.09a15.17,15.17,0,0,0,.05-5.41V56.5l-.44-.38a3.8,3.8,0,0,1-.38-1.48c0-.16-.08-.56-.08-.56h-.07a1.42,1.42,0,0,0,.15-.78v-.07h-.1l0-.37h-.12l.38-3.51.14-.06.12-1.53h-.14a2.28,2.28,0,0,1,.15-.87c0-.09.06-.17.08-.25l0-.7h-.14a1.37,1.37,0,0,1,.22-.74,1,1,0,0,0,.12-.25l0-.51h.13l0-.37h.13l0-.24H162l0-.37h.13l0-.36h.12V43l0-.17.24-.13.2-.16V42.4h.11l.24-1.47h.11l.24-.27.09-.16h.53l0,.11.14.2.16,0,.13.31h.09v.6l.19.08,0,.2.17.61a1.56,1.56,0,0,0,.31.2l.1.81.11.08.21.14.18.75.14.44.19.06.08.82h.11l0,.24.19.05,0,.46h.12l-.12,1.59h.12l0,.7a.26.26,0,0,0-.16.31v.07l.1,0,0,.36h.12l-.12,1.58h.13l0,.49h.11l-.2,1.12a.34.34,0,0,0,.09.3l-.2,1.19h-.13l0,.49h-.12l0,.4-.25.16v.15h-.12l0,.25h-.11l-.19.84h-.11l0,.07a2.55,2.55,0,0,0-.2.66l-.12,0-.1.07,0,.07a1.2,1.2,0,0,0-.09.35l-.12,0-.18.11-.25.88,0,.26-.28.13-.19.16a2.08,2.08,0,0,0-.62.72H163v1.54h.12L163,63.29h.1l0-.06c.09.25.33,1.26.35,1.37l-.22,0v.1l0,.16L163,65a.82.82,0,0,0-.11.25c0,.07,0,.11-.19.29l0,.35.08.46.19.08.06.34.06.21.26.2h.05l0,.32.43.35.09.57h.08l0-.05.12.28a1.28,1.28,0,0,0,.76.85v.22l.28,0,.15-.36h.15l.17-2.19h.13l.07-2.57H166l.05-.6h.12l.17-2.19h.12l0-.36h.12l.05-.61h.12l.05-.61.12,0,0-.25h.11l.18-.73h.14v-.09l0-.16.31-.19,0-.26h.13l0-.24h.1l.1-.34.19-.76.32-.18,0-.16.14-.06.17-.13,0-.17.34-.22.21-.18,0-.16.11,0,.2-.12.13-.44c.3-.22.61-.44.95-.73l0-.16a1.83,1.83,0,0,0,.3-.16l.1-.23,0-.06h.2l.06-.18.06-.31.32-.18v-.17h.11l.32-.43c.61.05.68.1.9.27a.57.57,0,0,0,.21.12l.28,1-.05.71h.12l0,.36h.12l0,.37h.11l-.35,1.6a12.64,12.64,0,0,1-1.13,5.05l-.69,4.28h-.12l0,.08a3.13,3.13,0,0,0-.12.65l-.31.18,0,.15h-.1l-.09.34-.05.28-.11,0-.2.13v.15h-.12l0,.25h-.12l0,.24H170l0,.24h-.12v.09l0,.18-.3.29,0,.17-.22.12-.21.15-.07.2,0,.22c-.12.07-.24.14-.43.27s-.11.41-.16.58a3.25,3.25,0,0,1-1.19.94l0,.66,0,.64.3.27.13.06,0,.34h.13l-.06,1.46L168,76l.07,0,0,.24.09.11,0,0h.1l0,.33.11.07h.08l0,.33h.13l0,.24.2.13c.12.44.25.89.41,1.38l.3.2,0,.46h.12l0,.24h.14l.09.5h.1l0,.37H170l.09.5h.11l0,.24.18,0,0,.34h.12l0,.24h.12v.32c.21.43.42.85.68,1.33a2.28,2.28,0,0,1,.36.15l.12,0v-.16H172l0-.07a7.54,7.54,0,0,1,.29-.88h.13l0-.08c.08-.23,0-.39-.08-.4a0,0,0,0,0,0,0l.12-1.56h-.12l0-.24h-.13l0-.25-.09-.05-.1,0a1.18,1.18,0,0,1,.23-.94.94.94,0,0,0,.12-.22l.1-1.35,0-1.74h.12l.08-1.1h.12l.17-2.19h.12l0-.37h.13l.08-1.1h.12l0-.37h.13l0-.24h.1l.19-.85h.14l0-.36h.1l.16-.51.14,0,.39-.93,0-.09c.17-.11.35-.22.55-.37l.09-.19,0-.12.1,0,.2-.12.13-.37v0a1.65,1.65,0,0,0,.29-.18l0-.17.31-.18,0-.16.3-.16.13-.44.32-.22.36-.29,0-.16.11,0,.21-.14,0-.17.39-.23a3.37,3.37,0,0,0,.9-1.13l.7-.08v-.08l.53.2.11.44h.1l0,.25h.12l-.16,2.07h.11l-.17.9h-.14l0,1.35h-.11s-.14.84-.21,1.21H180l-.09,1.22h-.12l-.1,1.34h-.13l0,.25h-.12l0,.61h-.1l-.16.48h-.14l-.05.61h-.1l-.16.48h-.14l0,.36h-.12v.1l0,.17-.16.08-.28.21v.15h-.12l0,.36h-.12l0,.25h-.12v.09l0,.17-.23.15-.33.25,0,.17-.31.18,0,.17-.43.29v.18l-.12,0,0,.11-.05.19-.14.06-.17.13,0,.17-1.05.67a7.65,7.65,0,0,0-.83,2.59v.07H174v1.41h-.12v.09l0,.29-.12,0-.19.12-.32,1.26h-.12c-.1.09-.13.13-.15.12h0a.44.44,0,0,0-.24.11c0,.08-.09.15-.08.19l-.22.06-.23.12,0,.24-.09.08s0,0,0,.13l0,.08.05,0,0,.18s.64.65.92.95l.13.1,0,.7h.14l0,.3.07.31.12.07h.07l.12.55.2.16.11,0,0,.46h.13l0,.25h.14l0,.24a.61.61,0,0,0,.15.07h0l0,.39.07.41a3.9,3.9,0,0,0,.43.36,7.43,7.43,0,0,0,.23.81.4.4,0,0,0,.15.07,0,0,0,0,0,0,0l0,.34h.13v.23c.16.13.31.27.43.35l.1.57h.07l.08,0,.26.37.34,0v-.12h.13V94a11.48,11.48,0,0,1,.29-5.11l0-.52h.12l0-.37h.1l0-.06a7.15,7.15,0,0,0,.06-2.38,4.87,4.87,0,0,1,.33-1.06v-.29l.28-.18,0-.27h.13l0-.24h.12v-.1l0-.17.26-.16.3-.24,0-.15h.11l0-.24h.12v-.39l.31-.2.25-.2,0-.27h.12v-.1l0-.16.31-.19,0-.17.15-.1.54-.41,0-.17a4.48,4.48,0,0,0,.43-.27l.11-.42.25-.14.17-.1c.09-.11.14-.2.19-.27a1.29,1.29,0,0,1,.49-.47l0-.17c.33-.06.41-.14.45-.44.31-.06.38-.07.37-.21s0-.06.13-.16l.23-.15,0-.3c.3-.17.6-.35.84-.52.95.09,1.09.49,1.28,1.23l-.06.82h.14l.08.51h.1l0,.49h.15a1.11,1.11,0,0,1-.22.71,1,1,0,0,0-.13.28l.06,1H186a2.05,2.05,0,0,1-.18.41l-.22,0-.06.73h-.12l0,.37h-.12l0,.24h-.12l0,.49H185l0,.25h-.11l-.18.84h-.14l0,.37h-.11l-.2,1h-.13l0,.36h-.12l0,.37h-.13l-.05.61h-.12l0,.37h-.12l0,.36h-.12l0,.25h-.12l0,.48H183v.1l0,.16-.13.06-.18.13,0,.27h-.13v.24h-.13l0,.51-.11,0a2,2,0,0,0-.14.46,1.71,1.71,0,0,1-.14.45l-.3.16-.23.55,0,.11-.29.12-.45,1.3-.41.23-.08.24,0,.22-.32.12v.06l0,.17-.11.06-.33.23v.15h-.12l0,.27-.11,0a4.23,4.23,0,0,0-.3.69,2.12,2.12,0,0,1-.71,1.12,2,2,0,0,0,.44,1.35l.3.17,0,.47H179a.13.13,0,0,1-.07.06l-.07,0,.06.93.05.08,0,0,.14,0,0,.34h.14c0,.27.17.87.17.87h.1v.24h.13l0,.24.19.05,0,.34H180l0,.36.12,0,0,.24h.14l0,.24.1.06h.09v.31l.2.19,0,.35h.12l0,.25h.12v.15l.07.1.05,0,.12,0,.08.69h.08l0,0c.08.13.15.25.29.44l.46,0v-.09l0-.07a1.59,1.59,0,0,0,.25-1.3l0-.06h-.11v-.49a.18.18,0,0,1-.07-.18h.13l.1-1.21h.12l0-.37h.1l.16-.48h.12s.24-.74.33-1.07h.15l0-.24h.11l.2-1h.13l0-.37h.11l0-.24H184l.35-1.32h.14l0-.36h.12l0-.37h.11l.18-.84h.14v-.87l.3-.16.25-.66L186,94l.17-.69h.13l0-.24h.11l.14-.68,0-.31.3-.12,0-.21H187l0-.36h.11l.06-.22.16-.43.22-.13.15-.35.1-.3.31-.13v-.06l0-.16.29-.12.15-.45h.14l0-.49h.12l0-.37H189v-.5a3,3,0,0,0,.43-.29l0-.16.15-.06.16-.1,0-.3.2,0,.1-.32.05-.19.35-.24.33-.26,0-.28h.13l0-.39.12,0,.06-.15,0-.15a1,1,0,0,0,.48-.18l.1-.06v-.08l.37,0v-.1c.58.14.83.55.81,1.3l-.07,1H193l.08.5h.12l.07.72.09.48a.29.29,0,0,0-.17.32v.08h.11l-.12,1.51h-.12l-.16,2h-.12l0,.24h-.12l0,.37-.12,0,0,.25h-.12l0,.37h-.12l0,.49H192l-.05.6h-.12l-.1,1.22h-.1l-.19.84h-.15l0,1h-.11l0,.37-.12,0,0,.25H191l0,.37h-.13l-.08,1h-.11l0,.25h-.12v.09l0,.29-.44.29v.15h-.11l-.36,1.57h-.13l-.17.72h-.12l-.16.48h-.13l-.2.88-.26.15a3.1,3.1,0,0,0-.12.66l-.3.11-.12.38v.08a1,1,0,0,0-.32.19l0,.18-.3.29,0,.2-.51.34-.05.11-.19.55-.31.16a2.59,2.59,0,0,0-.13.55,1.63,1.63,0,0,0-.3.18l0,.17-.13.08-.3.21,0,.17-.26.17-.3.22,0,.17-.07.37-.41.24a.66.66,0,0,0-.12.24c0,.07,0,.11-.19.28l-.1,1.31.14,0,0,.23.18,0,0,.34h.14l0,.22.08.38a.63.63,0,0,0,.31.19l-.07.84h.15l.07.42.06.08,0,0,.14,0v.31l.2.2,0,.33h.14l0,.24.12.07h.07c.09.41.18.83.3,1.3a1.13,1.13,0,0,0,.31.19l0,.34h.12l0,.52,0,.07,0,0a1.69,1.69,0,0,0,.39.29l0,.58h.12v.15l.06.1.05,0,.12,0a7,7,0,0,0,.1.8l.31.21.1.57h.07l0-.07.13.44.12.07.08,0a.32.32,0,0,1,0,.22.34.34,0,0,0,.15.35,1.13,1.13,0,0,1-.32.85.53.53,0,0,0-.16.25ZM168.8,110.36v0l0,0a.38.38,0,0,0,.27.11h.23v-.12l1.71.13v-.12l1.34.11v-.12l.36,0,0-.13,1.1,0v-.11l.37,0v-.1l1.21.34v-.14l.24,0v-.13l.36,0v-.12l.61,0V110l1,0,.1-.06a1.87,1.87,0,0,1,.25-.25l0-.46h-.1l-.05,0-.69-.95h-.05l-.16,0-.18-.31-.16,0-.12-.3-.47-.13c-.07-.11-.13-.23-.26-.42l-.65-.28-.37-.12-.19-.31-.38,0v-.12l-.36,0v-.12l-.25,0V106l-1.09-.21v0l0-.07-.69-.3v-.15l-.25,0v-.11l-.84-.19v-.13l-.25,0v-.11l-2.91-.48,0-.13-.25,0v-.12l-.85-.07v-.12l-.25,0v-.12l-.36,0v-.12l-2-.15v-.12l-.6,0V103l-.48,0v-.12l-2.26-.17v.12l-2.11,0-.95-.07v.13l-.61,0v.12l-.37,0V103L155,103v.12l-.36,0,0,.12-.73-.05v.12l-.24,0v.09l0,.05a2.05,2.05,0,0,0-.44.29c-.06.91.25,1,.74,1.09l.64.12,0,.22h.09l.17,0,.05.13.11.18.65.2v.12l0,.09,1.05.32v.14h.1l.19.05.15.23.17,0,.05.14.1.16.82.36.15.22.79.06,0,.11.66.21,0,.2.65.18.56.12.13.31.94.07v.13l.37,0v.12l.36,0v.12l.28,0,0,.12.52.22h.14l0,.21.85.07v.12l.37,0V110l.25,0v.1l.06,0,.14,0a.35.35,0,0,0,.3-.11h.14a1.56,1.56,0,0,1,.81.44,11.54,11.54,0,0,1,2-.1Zm10-17.15a.86.86,0,0,0,.6-.52l.14-.27.31-.13,0-.33.13,0,0-.25h.12l0-.25h.12v-.09l0-.17.43-.24,0-.23.12,0,0-.12.16-.54.2,0,.33-1.08h0l.1-.06.16-.65H182l0-.37h.12l0-.25h.11l.17-.72h.13l.21-1.09h.13v-.09l0-.16.32-.13v-.21h.13l0-.37h.11l0-.48h.12l.07-.86h.12l0-.49H184l.1-1.22h.1l.17-.5.14,0a9.93,9.93,0,0,0-.06-2.39V79h-.09a2.3,2.3,0,0,0-1.36.68l-.09.15-.09.07-.35.15,0,.17-.69.52,0,.17-.21.11-.23.18,0,.16-.12.05-.19.14,0,.17a5.34,5.34,0,0,0-.56.37l-.06.19-.05.23-.3.13,0,.2H180l0,.25h-.12l0,.37h-.12l0,.24h-.1l-.16.48h-.14l0,.37h-.13v.24H179l-.09,1.22h-.11l-.22.79h.12l0-.06a1.53,1.53,0,0,1,.08.74h-.14l-.09,1.21h-.13l0,.36h-.12L178,90.87c0,.09,0,.21,0,.32-.05.46-.11,1,0,1.15,0,.52,0,.7.43.84v.15l.31,0Zm-11.65-8.56h0l-.17,0-.12-.31h-.06l-.18,0-.2-.19,0-.33c-.21-.22-.44-.44-.64-.62a1.18,1.18,0,0,0-.19-.32l-.18,0-.29-.3h-.15v-.12l-.24,0v-.12l-.36,0v-.12h-.09l-.16,0a1,1,0,0,0-.19-.31l-.27,0v-.13l-.24,0v-.09l-.47-.17v-.14l-.37,0v-.11L161.32,81V80.9l-.6-.17v-.12l-.48-.16v-.14l-.37,0v-.12l-.93-.07-2.47-.68-.76-.21,0,.16h-.07a5.87,5.87,0,0,1-1.19-.3l-.06-.14-.09-.16a.43.43,0,0,0-.22-.06.93.93,0,0,0-.42.07l-.12,0-1.08-.21v.15a2.53,2.53,0,0,1-.39,0l-.39,0a1,1,0,0,0-.68.15c-.8-.06-.94,0-1.18.22l-.48.37c0,.32,0,.36.14.48l.06,0v.21h.09l.17,0,.28.43.45.11.24.1.15.23h.14v.12h.09l.29,0,.26.41.13.15.64.16V82l.25,0v.12h.09l.17,0,.17.31.76.17v.13l.61,0v.12l.24,0V83h.1l.16,0,.12.3.81.18v.14l.37,0v.11l.25,0v.13l.36,0V84l.25,0v.12l.61,0v.12h.24v.12l1.08.21v.11l.08,0,1.73.37v.14l1.22.09v.12l.86.07v.12l2,.15V86l.27,0,0,.11a1,1,0,0,0,.36.09h.44a.61.61,0,0,1,.33.12l1.22.1.07,0,0,0a.42.42,0,0,1,.19-.16l.07,0v-.06a1.12,1.12,0,0,0-.39-1l-.18-.23Zm1.94-16.72h.14v-.28l.27-.16,0-.29.13,0,.18-.14.19-1h.12l.17-.72h.15v-.24h.12l.08-1h.12l.05-.61h.12l0-.24H171l0-.37h.12l.16-1.95h.12l0-.61h.1l0-.07a2.33,2.33,0,0,0,.13-.79,1.11,1.11,0,0,1,.24-.8c0-.14,0-.3.06-.46.11-.89.25-2-.26-2.34l-.12-.11-.13,0h-.13l0,.05s-.1,0-.19.07l-.55.56-.17.21-.32,0,0,.07a1.81,1.81,0,0,1-.58.79,2.23,2.23,0,0,0-.51.61l-.16.64-.14,0,0,.37h-.13l0,.25h-.12l0,.48h-.11l-.21,1.1-.13,0,0,.37h-.12l0,.25-.12,0,0,.37h-.1l0,.06c-.08.22,0,.39.07.4h0l-.21,1.13h-.11l0,.08a1.64,1.64,0,0,0,0,.53,2.32,2.32,0,0,1,0,.87l-.14,0L167,67.28h.12l0,.24h.15l.07.62h.08l0,0a2.86,2.86,0,0,1,.14,1.2v.09h.54a.92.92,0,0,0,.19-.31h.21V69l0-.17.1-.06.33-.23Zm-17-4.14,1.34.1v-.12l1,.08V63.7c.32-.06.41-.13.51-.43h.14v-.09l0-.34-.31-.11-.24-.43h0l-.17,0-.11-.17-.29-.39-.17,0-.18-.31h-.15v-.1l-.48-.16v-.15h-.09l-.29,0-.12-.29-1-.4-.45-.13v-.21l-.24,0v-.12l-.73-.06v-.12l-.37,0v-.12h-.09l-.29,0-.18-.31H149v-.12l-3.76-.53v-.14l-1.23-.09v-.12l-1.52-.11-.18-.11a1.33,1.33,0,0,0-.59-.24,1,1,0,0,0-.24,0h-.08V58l-.73-.06v.13l-.37,0v.12l-.86-.07v.13l-.36,0v.12l-.3,0v-.14l-1.05.07v.11a1.72,1.72,0,0,0-1,.18,1.23,1.23,0,0,0-.31.18l0,.58.31.12.12.2.18.23.26.05v.21l.24,0v.11l.6.16v.15h.1l.16,0,.15.3.66.2,0,.21,2.53.57v.13l.24,0V62l.6.17v.13l1.09.21v.11l.48.16v.14L145,63v.13l.86.07v.12l.36,0v.1l.06,0a3,3,0,0,0,.83.15l.59,0,.6,0a2.29,2.29,0,0,1,1.05.26l2.79,0Zm6.07-8.61h.12l0-.31h-.13L158,53.15l-.19-.07,0-1.19h-.12l0-.37h-.13l-.06-.86h-.11l0-.24h-.12l.05-.61h-.12l0-.37h-.12v-.25h-.12l.07-.85H157l0-.4-.06-.21-.13-.08-.08-.11-.08-.46h-.1l.05-.61h-.15l0-.18-.07-.3-.31-.19.07-1h-.14v-.24l-.19,0,0-.34h-.13l0-.24-.19-.07-.09-.5,0-.07,0,0-.15,0,0-.46H155l0-.24h-.13l0-.24-.1-.06h-.09l0-.33-.19-.06v-.32l-.31-.22-.05-.25-.07-.3-.25-.22-.18-.1,0-.34-.18-.07,0-.24-.09-.33-.2-.11-.44-.66-.38-.38A2.85,2.85,0,0,1,151.3,37a.59.59,0,0,1-.42-.35.94.94,0,0,0-.3-.32l-.16,0-.12-.31h-.06l-.18,0-.2-.19,0-.34h-.09l0,0-.11-.28h0a.34.34,0,0,0-.24-.11l-.16-.19H149a.79.79,0,0,0-.52-.61.61.61,0,0,0-.23-.09h0l0-.22h-.1l-.16,0-.11-.18-.19-.25-.4-.12L147,33l-.13,0-.18-.05,0-.12-.11-.19a2.39,2.39,0,0,0-.42-.11l-.08-.15-.21-.28-.18,0-.35-.56-.34,0,0-.11a1.85,1.85,0,0,0-.32-.18c-.2-.1-.28-.14-.53-.52a1.61,1.61,0,0,0-1,.16l-.1,0V31a4.29,4.29,0,0,0,0,.64c0,.17,0,.33,0,.42l-.23.37h.2l.06.75h.12l.05,1h.08l0-.07.27.83h0l0,.25h.14l.15,1.23h.1v.25h.14l.1.52.11.35.1.06.09,0,0,.34.14,0c0,.14.09.49.09.49h.13L145,39l.16.54.1.06h.09l.08.55.13.64.19.08.05.21.12.24H146l.28,1.23a7,7,0,0,0,.54.48l0,.18.1.39.11.06h.08l0,.34h.14l0,.28.07.33.19,0,0,.34.21.11a2.13,2.13,0,0,1,.46.93c.36.12.36.21.36.38a.86.86,0,0,0,.18.52l.17.07.13,0v.19l.34.23.09.51a1.92,1.92,0,0,0,.22.39c.08.13.16.26.29.44l.17,0a1,1,0,0,0,.18.38l.21.26h.18a3,3,0,0,0,1,1.47c.16.16.31.31.43.45l.78,1.18.14.15,1,1,0,.34.19,0v.19a1.52,1.52,0,0,0,.47.34,2.07,2.07,0,0,1,.35.22l.2.19,0,.34h.09l0,0,.39.54.23.28,1.13.08a2.6,2.6,0,0,0,.36-.13,2.18,2.18,0,0,1,.51-.17h.08Z"/><path class="cls-1" d="M8.07,146.09c-1,23.82,9.59,69.31,62.74,78.63.55.82,12.88.55,12.6-.55s-12-1.72-14.79-2.19C59.58,220.43,11.08,207.18,8.07,146.09Z"/><path class="cls-1" d="M101,221.29c27.41-3.88,58.17-34.13,59.47-77.83a5.29,5.29,0,0,1,1.29.26c-.26,37-26.11,73.69-60.24,80.41C100.74,224.65,100,222.06,101,221.29Z"/><path class="cls-1" d="M11,135.74c-.75.3-.47,3,1,2.3,17.62-9.19,62.8-10.85,77.87-10.47s61.39,3.65,68.8,10.54c.39.46,1.53-1,1.53-1C127.8,121.77,41.9,123.23,11,135.74Z"/><path class="cls-1" d="M10,141.2c6.69,1.8,50.81,4.59,75,4.34s62.92-1,72.4-5.36c.17-.2,4.29,1.68-1.58,2.8s-48.48,4.11-74.24,3.83S13.92,145,10.49,144,10,141.2,10,141.2Z"/></g></g></svg>