<svg xmlns="http://www.w3.org/2000/svg" viewBox="0 0 309.27 261.45"><defs><style>.cls-1{fill:#fff;}</style></defs><g id="Layer_2" data-name="Layer 2"><g id="レイヤー_1" data-name="レイヤー 1"><path class="cls-1" d="M307.38,199.83c-2.55-8.87-5.14-17.73-7.69-26.6-6.39-22.18-10.93-44.82-17-67.09-7-25.9-13.16-52-18.28-78.41-1.41-7.25-3.83-14.33-6.12-21.38C256.5.74,254-.55,248.23.19c-8,1-15.72,3.61-23.45,5.91a74.05,74.05,0,0,0-8.3,3.21,4.05,4.05,0,0,0-2,5c.9,1.78,2.49,1.22,3.91.89s2.54-.73,3.81-1.08q9.76-2.73,19.53-5.44a11.67,11.67,0,0,1,5.37-.53,2.63,2.63,0,0,1,2.24,2.34c.1,1-1,1.13-1.7,1.47-.88.42-1.76.87-2.64,1.31a265.46,265.46,0,0,0-25.53,8.1c.07,2.43,1.14,3.35,3.45,2.16a55.19,55.19,0,0,1,8.62-3.41c5.9-1.86,11.75-3.84,17.62-5.78,1.35,0,2.68,0,2.86,1.81.15,1.53-1.1,1.92-2.08,2.32-3.24,1.35-6.53,2.56-9.8,3.82-5.93.51-11.34,3.16-17.16,4.13-1.35.22-1.56,1.53-1.51,2.76a9.69,9.69,0,0,0,2.88.1c6.71-1.85,13.54-3.3,20-6,2.39.05,4.38-1.3,6.6-1.81,1.05-.24,2.39-.67,3,.83s-.33,2.4-1.77,2.88c-4,1.32-8,2.69-12,4-5.4,1.27-10.81,2.52-16.21,3.83-1,.24-1.86.9-1.59,2.08.33,1.45,1.44,1.64,2.69,1.23l19.12-6.23c3-.52,6-.94,9-1.59,1.32-.29,2.29-.26,2.69,1.13s.57,2.77-1.37,3.54c-1.49.58-3.22.62-4.45,1.82-8.23,1.06-15.33,5.85-23.52,7.06a1.34,1.34,0,0,0-1,1.49A1.57,1.57,0,0,0,227.2,45a6.23,6.23,0,0,0,2.4-.42A176.76,176.76,0,0,1,254.19,36c1.84-.24,3.22.18,3.63,2.29s-1,2.49-2.49,3c-5.94,1.9-11.84,3.91-17.83,5.64-3,.87-5.85,2.17-9,2.42-1,.08-2,.79-1.77,1.94.29,1.41,1.46,1.58,2.72,1.16.16,0,.3-.13.46-.18,4.21-1.37,8.4-2.8,12.64-4.09,4.55-1.38,9.14-2.61,13.72-3.9.94-.27,1.95-.64,2.54.57a3.46,3.46,0,0,1-1.55,4.56c-1.31.61-2.72,1-4.08,1.52a9,9,0,0,0-5.24.91A108.51,108.51,0,0,1,232.61,57a3.44,3.44,0,0,0-2.13,1.09,2.11,2.11,0,0,0-.44,1.33,1.39,1.39,0,0,0,1.32,1.23,4.05,4.05,0,0,0,1.89-.3c8.07-3.62,16.51-6.1,25-8.46,2.68.18,2.83,2.15,3.07,4.17a3,3,0,0,1-2.06,3.44c-1,.44-1.8,1.44-3.06,1.33a7.44,7.44,0,0,0-1.94,0c-6.69,1.66-13.17,4.07-20,5.25a2.34,2.34,0,0,0-.87.42,1.54,1.54,0,0,0-.73,1.68A1.48,1.48,0,0,0,234,69.35a7.42,7.42,0,0,0,2.35-.49c7.45-2.57,15-4.68,22.64-6.72,1.41.18,3.34-1.38,4,1.24.6,2.37-1.31,3-2.7,4.05a.63.63,0,0,1-.47.08c-1.77-.48-2.95,1.24-4.59,1.23-6.26.46-12,3.23-18.1,4.3a1.78,1.78,0,0,0-1.57,2.14,1.81,1.81,0,0,0,2.73,1.21c6.77-3,14-4.44,21-6.73,1.59.43,3.58-1,4.83,1.07,1.8,3,1.24,4.91-1.9,6.53-1.14.59-2.43.89-3.54,1.38-2.4,1-5.28,0-7.38,1.91-4.16.13-7.74,2.4-11.73,3.23a1.61,1.61,0,0,0-1.15,2.29c.45,1.19,1.41,1.12,2.42.74l13.68-5.21c3-.62,6-1.25,9.07-1.85,1.88-.38,3,.14,3.57,2.24.55,2.28.3,3.63-2.25,4.37-1.2.35-2.31,1.11-3.65,1.12-7.09.33-13.55,3.68-20.59,4.24a1.07,1.07,0,0,0-.44.19,1.7,1.7,0,0,0-.8,2.09,1.43,1.43,0,0,0,1.46,1.08,12.66,12.66,0,0,0,2.35-.65c4.42-1.21,8.8-2.61,13.27-3.59,4.13-.9,8.27-2.22,12.61-1.38.06.49.11,1,.19,1.48.54,3.48.56,3.53-2.57,4.44-2.53.73-5.08,1.43-7.66,2-5,1-9.77,3-14.93,3.36a1.68,1.68,0,0,0-1.69,2c.21,1.17,1.26,1.48,2.3,1.32a20.22,20.22,0,0,0,3.34-.86c5.32-1.82,10.78-3.07,16.23-4.39a37.73,37.73,0,0,1,4.38-.72c2.59-.33,2.84,1.73,3.35,3.43.62,2.08-.81,2.54-2.39,2.84-7.76,1.5-14.78,5.79-22.86,6.1a2.08,2.08,0,0,0-.94.27c-.75.44-1.3,1-1,2a1.49,1.49,0,0,0,1.49,1.08,10.57,10.57,0,0,0,2.4-.5c4.77-1.29,9.56-2.47,14.24-4.13a58.79,58.79,0,0,1,8.17-1.91c1.11-.22,2.25-.31,2.95,1.06.91,1.79.56,2.84-1.85,3.49-8.1,2.19-15.94,5.35-24.28,6.67-1.19.19-2.45.64-2.1,2.13s1.59,1.45,2.8,1c.62-.22,1.22-.53,1.85-.71,7.45-2.08,14.7-4.88,22.36-6.28,1.89-.35,3.13-.31,3.83,1.78s.43,3.4-1.84,4.14c-1.53.5-2.8,1.75-4.57,1.55-2.6-.56-4.77.9-7.13,1.46-4.16,1-8,3.09-12.24,3.7a1.55,1.55,0,0,0-1.3,2.19,1.73,1.73,0,0,0,1.93,1.18,5.49,5.49,0,0,0,1.4-.42A204.88,204.88,0,0,1,275.47,123c3.35.47,3.76,1,4.34,4,.48,2.55-1.51,2.5-2.91,3.09a34.12,34.12,0,0,1-3.26,1.16q-10.59,3.3-21.19,6.56c-1,.31-2,.71-1.67,1.95s1.35,1.3,2.38,1.07c.63-.14,1.22-.46,1.85-.65,7.09-2.15,14.16-4.33,21.27-6.4,4.79-1.39,5.25-1,5.88,3.82.28,2.16-.3,3.47-2.56,3.94a24.49,24.49,0,0,0-3.25,1.12c-7,.85-13.5,3.95-20.46,5.13a1.5,1.5,0,0,0-1.22,1.84,1.82,1.82,0,0,0,2.09,1.62,5,5,0,0,0,1.85-.61c3.49-1.9,7.37-2.7,11.11-3.92,3.25-1.06,6.75-1.3,9.82-3a3.86,3.86,0,0,0,1,0c2-.49,2.86.76,3.43,2.35.77,2.16-1,2.28-2.28,2.85-.44.2-.84.47-1.26.7-4.77,1.16-9.55,2.27-14.3,3.51-2.69.7-5.34,1.59-8,2.48a1.72,1.72,0,0,0-1.26,2.3c.39,1.2,1.34,1.27,2.39,1a8.14,8.14,0,0,0,1.4-.44c6.31-3.29,13.26-4.64,20-6.54,3.59-1,3.67-.83,5.66,2.57.48,2.33-.92,3.21-2.83,3.82a159.76,159.76,0,0,1-21,5.37c-1.73.31-4.87-.12-4.21,2.54.62,2.46,3.36,1.1,5.12.44,7-2.59,14.42-3.32,21.48-5.55,2.23-.7,3,.23,3.39,2.16s.59,3.66-1.83,4.37c-1.4.41-2.36,1.82-4,1.81a7.36,7.36,0,0,0-1.94,0,180.37,180.37,0,0,1-17.59,4.6,6.22,6.22,0,0,0-1.42.39c-.78.35-1.46.9-1.18,1.87a1.77,1.77,0,0,0,2.24,1.39,38.87,38.87,0,0,0,4.17-1.46c6.42-2.48,13.33-3.32,19.71-5.93,2.39-.28,3.76.72,3.92,3.18s-1.86,1.95-3.1,2.32c-6.77,2-13.57,3.93-20.36,5.87a22.88,22.88,0,0,0-2.36.68,1.34,1.34,0,0,0-.87,1.57,1.48,1.48,0,0,0,1.83,1.19,8.1,8.1,0,0,0,1.42-.39c4.24-1.28,8.48-2.58,12.74-3.84a43.34,43.34,0,0,1,9.62-2,2.23,2.23,0,0,1,2.62,2.54c-.11,1.76-1.6,2-2.77,2.35-6.53,2.24-13.09,4.39-19.63,6.6A28.52,28.52,0,0,0,265.9,192a1.42,1.42,0,0,0-.73,1.67A1.58,1.58,0,0,0,267,195a30.12,30.12,0,0,0,4.58-1.73c6.74-3.07,14-4.6,20.94-6.92,1.46,5.41,1.46,5.41-3,7.83a7.83,7.83,0,0,0-1.95.17,122.74,122.74,0,0,1-15.65,4.28,12,12,0,0,0-2.8.93,1.83,1.83,0,0,0-1.15,2.39,1.62,1.62,0,0,0,2.43.87,62.56,62.56,0,0,1,8.8-3.11c4.55-1.36,9.19-2.44,13.52-4.45,2.68,1,2.51,3.51,2.68,5.57.13,1.6-1.81,1.63-2.95,2.13-5.92,2.59-12.27,3.83-18.39,5.78-1.49.48-3.73.84-2.77,3.06.85,2,2.49.49,3.83.05,6.87-2.26,13.76-4.47,20.64-6.69,1.54,4.9,1.38,5.58-2.08,7.64a27.54,27.54,0,0,1-4.47,2.08c-4.79,1.78-9.63,3.44-14.58,4.75-3.28.86-4.22,2.55-3.42,5.68a1.81,1.81,0,0,0,1.71,1.52,10.54,10.54,0,0,0,2.42-.34c10.21-2.1,19.92-5.79,29.64-9.44a6.25,6.25,0,0,0,4.3-6.52A40.73,40.73,0,0,0,307.38,199.83ZM264.06,48.07c-2.29-1.7-2.39-3.44-1.66-6.13C263.77,44,264.49,45.61,264.06,48.07Zm2,15.53a1.06,1.06,0,0,1,.89-1.41c.6-.07.89.46.92.92.14,2.17.6,4.36-.26,7.32C267,67.63,266.46,65.62,266.06,63.6Zm5.84,21c-1.93-1.92-1.93-1.92-1.38-5.47C271.3,80.82,272.4,82.45,271.9,84.56Zm26.52,106.17c-.56.09-.88-.34-1.06-.8a13.21,13.21,0,0,1-1-6.6,9.83,9.83,0,0,1,2.94,5.95A1.14,1.14,0,0,1,298.42,190.73Z"/><path class="cls-1" d="M75.67,185a15.93,15.93,0,0,1-1.26,4.75c-2.55,7.1-7.33,12.82-11.74,18.77a10,10,0,0,1-3.62,2.5,65.26,65.26,0,0,0-10.44,6.54,10.52,10.52,0,0,0-5.07,5c-2.54,2.24-3.9,5.22-5.35,8.2a12.44,12.44,0,0,0,1.25,13.13c2.08,2.88,2,5.27,1.47,8.16-.2,1.13-.51,2.25-.67,3.39a8,8,0,0,0,1.09,5.22,1.36,1.36,0,0,0,1.69.65,1.23,1.23,0,0,0,.68-1.62c-.33-1.23-1.09-2.35-.3-3.76,1.88-3.32,3.81-6.35,7.58-8.1a32.67,32.67,0,0,0,18.1-34.61,9.26,9.26,0,0,1,.64-5.73c2.42-5.2,5.7-9.91,8.61-14.83a38.85,38.85,0,0,1,6.92-8.15,12.19,12.19,0,0,0-6.12-2.37C77,182,75.73,182.48,75.67,185Zm-22.7,56a9.88,9.88,0,0,1-3.34.83c-4.62.24-6.75-2-6.21-6.56.39-3.28,1.81-6.28,2.63-9.45h0c2.64-2.12,4.68-4.94,8.11-6.14a18.54,18.54,0,0,1,4.72-1.22c3.4-.25,4.91.95,5.21,4.26A18.62,18.62,0,0,1,53,241.05Z"/><path class="cls-1" d="M202.93,124.37a1.52,1.52,0,0,0-1.93-1.11,74.33,74.33,0,0,0-9.93,2.86c-13.79,5.79-27.5,11.78-41.24,17.7-1.56.49-3.14.93-4.67,1.5-8.61,3.19-17.07,6.79-25.78,9.73-6.51,2.2-12.89,4.8-19.32,7.21C91.43,165,83,168.15,74.54,171.38a3.46,3.46,0,0,0-3,.94,5.33,5.33,0,0,0-3,1,11.17,11.17,0,0,0-6.08,1.9c-1.73.42-3.39,1-5.17,1.32-3.21.59-6.64.68-9.53,2.35a16.32,16.32,0,0,1-12.29,1.73c-4.17-.91-8.2-2.52-12.52-2.77C14,177.3,6.79,180.46,1.85,188c-3.49,5.34-1.92,10.82,3.66,13.77a19.22,19.22,0,0,0,15.79,1.34c9.28-3.18,17.2-8.35,23-16.35a10,10,0,0,1,5.06-3.64,71.23,71.23,0,0,1,17.83-3.82c6.87-.61,13.86-.49,20.39,2.3,2,.85,3.47.3,5.08-.66,3.25-1.93,6.43-4.05,9.83-5.7,16.16-7.84,32.41-15.51,48.59-23.32,4.88-2.35,10-4.21,14.55-7.24a7.88,7.88,0,0,0,1.4-.44q16.83-8.81,33.62-17.64c.44-.23.82-.55,1.26-.78C202.53,125.53,203.09,125.06,202.93,124.37ZM30.69,192.89a19.07,19.07,0,0,1-15.37,6.29,34.29,34.29,0,0,1-3.93-.28,4.92,4.92,0,0,1-4.15-3.73c-.55-2.1-.85-4.47,1.15-5.93,4.93-3.59,10.06-6.86,16.6-6.25a10.58,10.58,0,0,1,4.22,1.13C33.45,186.41,34,189.15,30.69,192.89Zm58.63-18.58c-.9,0-1.7-.19-1.9-1.15-.26-1.26,1.27-2.82,2.65-2.73a1.82,1.82,0,0,1,1.9,1.76C91.93,173.8,90.52,174.06,89.32,174.31Zm38-18.71q-10,3.92-20.29,7.1a10.63,10.63,0,0,1-4.79.65c8.73-3.79,17.86-6.52,26.81-9.75,2.27-.82,4.36-2.45,7-2.08C133.63,153.88,130.33,154.43,127.34,155.6Zm13.46-5.83c2.3-2.55,5.64-2.87,8.6-4,.25-.1.75.44,1.13.69C147.29,147.6,144.31,149.46,140.8,149.77Zm22.81-8.13-5,1.23a13.89,13.89,0,0,1,8.39-4.12C166.53,140.93,164.39,140.39,163.61,141.64Z"/><path class="cls-1" d="M99.93,156.13c3.43-6.57,7.13-13,10.58-19.55,4.37-8.3,9.69-16.08,13.47-24.7,3.58-5.53,7-11.19,10.78-16.54,6.23-8.72,10.87-18.44,17.27-27,.69-.92,1.51-2.09.32-3.05-1.37-1.11-2,.35-2.63,1.22-3,3.87-5.58,8.07-8.37,12.1-14,20.17-27.56,40.64-41.18,61.06a22,22,0,0,0-3.92,5.91,70.9,70.9,0,0,0-7.94,11.93l-6.18,7.24c4.53-.66,7.75-2.38,11.2-3.19A9.6,9.6,0,0,0,99.93,156.13Zm-1.75-8.42c-1.5,2.06-2.45,4.58-4.87,5.88C94.14,151,95,148.38,98.18,147.71Z"/></g></g></svg>